<svg width="48" height="48" viewBox="0 0 48 48" fill="none" xmlns="http://www.w3.org/2000/svg">
<path d="M44 3.20001H4C1.792 3.20261 0.0026 4.99201 0 7.20001V23.2C0.0026 25.408 1.792 27.1974 4 27.2H44C46.208 27.1974 47.9974 25.408 48 23.2V7.20001C47.9974 4.99201 46.208 3.20261 44 3.20001ZM5.6 4.80001H42.4V7.20001C42.4 8.52551 41.3255 9.60001 40 9.60001H8C6.6745 9.60001 5.6 8.52551 5.6 7.20001V4.80001ZM42.4 25.6H5.6V24.8H42.4V25.6ZM42.4 23.2H5.6V22.4H42.4V23.2ZM42.4 20.8H5.6V20H42.4V20.8ZM46.4 23.2C46.4 24.5255 45.3255 25.6 44 25.6V19.2C44 18.7582 43.6418 18.4 43.2 18.4H4.8C4.3582 18.4 4 18.7582 4 19.2V25.6C2.6745 25.6 1.6 24.5255 1.6 23.2V7.20001C1.6 5.87451 2.6745 4.80001 4 4.80001V7.20001C4.0026 9.40801 5.792 11.1974 8 11.2H40C42.208 11.1974 43.9974 9.40801 44 7.20001V4.80001C45.3255 4.80001 46.4 5.87451 46.4 7.20001V23.2Z" fill="#4B1600"/>
<path d="M26.4002 16H20.0002C19.5584 16 19.2002 16.3582 19.2002 16.8C19.2002 17.2418 19.5584 17.6 20.0002 17.6H26.4002C26.842 17.6 27.2002 17.2418 27.2002 16.8C27.2002 16.3582 26.842 16 26.4002 16Z" fill="#4B1600"/>
<path d="M40.8002 12.8H40.0002C39.5584 12.8 39.2002 13.1582 39.2002 13.6C39.2002 14.0418 39.5584 14.4 40.0002 14.4H40.8002C41.242 14.4 41.6002 14.0418 41.6002 13.6C41.6002 13.1582 41.242 12.8 40.8002 12.8Z" fill="#4B1600"/>
<path d="M43.9999 12.8H43.1999C42.7581 12.8 42.3999 13.1582 42.3999 13.6C42.3999 14.0418 42.7581 14.4 43.1999 14.4H43.9999C44.4417 14.4 44.7999 14.0418 44.7999 13.6C44.7999 13.1582 44.4417 12.8 43.9999 12.8Z" fill="#4B1600"/>
<path d="M25.6004 29.6C25.6004 29.1582 25.2422 28.8 24.8004 28.8C24.3586 28.8 24.0004 29.1582 24.0004 29.6C24.0149 30.3097 23.7793 31.0018 23.3348 31.5552C22.089 33.2463 22.089 35.5513 23.3348 37.2424C24.2221 38.396 24.2221 40.0023 23.3348 41.156C22.7146 41.9731 22.3857 42.9743 22.4004 44C22.4004 44.4418 22.7586 44.8 23.2004 44.8C23.6422 44.8 24.0004 44.4418 24.0004 44C23.9858 43.2898 24.2214 42.5971 24.666 42.0432C25.9107 40.3512 25.9107 38.0464 24.666 36.3544C23.7787 35.2014 23.7787 33.5954 24.666 32.4424C25.2862 31.6259 25.6151 30.6252 25.6004 29.6Z" fill="#4B1600"/>
<path d="M19.2 29.6C19.2 29.1582 18.8418 28.8 18.4 28.8C17.9582 28.8 17.6 29.1582 17.6 29.6C17.6145 30.3097 17.3789 31.0018 16.9344 31.5552C15.6886 33.2463 15.6886 35.5513 16.9344 37.2424C17.8217 38.396 17.8217 40.0023 16.9344 41.156C16.3142 41.9731 15.9853 42.9743 16 44C16 44.4418 16.3582 44.8 16.8 44.8C17.2418 44.8 17.6 44.4418 17.6 44C17.5854 43.2898 17.821 42.5971 18.2656 42.0432C19.5103 40.3512 19.5103 38.0464 18.2656 36.3544C17.3783 35.2014 17.3783 33.5954 18.2656 32.4424C18.8858 31.6259 19.2147 30.6252 19.2 29.6Z" fill="#4B1600"/>
<path d="M32.0003 29.6C32.0003 29.1582 31.6421 28.8 31.2003 28.8C30.7585 28.8 30.4003 29.1582 30.4003 29.6C30.4148 30.3097 30.1792 31.0018 29.7347 31.5552C28.4889 33.2463 28.4889 35.5513 29.7347 37.2424C30.622 38.396 30.622 40.0023 29.7347 41.156C29.1145 41.9731 28.7856 42.9743 28.8003 44C28.8003 44.4418 29.1585 44.8 29.6003 44.8C30.0421 44.8 30.4003 44.4418 30.4003 44C30.3857 43.2898 30.6213 42.5971 31.0659 42.0432C32.3106 40.3512 32.3106 38.0464 31.0659 36.3544C30.1786 35.2014 30.1786 33.5954 31.0659 32.4424C31.6861 31.6259 32.015 30.6252 32.0003 29.6Z" fill="#4B1600"/>
</svg>
