<svg width="48" height="48" viewBox="0 0 48 48" fill="none" xmlns="http://www.w3.org/2000/svg">
<path d="M17.0324 18.5806C17.0324 16.8728 15.6435 15.4839 13.9356 15.4839C12.2278 15.4839 10.8389 16.8728 10.8389 18.5806C10.8389 19.1272 10.9914 19.6583 11.2678 20.129C10.9914 20.5997 10.8389 21.1308 10.8389 21.6774C10.8389 23.3853 12.2278 24.7742 13.9356 24.7742C15.6435 24.7742 17.0324 23.3853 17.0324 21.6774C17.0324 21.1308 16.8799 20.5997 16.6035 20.129C16.8799 19.6583 17.0324 19.1272 17.0324 18.5806ZM13.9356 23.2258C13.0817 23.2258 12.3873 22.5313 12.3873 21.6774C12.3873 21.1966 12.6071 20.8521 12.7906 20.647C13.3929 19.9788 14.4776 19.9788 15.0799 20.647C15.2642 20.8521 15.484 21.1966 15.484 21.6774C15.484 22.5313 14.7896 23.2258 13.9356 23.2258ZM15.4329 18.9731C14.9769 18.7184 14.4621 18.5806 13.9356 18.5806C13.4092 18.5806 12.8944 18.7184 12.4384 18.9731C12.4066 18.8547 12.3873 18.7239 12.3873 18.5806C12.3873 17.7267 13.0817 17.0322 13.9356 17.0322C14.7896 17.0322 15.484 17.7267 15.484 18.5806C15.484 18.7239 15.4647 18.8547 15.4329 18.9731Z" fill="#4B1600"/>
<path d="M17.0323 28.6452H15.4839V38.7097H17.0323V28.6452Z" fill="#4B1600"/>
<path d="M13.9356 33.2903H12.3872V38.7097H13.9356V33.2903Z" fill="#4B1600"/>
<path d="M3.09668 30.9677V38.7097H10.8386V30.9677H3.09668ZM9.29023 34.0645H7.74184V35.6129H9.29023V37.1613H4.64507V35.6129H6.19345V34.0645H4.64507V32.5161H9.29023V34.0645Z" fill="#4B1600"/>
<path d="M34.0646 3.09677H27.8711V4.64516H34.0646V3.09677Z" fill="#4B1600"/>
<path d="M21.6772 12.3871V20.129H35.6127V12.3871H21.6772ZM34.0643 18.5806H23.2256V13.9355H34.0643V18.5806Z" fill="#4B1600"/>
<path d="M39.4839 12.3871H37.9355V13.9355H39.4839V12.3871Z" fill="#4B1600"/>
<path d="M39.4839 15.4839H37.9355V17.0322H39.4839V15.4839Z" fill="#4B1600"/>
<path d="M39.4839 18.5807H37.9355V20.129H39.4839V18.5807Z" fill="#4B1600"/>
<path d="M46.4516 43.4973V3.87097C46.4516 1.73652 44.7151 0 42.5806 0H19.3548C17.2204 0 15.4839 1.73652 15.4839 3.87097V12.3871H2.32258C1.04206 12.3871 0 13.4292 0 14.7097V39.4839C0 40.7644 1.04206 41.8064 2.32258 41.8064H15.4839V43.4973C14.585 43.8178 13.9355 44.6694 13.9355 45.6774V48H48V45.6774C48 44.6694 47.3504 43.8178 46.4516 43.4973ZM17.0323 3.87097C17.0323 2.59045 18.0743 1.54839 19.3548 1.54839H42.5806C43.8612 1.54839 44.9032 2.59045 44.9032 3.87097V6.19355H17.0323V3.87097ZM17.0323 7.74194H44.9032V27.871H38.9272H23.0083H20.129V23.2258H43.3548V9.29032H18.5806V12.5295C18.3375 12.4428 18.079 12.3871 17.8065 12.3871H17.0323V7.74194ZM36.9437 29.4194L36.5566 30.9677H25.3788L24.9917 29.4194H36.9437ZM20.129 21.6774V14.7097V10.8387H41.8064V21.6774H20.129ZM2.32258 40.2581C1.896 40.2581 1.54839 39.9104 1.54839 39.4839V14.7097C1.54839 14.2831 1.896 13.9355 2.32258 13.9355H17.8065C18.233 13.9355 18.5806 14.2831 18.5806 14.7097V23.2258V39.4839C18.5806 39.9104 18.233 40.2581 17.8065 40.2581H2.32258ZM46.4516 46.4516H15.4839V45.6774C15.4839 45.2508 15.8315 44.9032 16.2581 44.9032H40.2581V43.3548H17.0323V41.8064H17.8065C19.087 41.8064 20.129 40.7644 20.129 39.4839V29.4194H23.3954L24.1695 32.5161H37.7659L38.5401 29.4194H44.9032V43.3548H41.8064V44.9032H45.6774C46.104 44.9032 46.4516 45.2508 46.4516 45.6774V46.4516Z" fill="#4B1600"/>
</svg>
