<svg width="48" height="48" viewBox="0 0 48 48" fill="none" xmlns="http://www.w3.org/2000/svg">
<path d="M40.488 39.936L40.7812 37.593L39.2932 37.407L39 39.75H36.75V41.25H39C39.7552 41.25 40.395 40.6852 40.488 39.936Z" fill="#4B1600"/>
<path d="M45.7417 15.8857C45.7432 15.84 45.75 15.795 45.75 15.75C45.75 13.917 44.4277 12.387 42.687 12.063C42.363 10.3222 40.833 9 39 9C37.7715 9 36.6548 9.5895 35.958 10.572C35.256 10.4303 34.5487 10.5023 33.9075 10.7483C33.231 9.67725 32.046 9 30.75 9C29.241 9 27.8918 9.918 27.3083 11.265C26.85 11.2215 26.406 11.2718 25.9688 11.4008C25.119 10.3575 23.862 9.75 22.5 9.75C21.3465 9.75 20.2973 10.1895 19.5 10.905V3.75C19.5 2.0955 18.1545 0.75 16.5 0.75C14.8455 0.75 13.5 2.0955 13.5 3.75V29.25H12C10.7595 29.25 9.75 30.2595 9.75 31.5V33.75H4.5C2.43225 33.75 0.75 35.4323 0.75 37.5V39.75H2.25V47.25H30.75V44.25H39.3518C41.2395 44.25 42.8392 42.8377 43.0755 40.944L44.931 21.75H45C46.2405 21.75 47.25 20.7405 47.25 19.5V18C47.25 17.0205 46.617 16.194 45.7417 15.8857ZM22.5 11.25C23.547 11.25 24.501 11.7922 25.0537 12.7005L25.4093 13.284L26.0235 12.9847C26.5208 12.7432 26.9527 12.66 27.6112 12.8483L28.3845 13.068L28.551 12.282C28.7685 11.2492 29.694 10.5 30.75 10.5C31.6973 10.5 32.5463 11.1075 32.8628 12.012L33.1845 12.9315L33.9915 12.3855C34.5765 11.9902 35.3032 11.8733 36.042 12.153L36.684 12.396L36.9825 11.778C37.3628 10.9897 38.1367 10.5 39 10.5C40.2405 10.5 41.25 11.5095 41.25 12.75V13.5H42C43.2405 13.5 44.25 14.5095 44.25 15.75H20.25C19.986 15.75 19.7355 15.804 19.5 15.888V14.25C19.5 12.5955 20.8455 11.25 22.5 11.25ZM20.319 21.75L21.0443 29.2545C21.0292 29.2545 21.015 29.25 21 29.25H19.5V21.612C19.7355 21.696 19.986 21.75 20.25 21.75H20.319ZM15 3.75C15 2.92275 15.6727 2.25 16.5 2.25C17.3272 2.25 18 2.92275 18 3.75V18V19.5V29.25H15V3.75ZM11.25 31.5C11.25 31.0868 11.5868 30.75 12 30.75H21C21.4132 30.75 21.75 31.0868 21.75 31.5V33.75H11.25V31.5ZM2.25 37.5C2.25 36.2595 3.2595 35.25 4.5 35.25H28.5C29.7405 35.25 30.75 36.2595 30.75 37.5V38.25H2.25V37.5ZM20.25 41.25V45.75H18.75V39.75H23.25V45.75H21.75V41.25H20.25ZM14.25 41.25V45.75H12.75V39.75H17.25V45.75H15.75V41.25H14.25ZM8.25 41.25V45.75H6.75V39.75H11.25V45.75H9.75V41.25H8.25ZM3.75 39.75H5.25V45.75H3.75V39.75ZM27.75 45.75V41.25H26.25V45.75H24.75V39.75H29.25V45.75H27.75ZM41.5845 40.779C41.4442 41.9025 40.4843 42.75 39.3518 42.75H30.75V39.75H32.25V37.5C32.25 35.4323 30.5677 33.75 28.5 33.75H23.25V31.5C23.25 30.8955 23.0078 30.3487 22.6185 29.9437L21.8258 21.75H43.4242L41.5845 40.779ZM45.75 19.5C45.75 19.9132 45.4132 20.25 45 20.25H20.25C19.8368 20.25 19.5 19.9132 19.5 19.5V18C19.5 17.5868 19.8368 17.25 20.25 17.25H45C45.4132 17.25 45.75 17.5868 45.75 18V19.5Z" fill="#4B1600"/>
<path d="M45 9C46.2405 9 47.25 7.9905 47.25 6.75C47.25 5.5095 46.2405 4.5 45 4.5C43.7595 4.5 42.75 5.5095 42.75 6.75C42.75 7.9905 43.7595 9 45 9ZM45 6C45.4132 6 45.75 6.33675 45.75 6.75C45.75 7.16325 45.4132 7.5 45 7.5C44.5868 7.5 44.25 7.16325 44.25 6.75C44.25 6.33675 44.5868 6 45 6Z" fill="#4B1600"/>
<path d="M28.5 7.5C29.7405 7.5 30.75 6.4905 30.75 5.25C30.75 4.0095 29.7405 3 28.5 3C27.2595 3 26.25 4.0095 26.25 5.25C26.25 6.4905 27.2595 7.5 28.5 7.5ZM28.5 4.5C28.9132 4.5 29.25 4.83675 29.25 5.25C29.25 5.66325 28.9132 6 28.5 6C28.0868 6 27.75 5.66325 27.75 5.25C27.75 4.83675 28.0868 4.5 28.5 4.5Z" fill="#4B1600"/>
<path d="M39 6.75C40.6545 6.75 42 5.4045 42 3.75C42 2.0955 40.6545 0.75 39 0.75C37.3455 0.75 36 2.0955 36 3.75C36 5.4045 37.3455 6.75 39 6.75ZM39 2.25C39.8273 2.25 40.5 2.92275 40.5 3.75C40.5 4.57725 39.8273 5.25 39 5.25C38.1727 5.25 37.5 4.57725 37.5 3.75C37.5 2.92275 38.1727 2.25 39 2.25Z" fill="#4B1600"/>
<path d="M33.75 39.75H35.25V41.25H33.75V39.75Z" fill="#4B1600"/>
<path d="M26.25 23.25H27.75V24.75H26.25V23.25Z" fill="#4B1600"/>
<path d="M23.25 23.25H24.75V24.75H23.25V23.25Z" fill="#4B1600"/>
<path d="M29.25 23.25H30.75V24.75H29.25V23.25Z" fill="#4B1600"/>
<path d="M4.5 27C5.7405 27 6.75 25.9905 6.75 24.75C6.75 23.5095 5.7405 22.5 4.5 22.5C3.2595 22.5 2.25 23.5095 2.25 24.75C2.25 25.9905 3.2595 27 4.5 27ZM4.5 24C4.91325 24 5.25 24.3368 5.25 24.75C5.25 25.1632 4.91325 25.5 4.5 25.5C4.08675 25.5 3.75 25.1632 3.75 24.75C3.75 24.3368 4.08675 24 4.5 24Z" fill="#4B1600"/>
<path d="M9 18C10.6545 18 12 16.6545 12 15C12 13.3455 10.6545 12 9 12C7.3455 12 6 13.3455 6 15C6 16.6545 7.3455 18 9 18ZM9 13.5C9.82725 13.5 10.5 14.1727 10.5 15C10.5 15.8273 9.82725 16.5 9 16.5C8.17275 16.5 7.5 15.8273 7.5 15C7.5 14.1727 8.17275 13.5 9 13.5Z" fill="#4B1600"/>
<path d="M4.5 9.75C5.7405 9.75 6.75 8.7405 6.75 7.5C6.75 6.2595 5.7405 5.25 4.5 5.25C3.2595 5.25 2.25 6.2595 2.25 7.5C2.25 8.7405 3.2595 9.75 4.5 9.75ZM4.5 6.75C4.91325 6.75 5.25 7.08675 5.25 7.5C5.25 7.91325 4.91325 8.25 4.5 8.25C4.08675 8.25 3.75 7.91325 3.75 7.5C3.75 7.08675 4.08675 6.75 4.5 6.75Z" fill="#4B1600"/>
</svg>
