<svg width="48" height="48" viewBox="0 0 48 48" fill="none" xmlns="http://www.w3.org/2000/svg">
<path d="M34.8387 0H34.399C32.0137 0 29.6725 0.648774 27.6279 1.87587L25.5956 3.09523C21.3724 5.62839 16.5368 6.96774 11.6129 6.96774H3.09677C2.24284 6.96774 1.54839 6.27329 1.54839 5.41935H0V20.9032H1.54839C1.54839 20.0493 2.24284 19.3548 3.09677 19.3548H11.6129C16.519 19.3548 21.3368 20.6857 25.5484 23.2018V24.8601C25.5484 25.697 25.3502 26.5355 24.9763 27.2841L24.2803 28.6769C24.0968 29.0439 24 29.4542 24 29.863C24 31.3262 25.1899 32.5161 26.6532 32.5161H27.6294L25.6537 41.9977C25.584 42.3314 25.5484 42.6728 25.5484 43.015C25.5484 45.7634 27.785 48 30.5334 48H34.4981C37.2472 48 39.4839 45.7634 39.4839 43.015V25.4601C44.4519 23.5765 48 18.7819 48 13.1613C48 5.904 42.096 0 34.8387 0ZM7.74194 17.8065H3.09677C2.53316 17.8065 2.00439 17.9574 1.54839 18.2222V8.10039C2.00439 8.36516 2.53316 8.51613 3.09677 8.51613H7.74194V17.8065ZM26.6532 30.9677C26.0439 30.9677 25.5484 30.4723 25.5484 29.863C25.5484 29.6919 25.5886 29.5215 25.6645 29.3683L26.3605 27.9763C26.8421 27.0139 27.096 25.9355 27.096 24.8601V24.1285L27.6271 24.4467C28.1179 24.7409 28.6258 25.0003 29.1476 25.2271L27.9515 30.9677H26.6532ZM37.9355 43.015C37.9355 44.9102 36.3941 46.4516 34.4988 46.4516H30.5342C28.6382 46.4516 27.0968 44.9102 27.0968 43.015C27.0968 42.7796 27.1208 42.5443 27.1688 42.3143L30.6178 25.7613C31.8395 26.1275 33.1115 26.3226 34.399 26.3226H34.8387C35.9071 26.3226 36.9406 26.1809 37.9355 25.9394V43.015ZM34.8387 24.7742H34.399C32.2947 24.7742 30.2284 24.2021 28.4245 23.119L26.3923 21.8996C22.1505 19.3548 17.3234 17.9659 12.3871 17.832V16.2581H10.8387V17.8065H9.29032V8.51613H10.8387V14.7097H12.3871V8.48981C17.3234 8.35664 22.1505 6.96697 26.3923 4.42219L28.4245 3.20284C30.2284 2.12052 32.2947 1.54839 34.399 1.54839H34.8387C41.2421 1.54839 46.4516 6.75794 46.4516 13.1613C46.4516 19.5646 41.2421 24.7742 34.8387 24.7742Z" fill="#4B1600"/>
<path d="M34.0643 32.5161C32.7838 32.5161 31.7417 33.5582 31.7417 34.8387V41.0322C31.7417 42.3128 32.7838 43.3548 34.0643 43.3548C35.3448 43.3548 36.3869 42.3128 36.3869 41.0322V34.8387C36.3869 33.5582 35.3448 32.5161 34.0643 32.5161ZM34.8385 41.0322C34.8385 41.4596 34.4916 41.8064 34.0643 41.8064C33.6369 41.8064 33.2901 41.4596 33.2901 41.0322V40.258H34.8385V41.0322ZM34.8385 38.7097H33.2901V37.1613H34.8385V38.7097ZM34.8385 35.6129H33.2901V34.8387C33.2901 34.4113 33.6369 34.0645 34.0643 34.0645C34.4916 34.0645 34.8385 34.4113 34.8385 34.8387V35.6129Z" fill="#4B1600"/>
<path d="M34.8389 4.64517C30.1434 4.64517 26.3228 8.46582 26.3228 13.1613C26.3228 17.8568 30.1434 21.6774 34.8389 21.6774C39.5344 21.6774 43.355 17.8568 43.355 13.1613C43.355 8.46582 39.5344 4.64517 34.8389 4.64517ZM39.2572 14.1623L38.1625 15.257L40.3349 17.4294C39.9772 17.8878 39.5653 18.2996 39.107 18.6573L36.9346 16.4849L35.8399 17.5796L37.746 19.4857C36.8595 19.8945 35.8771 20.129 34.8389 20.129C30.9966 20.129 27.8711 17.0028 27.8711 13.1613C27.8711 9.31975 30.9966 6.19356 34.8389 6.19356C38.6812 6.19356 41.8066 9.31975 41.8066 13.1613C41.8066 14.1995 41.572 15.1819 41.1633 16.0684L39.2572 14.1623Z" fill="#4B1600"/>
<path d="M34.8387 9.29031C32.7043 9.29031 30.9678 11.0268 30.9678 13.1613C30.9678 15.2957 32.7043 17.0322 34.8387 17.0322V15.4839C33.5582 15.4839 32.5162 14.4418 32.5162 13.1613C32.5162 11.8808 33.5582 10.8387 34.8387 10.8387C36.1193 10.8387 37.1613 11.8808 37.1613 13.1613H38.7097C38.7097 11.0268 36.9732 9.29031 34.8387 9.29031Z" fill="#4B1600"/>
</svg>
