<svg width="48" height="48" viewBox="0 0 48 48" fill="none" xmlns="http://www.w3.org/2000/svg">
<path d="M19.5 20.25C19.9142 20.25 20.25 19.9142 20.25 19.5C20.25 19.0858 19.9142 18.75 19.5 18.75C19.0858 18.75 18.75 19.0858 18.75 19.5C18.75 19.9142 19.0858 20.25 19.5 20.25Z" fill="#4B1600"/>
<path d="M25.5 20.25C25.9142 20.25 26.25 19.9142 26.25 19.5C26.25 19.0858 25.9142 18.75 25.5 18.75C25.0858 18.75 24.75 19.0858 24.75 19.5C24.75 19.9142 25.0858 20.25 25.5 20.25Z" fill="#4B1600"/>
<path d="M26.25 23.25H24.75C24.75 24.0773 24.0773 24.75 23.25 24.75H20.25V26.25H23.25C24.9045 26.25 26.25 24.9045 26.25 23.25Z" fill="#4B1600"/>
<path d="M23.0303 16.7197C22.2045 15.894 21.75 14.7967 21.75 13.6282V12.75H20.25V13.6282C20.25 15.1965 20.8605 16.671 21.9697 17.7803L23.0303 16.7197Z" fill="#4B1600"/>
<path d="M42.8783 23.25H42.768C42.0975 23.25 41.445 23.4863 40.9298 23.916L37.347 26.901C37.0253 27.1695 36.7852 27.5212 36.6532 27.9172L34.3237 34.9065C33.3885 33.5452 32.2163 32.352 30.8385 31.4077C31.692 30.72 32.25 29.679 32.25 28.5V23.9805C33.0788 23.3528 33.6307 22.395 33.7192 21.3C34.6972 21.5955 35.7113 21.75 36.75 21.75C42.54 21.75 47.25 17.04 47.25 11.25C47.25 5.46 42.54 0.75 36.75 0.75C32.3797 0.75 28.4633 3.49425 26.9318 7.52325C25.8233 7.02975 24.6 6.75 23.3107 6.75H21.6893C18.546 6.75 15.7815 8.385 14.1877 10.845C14.0092 10.215 13.4363 9.75 12.75 9.75H11.2185C11.2365 9.64875 11.25 9.546 11.25 9.4395V8.25H12.75C13.5773 8.25 14.25 7.57725 14.25 6.75V2.25C14.25 1.42275 13.5773 0.75 12.75 0.75H2.25C1.42275 0.75 0.75 1.42275 0.75 2.25V6.75C0.75 7.57725 1.42275 8.25 2.25 8.25H5.6895L7.1895 9.75H2.25C1.42275 9.75 0.75 10.4227 0.75 11.25V15.75C0.75 16.5773 1.42275 17.25 2.25 17.25H5.6895L8.15925 19.7197C8.50125 20.0617 8.95575 20.25 9.4395 20.25C10.4378 20.25 11.25 19.4378 11.25 18.4395V17.25H12.75C12.7987 17.25 12.8453 17.2403 12.8925 17.2358C12.9045 17.304 12.9098 17.3745 12.9233 17.4427L13.0027 17.8387C11.9535 18.5032 11.25 19.668 11.25 21C11.25 23.0677 12.9323 24.75 15 24.75H15.81C16.0822 26.6385 17.3588 28.2022 19.0823 28.8817L18.9127 29.3903C13.4325 30.9398 9.3825 35.7075 8.7825 41.3977L8.16675 47.25H30.75V44.5605L31.8547 45.6653C32.8762 46.6875 34.2353 47.25 35.6813 47.25C38.3738 47.25 40.6792 45.2377 41.043 42.57L42.7095 30.3518L44.9093 28.152C45.4515 27.6097 45.75 26.8882 45.75 26.1217C45.75 24.5377 44.4623 23.25 42.8783 23.25V23.25ZM2.25 6.75V2.25H12.75L12.7507 6.75H9.75V9.4395C9.75 9.693 9.399 9.83775 9.21975 9.65925L6.3105 6.75H2.25ZM30.75 28.5C30.75 29.7405 29.7405 30.75 28.5 30.75H27.6217C27.7042 30.5153 27.75 30.2633 27.75 30C27.75 29.328 27.4478 28.7302 26.979 28.3177C28.1535 27.5047 28.9777 26.2253 29.19 24.75H30C30.2565 24.75 30.5077 24.7237 30.75 24.6742V28.5ZM19.4272 30.8018L21.1163 31.6462L19.2795 33.1155L18.9188 30.9502C19.0868 30.897 19.2562 30.849 19.4272 30.8018V30.8018ZM25.5 29.25C25.9132 29.25 26.25 29.5868 26.25 30C26.25 30.4132 25.9132 30.75 25.5 30.75H24C23.5868 30.75 23.25 30.4132 23.25 30C23.25 29.5868 23.5868 29.25 24 29.25H25.5ZM22.3358 35.25H22.6642L25.2893 45.75H19.7108L22.3358 35.25ZM22.7092 33.75H22.2908L21.9952 32.8643L22.5 32.46L23.0048 32.8635L22.7092 33.75ZM25.8645 32.25L25.7205 33.1155L24.6383 32.25H25.8645ZM30 23.25H29.25V18.9938C29.25 18.9113 29.2372 18.8317 29.2305 18.75H30C31.2405 18.75 32.25 19.7595 32.25 21C32.25 22.2405 31.2405 23.25 30 23.25ZM33 7.95375C33 6.46275 34.2127 5.25 35.7037 5.25H36V7.0365L34.2435 7.91475C33.7763 8.14875 33.4185 8.5275 33.2092 8.9805C33.0757 8.6565 33 8.31 33 7.95375V7.95375ZM37.5 15.066C38.0925 15.1522 38.6543 15.3383 39.171 15.609L37.5 18.3383V15.066ZM36 18.3383L34.3252 15.6022C34.8442 15.3315 35.406 15.1402 36 15.0555V18.3383ZM40.3875 16.4948C41.016 17.1015 41.4908 17.8605 41.7548 18.7252C40.6958 19.4362 39.4747 19.9192 38.1637 20.1277L40.3875 16.4948ZM40.2908 8.9805C40.0815 8.5275 39.7237 8.148 39.2565 7.91475L37.5 7.0365V5.25H37.7963C39.2873 5.25 40.5 6.46275 40.5 7.95375C40.5 8.31 40.4243 8.6565 40.2908 8.9805V8.9805ZM36 13.5C35.1727 13.5 34.5 12.8273 34.5 12V9.927C34.5 9.64125 34.659 9.384 34.9148 9.2565L36.75 8.3385L38.5852 9.2565C38.841 9.384 39 9.64125 39 9.927V12C39 12.8273 38.3273 13.5 37.5 13.5H36ZM33.105 16.4827L35.337 20.1293C34.7018 20.0295 34.0822 19.8623 33.4815 19.6275C33.1987 18.9135 32.709 18.3045 32.079 17.883C32.3467 17.3535 32.6917 16.8825 33.105 16.4827V16.4827ZM36.75 2.25C41.7128 2.25 45.75 6.28725 45.75 11.25C45.75 13.7835 44.6933 16.0717 43.0028 17.709C42.3555 16.1212 41.124 14.8515 39.6 14.1368C40.1542 13.5923 40.5 12.837 40.5 12V11.4773L41.2942 10.2863C41.7555 9.594 42 8.787 42 7.95375C42 5.63625 40.1138 3.75 37.7963 3.75H35.7045C33.3862 3.75 31.5 5.63625 31.5 7.95375C31.5 8.787 31.7445 9.59325 32.2058 10.2855L33 11.4773V12C33 12.834 33.3435 13.5885 33.8955 14.133C33.288 14.4165 32.7248 14.787 32.2275 15.2363C32.0805 12.3278 30.5475 9.78075 28.2667 8.25525C29.5245 4.69425 32.9332 2.25 36.75 2.25V2.25ZM12.7507 15.75H9.75V18.4395C9.75 18.693 9.399 18.8377 9.21975 18.6592L6.3105 15.75H2.25V11.25H12.75L12.7507 15.6683C12.7507 15.6758 12.75 15.6825 12.75 15.6893C12.75 15.6968 12.7507 15.7042 12.7507 15.711V15.75ZM12.75 21C12.75 19.7595 13.7595 18.75 15 18.75H15.75V23.25H15C13.7595 23.25 12.75 22.2405 12.75 21ZM17.25 24V17.25C17.25 16.4227 17.9227 15.75 18.75 15.75V14.25C17.0955 14.25 15.75 15.5955 15.75 17.25H15C14.8035 17.25 14.6145 17.2785 14.4263 17.3077L14.394 17.1473C14.2987 16.6695 14.25 16.1783 14.25 15.6893C14.25 11.5875 17.5875 8.25 21.6893 8.25H23.3107C27.4125 8.25 30.75 11.5875 30.75 15.6893C30.75 16.1783 30.7012 16.6695 30.606 17.148L30.5737 17.3085C30.3855 17.2785 30.1965 17.25 30 17.25H28.7197C28.338 16.6725 27.774 16.218 27.084 15.987C25.6875 15.522 24.75 14.2207 24.75 12.75H23.25C23.25 14.8672 24.6 16.74 26.6093 17.4105C27.2918 17.6378 27.75 18.2738 27.75 18.9938V23.25V24C27.75 26.0677 26.0677 27.75 24 27.75H21C18.9323 27.75 17.25 26.0677 17.25 24V24ZM21 29.25H21.888C21.804 29.4855 21.75 29.736 21.75 30C21.75 30.1035 21.7673 30.2018 21.7808 30.3015L20.4172 29.6198L20.5485 29.2268C20.6978 29.2403 20.8478 29.25 21 29.25ZM10.275 41.5545C10.7407 37.131 13.545 33.3323 17.4915 31.509L18.2205 35.8845L20.7473 33.8633L20.97 34.53L18.1642 45.75H15.75V38.25H14.25V45.75H9.83325L10.275 41.5545ZM39.5565 42.3667C39.294 44.2957 37.6275 45.75 35.6813 45.75C34.6365 45.75 33.654 45.3435 32.9153 44.6047L30.75 42.4395V38.25H29.25V45.75H26.8357L24.0308 34.53L24.2535 33.8633L26.7803 35.8845L27.3855 32.25H28.5C28.752 32.25 28.998 32.223 29.2365 32.1758C32.0955 33.837 34.1588 36.6097 34.9043 39.8392L35.2688 41.4187L36.7305 41.082L36.366 39.5025C36.1335 38.4967 35.7795 37.5337 35.3333 36.621L37.9373 28.8082L41.1832 30.4313L39.5565 42.3667ZM43.848 27.0915L41.8515 29.088L38.8605 27.5925L41.8898 25.0687C42.1365 24.8625 42.4477 24.75 42.768 24.75H42.8783C43.635 24.75 44.25 25.365 44.25 26.1217C44.25 26.4877 44.1075 26.832 43.848 27.0915Z" fill="#4B1600"/>
<path d="M3.75 3.75H5.25V5.25H3.75V3.75Z" fill="#4B1600"/>
<path d="M6.75 3.75H8.25V5.25H6.75V3.75Z" fill="#4B1600"/>
<path d="M9.75 3.75H11.25V5.25H9.75V3.75Z" fill="#4B1600"/>
<path d="M3.75 12.75H5.25V14.25H3.75V12.75Z" fill="#4B1600"/>
<path d="M6.75 12.75H8.25V14.25H6.75V12.75Z" fill="#4B1600"/>
<path d="M9.75 12.75H11.25V14.25H9.75V12.75Z" fill="#4B1600"/>
</svg>
