<svg width="18" height="18" viewBox="0 0 18 18" fill="none" xmlns="http://www.w3.org/2000/svg">
<path fill-rule="evenodd" clip-rule="evenodd" d="M17.025 0H0.975C0.439891 0.0080481 0.0080481 0.439891 0 0.975V17.025C0.0080481 17.5601 0.439891 17.992 0.975 18H9.6V11.025H7.275V8.325H9.6V6.3C9.6 3.975 11.025 2.7 13.125 2.7C14.1 2.7 15 2.775 15.225 2.775V5.25H13.8C12.675 5.25 12.45 5.775 12.45 6.6V8.325H15.15L14.775 11.025H12.45V18H17.025C17.5601 17.992 17.992 17.5601 18 17.025V0.975C17.992 0.439891 17.5601 0.0080481 17.025 0Z" fill="white"/>
</svg>
