<svg width="24" height="24" viewBox="0 0 24 24" fill="none" xmlns="http://www.w3.org/2000/svg">
<path fill-rule="evenodd" clip-rule="evenodd" d="M20.025 3H3.975C3.43989 3.00805 3.00805 3.43989 3 3.975V20.025C3.00805 20.5601 3.43989 20.992 3.975 21H12.6V14.025H10.275V11.325H12.6V9.3C12.6 6.975 14.025 5.7 16.125 5.7C17.1 5.7 18 5.775 18.225 5.775V8.25H16.8C15.675 8.25 15.45 8.775 15.45 9.6V11.325H18.15L17.775 14.025H15.45V21H20.025C20.5601 20.992 20.992 20.5601 21 20.025V3.975C20.992 3.43989 20.5601 3.00805 20.025 3Z" fill="white"/>
<mask id="mask0" mask-type="alpha" maskUnits="userSpaceOnUse" x="3" y="3" width="18" height="18">
<path fill-rule="evenodd" clip-rule="evenodd" d="M20.025 3H3.975C3.43989 3.00805 3.00805 3.43989 3 3.975V20.025C3.00805 20.5601 3.43989 20.992 3.975 21H12.6V14.025H10.275V11.325H12.6V9.3C12.6 6.975 14.025 5.7 16.125 5.7C17.1 5.7 18 5.775 18.225 5.775V8.25H16.8C15.675 8.25 15.45 8.775 15.45 9.6V11.325H18.15L17.775 14.025H15.45V21H20.025C20.5601 20.992 20.992 20.5601 21 20.025V3.975C20.992 3.43989 20.5601 3.00805 20.025 3Z" fill="white"/>
</mask>
<g mask="url(#mask0)">
</g>
</svg>
