<svg width="48" height="48" viewBox="0 0 48 48" fill="none" xmlns="http://www.w3.org/2000/svg">
<path d="M11.6129 0C5.20955 0 0 5.20955 0 11.6129C0 14.2034 0.119226 16.8255 0.353806 19.4083L0.426581 20.215C0.65729 22.752 0.774194 25.3277 0.774194 27.871V37.1613C0.774194 43.1381 5.63613 48 11.6129 48C17.5897 48 22.4516 43.1381 22.4516 37.1613V27.871C22.4516 25.3277 22.5685 22.752 22.7992 20.2142L22.872 19.409C23.1066 16.8255 23.2258 14.2034 23.2258 11.6129C23.2258 5.20955 18.0163 0 11.6129 0ZM11.6129 1.54839C14.8258 1.54839 17.6857 3.06735 19.529 5.41935H3.69677C5.54013 3.06735 8.4 1.54839 11.6129 1.54839ZM20.9032 27.871V37.1613C20.9032 42.2841 16.7357 46.4516 11.6129 46.4516C6.49006 46.4516 2.32258 42.2841 2.32258 37.1613V27.871C2.32258 26.3288 2.27535 24.7757 2.19174 23.2258H5.29006C5.37058 24.7781 5.41935 26.3365 5.41935 27.871V37.1613C5.41935 40.5763 8.19794 43.3548 11.6129 43.3548C15.0279 43.3548 17.8065 40.5763 17.8065 37.1613V27.871C17.8065 27.3608 17.8111 26.849 17.8204 26.3365L16.272 26.3094C16.2627 26.8305 16.2581 27.3515 16.2581 27.871V37.1613C16.2581 39.7231 14.1747 41.8064 11.6129 41.8064C9.0511 41.8064 6.96774 39.7231 6.96774 37.1613V27.871C6.96774 26.3365 6.91897 24.7788 6.83923 23.2258H16.3843C16.3579 23.7329 16.3301 24.24 16.3123 24.7471L17.8591 24.8013C17.8777 24.2764 17.9071 23.7507 17.9342 23.2258H21.0341C20.9505 24.7757 20.9032 26.3288 20.9032 27.871ZM21.3298 19.2697L21.257 20.0748C21.209 20.6075 21.1688 21.1425 21.1301 21.6774H2.09574C2.05703 21.1425 2.01677 20.6075 1.96877 20.0756L1.896 19.2689C1.66529 16.7319 1.54839 14.1561 1.54839 11.6129C1.54839 9.93677 1.96568 8.35897 2.69342 6.96774H20.5324C21.2601 8.35897 21.6774 9.93677 21.6774 11.6129C21.6774 14.1561 21.5605 16.7319 21.3298 19.2697Z" fill="#4B1600"/>
<path d="M16.3361 12.7533C16.2656 12.0449 15.9544 11.3876 15.445 10.879C14.9348 10.368 14.2775 10.0568 13.5691 9.98712C12.4666 9.08441 10.758 9.08441 9.65555 9.98712C8.94717 10.0576 8.28988 10.368 7.78123 10.8774C7.27026 11.3876 6.95904 12.0449 6.88936 12.7533C6.438 13.3045 6.19336 13.9882 6.19336 14.7097C6.19336 15.4313 6.438 16.1149 6.88936 16.6661C6.95981 17.3745 7.27026 18.0318 7.77968 18.5404C8.28988 19.0514 8.94717 19.3626 9.65555 19.4323C10.2076 19.8844 10.8912 20.1291 11.6127 20.1291C12.3343 20.1291 13.0179 19.8844 13.5691 19.4331C14.2775 19.3626 14.9348 19.0522 15.4434 18.5427C15.9544 18.0325 16.2656 17.3753 16.3353 16.6669C16.7874 16.1149 17.0321 15.4313 17.0321 14.7097C17.0321 13.9882 16.7874 13.3045 16.3361 12.7533ZM15.03 15.8044L14.8032 16.0313V16.3518C14.8032 16.7652 14.6421 17.1538 14.3487 17.4473C14.0568 17.7391 13.6682 17.9002 13.2548 17.9002H12.9343L12.7074 18.127C12.1221 18.7123 11.1033 18.7123 10.518 18.127L10.2912 17.9002H9.97065C9.55723 17.9002 9.16858 17.7391 8.87517 17.4457C8.58329 17.1538 8.42226 16.7652 8.42226 16.3518V16.0313L8.19542 15.8044C7.90278 15.5118 7.74175 15.1231 7.74175 14.7097C7.74175 14.2963 7.90278 13.9076 8.19542 13.615L8.42226 13.3882V13.0676C8.42226 12.6542 8.58329 12.2656 8.87671 11.9722C9.16858 11.6803 9.55723 11.5193 9.97065 11.5193H10.2912L10.518 11.2924C11.1033 10.7071 12.1221 10.7071 12.7074 11.2924L12.9343 11.5193H13.2548C13.6682 11.5193 14.0568 11.6803 14.3503 11.9737C14.6421 12.2656 14.8032 12.6542 14.8032 13.0676V13.3882L15.03 13.615C15.3226 13.9076 15.4837 14.2963 15.4837 14.7097C15.4837 15.1231 15.3226 15.5118 15.03 15.8044Z" fill="#4B1600"/>
<path d="M11.6131 12.3871C10.3326 12.3871 9.29053 13.4291 9.29053 14.7097C9.29053 15.9902 10.3326 17.0322 11.6131 17.0322C12.8936 17.0322 13.9357 15.9902 13.9357 14.7097C13.9357 13.4291 12.8936 12.3871 11.6131 12.3871ZM11.6131 15.4839C11.1858 15.4839 10.8389 15.137 10.8389 14.7097C10.8389 14.2823 11.1858 13.9355 11.6131 13.9355C12.0405 13.9355 12.3873 14.2823 12.3873 14.7097C12.3873 15.137 12.0405 15.4839 11.6131 15.4839Z" fill="#4B1600"/>
<path d="M47.6464 28.5917L47.5736 27.785C47.3429 25.248 47.226 22.6723 47.226 20.129V10.8387C47.226 4.86194 42.3641 0 36.3873 0C30.4105 0 25.5486 4.86194 25.5486 10.8387V20.129C25.5486 22.6723 25.4317 25.248 25.201 27.7858L25.1282 28.591C24.8936 31.1744 24.7744 33.7966 24.7744 36.3871C24.7744 42.7905 29.984 48 36.3873 48C42.7907 48 48.0002 42.7905 48.0002 36.3871C48.0002 33.7966 47.881 31.1744 47.6464 28.5917ZM27.097 20.129V10.8387C27.097 5.71587 31.2645 1.54839 36.3873 1.54839C41.5102 1.54839 45.6776 5.71587 45.6776 10.8387V20.129C45.6776 21.6712 45.7249 23.2243 45.8085 24.7742H42.7086C42.6815 24.2493 42.6521 23.7236 42.6335 23.1987L41.0867 23.2529C41.1045 23.76 41.1331 24.2671 41.1587 24.7742H31.6136C31.6934 23.2212 31.7422 21.6635 31.7422 20.129V10.8387C31.7422 8.2769 33.8255 6.19355 36.3873 6.19355C38.9491 6.19355 41.0325 8.2769 41.0325 10.8387V20.129C41.0325 20.6485 41.0371 21.1695 41.0464 21.6914L42.5948 21.6643C42.5855 21.151 42.5809 20.6392 42.5809 20.129V10.8387C42.5809 7.42374 39.8023 4.64516 36.3873 4.64516C32.9724 4.64516 30.1938 7.42374 30.1938 10.8387V20.129C30.1938 21.6635 30.145 23.2219 30.0645 24.7742H26.9662C27.0498 23.2243 27.097 21.6712 27.097 20.129ZM36.3873 46.4516C33.1744 46.4516 30.3145 44.9326 28.4712 42.5806H44.3042C42.4601 44.9326 39.6002 46.4516 36.3873 46.4516ZM45.3068 41.0323H27.4678C26.7401 39.641 26.3228 38.0632 26.3228 36.3871C26.3228 33.8439 26.4397 31.2681 26.6704 28.7303L26.7432 27.9252C26.7912 27.3925 26.8322 26.8575 26.8702 26.3226H45.9045C45.9432 26.8575 45.9834 27.3925 46.0314 27.9244L46.1042 28.7311C46.3349 31.2681 46.4518 33.8439 46.4518 36.3871C46.4518 38.0632 46.0345 39.641 45.3068 41.0323Z" fill="#4B1600"/>
<path d="M41.1105 31.3339C41.04 30.6256 40.7288 29.9683 40.2194 29.4596C39.7092 28.9486 39.0519 28.6374 38.3435 28.5677C37.2411 27.665 35.5324 27.665 34.43 28.5677C33.7216 28.6382 33.0643 28.9487 32.5556 29.4581C32.0447 29.9683 31.7334 30.6256 31.6638 31.3339C31.2124 31.8852 30.9678 32.5688 30.9678 33.2903C30.9678 34.0119 31.2124 34.6955 31.6638 35.2467C31.7342 35.9551 32.0447 36.6124 32.5549 37.1226C33.0643 37.632 33.7216 37.9432 34.43 38.0129C34.982 38.465 35.6656 38.7097 36.3871 38.7097C37.1087 38.7097 37.7923 38.465 38.3435 38.0137C39.0519 37.9432 39.7092 37.6328 40.2186 37.1234C40.7288 36.6132 41.04 35.9559 41.1097 35.2475C41.5618 34.6955 41.8065 34.0119 41.8065 33.2903C41.8065 32.5688 41.5618 31.8852 41.1105 31.3339ZM39.8044 34.385L39.5776 34.6119V34.9324C39.5776 35.3458 39.4165 35.7352 39.1239 36.0279C38.832 36.3197 38.4426 36.4808 38.0292 36.4808H37.7087L37.4818 36.7076C36.8965 37.2929 35.8777 37.2929 35.2924 36.7076L35.0656 36.4808H34.7451C34.3316 36.4808 33.9422 36.3197 33.6504 36.0279C33.3577 35.7352 33.1967 35.3458 33.1967 34.9324V34.6119L32.9698 34.385C32.6772 34.0924 32.5162 33.7037 32.5162 33.2903C32.5162 32.8769 32.6772 32.4883 32.9698 32.1956L33.1967 31.9688V31.6483C33.1967 31.2348 33.3577 30.8462 33.6511 30.5528C33.943 30.2609 34.3316 30.0999 34.7451 30.0999H35.0656L35.2924 29.873C35.8777 29.2877 36.8965 29.2877 37.4818 29.873L37.7087 30.0999H38.0292C38.4426 30.0999 38.8313 30.2609 39.1247 30.5543C39.4165 30.8462 39.5776 31.2348 39.5776 31.6483V31.9688L39.8044 32.1956C40.0971 32.4883 40.2581 32.8769 40.2581 33.2903C40.2581 33.7037 40.0971 34.0924 39.8044 34.385Z" fill="#4B1600"/>
<path d="M36.387 30.9677C35.1065 30.9677 34.0645 32.0098 34.0645 33.2903C34.0645 34.5708 35.1065 35.6129 36.387 35.6129C37.6676 35.6129 38.7096 34.5708 38.7096 33.2903C38.7096 32.0098 37.6676 30.9677 36.387 30.9677ZM36.387 34.0645C35.9597 34.0645 35.6128 33.7177 35.6128 33.2903C35.6128 32.863 35.9597 32.5161 36.387 32.5161C36.8144 32.5161 37.1612 32.863 37.1612 33.2903C37.1612 33.7177 36.8144 34.0645 36.387 34.0645Z" fill="#4B1600"/>
</svg>
