<svg width="48" height="48" viewBox="0 0 48 48" fill="none" xmlns="http://www.w3.org/2000/svg">
<path d="M45 42.75H44.862C44.946 42.5145 45 42.264 45 42V37.5C45 36.2595 43.9905 35.25 42.75 35.25H40.5V34.5C40.5 33.2595 39.4905 32.25 38.25 32.25H35.25V23.1848C35.499 23.2215 35.7487 23.25 36 23.25C36.255 23.25 36.504 23.2253 36.75 23.19V25.5C36.75 26.7405 37.7595 27.75 39 27.75C40.2405 27.75 41.25 26.7405 41.25 25.5V18C41.25 15.5895 39.6285 13.5577 37.3943 12.9465L38.25 11.4495V9.75H36.612C36.696 9.5145 36.75 9.264 36.75 9V4.5C36.75 3.2595 35.7405 2.25 34.5 2.25H31.5C30.3555 2.25 29.4187 3.11175 29.2785 4.218L27.3105 2.25C26.3438 1.28325 24.6563 1.28325 23.6895 2.25L22.7888 3.15075C22.3778 2.607 21.7327 2.25 21 2.25H16.5C15.2595 2.25 14.25 3.2595 14.25 4.5V4.9395L13.0605 3.75C12.9652 3.65475 12.858 3.576 12.75 3.4995V3C12.75 1.7595 11.7405 0.75 10.5 0.75H6C4.7595 0.75 3.75 1.7595 3.75 3V6C3.75 7.2405 4.7595 8.25 6 8.25C6 8.79825 6.17775 9.31575 6.495 9.75H3.75V11.4495L4.60575 12.9473C2.3715 13.5578 0.75 15.5895 0.75 18V25.5C0.75 26.7405 1.7595 27.75 3 27.75C4.2405 27.75 5.25 26.7405 5.25 25.5V23.19C5.496 23.2253 5.745 23.25 6 23.25C6.25125 23.25 6.501 23.2215 6.75 23.1848V37.5C6.75 40.3942 9.10575 42.75 12 42.75H17.388C17.6985 43.6208 18.5235 44.25 19.5 44.25H26.25C26.664 44.25 27 44.586 27 45C27 46.2405 28.0095 47.25 29.25 47.25H45C46.2405 47.25 47.25 46.2405 47.25 45C47.25 43.7595 46.2405 42.75 45 42.75V42.75ZM43.5 37.5V42C43.5 42.414 43.164 42.75 42.75 42.75H40.5H38.25C37.836 42.75 37.5 42.414 37.5 42V37.5C37.5 37.086 37.836 36.75 38.25 36.75H42.75C43.164 36.75 43.5 37.086 43.5 37.5ZM39 34.5V35.25H38.25C37.0095 35.25 36 36.2595 36 37.5V39.75H34.5H33.75C33.336 39.75 33 39.414 33 39V34.5C33 34.086 33.336 33.75 33.75 33.75H38.25C38.664 33.75 39 34.086 39 34.5ZM39.75 25.5C39.75 25.914 39.414 26.25 39 26.25C38.586 26.25 38.25 25.914 38.25 25.5V22.7363C38.8118 22.4685 39.3195 22.107 39.75 21.6667V25.5ZM39.75 18C39.75 20.0677 38.0677 21.75 36 21.75C35.7495 21.75 35.499 21.7155 35.25 21.663V16.6987L36.6083 14.322C38.3985 14.6153 39.75 16.1438 39.75 18ZM34.065 15.75H28.5V11.25H31.5H34.5H36.6367L34.065 15.75ZM27 24V31.5C27 32.7405 25.9905 33.75 24.75 33.75H22.5885L23.3385 32.25L22.5885 30.75L23.3385 29.25L22.5885 27.75L23.3385 26.25L22.5 24.573V24C22.5 23.586 22.836 23.25 23.25 23.25H24.75H26.25C26.664 23.25 27 23.586 27 24ZM24 21V8.25C24 7.704 23.8537 7.19175 23.5972 6.75H25.5C26.3273 6.75 27 7.42275 27 8.25V21C27 21.414 26.664 21.75 26.25 21.75H24.75C24.336 21.75 24 21.414 24 21ZM29.2785 9.282C29.2987 9.444 29.3347 9.6 29.388 9.75H28.8105L29.2785 9.282ZM22.5 8.25V9.75H19.5V8.25C19.5 7.42275 20.1727 6.75 21 6.75C21.8273 6.75 22.5 7.42275 22.5 8.25ZM30.75 4.5C30.75 4.086 31.086 3.75 31.5 3.75H34.5C34.914 3.75 35.25 4.086 35.25 4.5V9C35.25 9.414 34.914 9.75 34.5 9.75H31.5C31.086 9.75 30.75 9.414 30.75 9V4.5ZM24.75 3.3105C25.1513 2.91075 25.8487 2.91075 26.25 3.3105L28.9395 6C29.1397 6.201 29.25 6.4665 29.25 6.75C29.25 7.0335 29.1397 7.299 28.9395 7.5L28.4715 7.968C28.3268 6.447 27.0577 5.25 25.5 5.25H23.25V4.8105L24.75 3.3105ZM15.75 4.5C15.75 4.086 16.086 3.75 16.5 3.75H21C21.414 3.75 21.75 4.086 21.75 4.5V5.25H21C19.3455 5.25 18 6.5955 18 8.25V9.75H16.005C16.3215 9.31575 16.5 8.79825 16.5 8.25C16.5 7.566 16.2337 6.9225 15.75 6.4395V4.5ZM6 6.75C5.586 6.75 5.25 6.414 5.25 6V3C5.25 2.586 5.586 2.25 6 2.25H10.5C10.914 2.25 11.25 2.586 11.25 3V3.02475C10.5863 3.02475 9.9225 3.26625 9.4395 3.75L6.75 6.4395C6.654 6.5355 6.573 6.642 6.495 6.75H6ZM7.8105 9C7.61025 8.799 7.5 8.5335 7.5 8.25C7.5 7.9665 7.61025 7.701 7.8105 7.5L10.5 4.8105C10.9013 4.41075 11.5987 4.41075 12 4.8105L14.6895 7.5C14.8898 7.701 15 7.9665 15 8.25C15 8.5335 14.8898 8.799 14.6895 9L13.9395 9.75H8.5605L7.8105 9ZM22.5 11.25V15.75H7.935L5.36325 11.25H22.5ZM3.75 25.5C3.75 25.914 3.414 26.25 3 26.25C2.586 26.25 2.25 25.914 2.25 25.5V21.6667C2.6805 22.107 3.18825 22.4678 3.75 22.7363V25.5ZM6 21.75C3.93225 21.75 2.25 20.0677 2.25 18C2.25 16.1438 3.6015 14.6153 5.39175 14.322L6.75 16.6995V21.6638C6.501 21.7155 6.2505 21.75 6 21.75V21.75ZM8.25 37.5V17.25H22.5V21C22.5 21.2963 22.5607 21.5775 22.665 21.837C21.7087 22.0957 21 22.9627 21 24V24.927L21.6615 26.25L20.9115 27.75L21.6615 29.25L20.9115 30.75L21.6615 32.25L21 33.573V35.25H24.75C26.8177 35.25 28.5 33.5677 28.5 31.5V24C28.5 23.4217 28.2743 22.899 27.915 22.5C28.275 22.101 28.5 21.5783 28.5 21V17.25H33.75V32.25C32.5095 32.25 31.5 33.2595 31.5 34.5V39C31.5 39.264 31.554 39.5145 31.638 39.75H19.5C18.5235 39.75 17.6985 40.3792 17.388 41.25H12C9.93225 41.25 8.25 39.5677 8.25 37.5V37.5ZM45 45.75H29.25C28.836 45.75 28.5 45.414 28.5 45C28.5 43.7595 27.4905 42.75 26.25 42.75H19.5C19.086 42.75 18.75 42.414 18.75 42C18.75 41.586 19.086 41.25 19.5 41.25H33.75H34.5H36V42C36 43.2405 37.0095 44.25 38.25 44.25H40.5H42.75H45C45.414 44.25 45.75 44.586 45.75 45C45.75 45.414 45.414 45.75 45 45.75Z" fill="#4B1600"/>
<path d="M12 38.25C11.586 38.25 11.25 37.914 11.25 37.5V30H9.75V37.5C9.75 38.7405 10.7595 39.75 12 39.75H15.75V38.25H12Z" fill="#4B1600"/>
<path d="M9.75 27H11.25V28.5H9.75V27Z" fill="#4B1600"/>
</svg>
