<svg width="48" height="48" viewBox="0 0 48 48" fill="none" xmlns="http://www.w3.org/2000/svg">
<path d="M15.3407 32.7217C14.9132 33.0007 14.4865 33.3015 14.0732 33.6157L14.9815 34.8097C15.3662 34.5172 15.763 34.2375 16.1605 33.978L15.3407 32.7217Z" fill="#4B1600"/>
<path d="M8.40381 40.1325L9.71106 40.8675C10.8173 38.9018 12.2363 37.1528 13.9298 35.6693L12.9413 34.5413C11.1196 36.1373 9.59331 38.0183 8.40381 40.1325Z" fill="#4B1600"/>
<path d="M26.5802 30C21.5634 30 17.2232 33.2288 15.7817 38.034L15.4922 39H34.1514L36.0992 36.078L33.4944 30H26.5802ZM23.3882 37.5C23.6987 36.6293 24.5237 36 25.5002 36H27.0002C27.9767 36 28.8017 36.6293 29.1122 37.5H23.3882ZM33.3489 37.5H30.6744C30.3257 35.7908 28.8114 34.5 27.0002 34.5H25.5002C23.6897 34.5 22.1747 35.7908 21.8259 37.5H17.5622C19.0689 33.8723 22.5759 31.5 26.5802 31.5H32.5052L34.4004 35.922L33.3489 37.5Z" fill="#4B1600"/>
<path d="M43.1891 20.25L39.3746 24.0645L38.2496 22.9395L34.9391 26.25H27.0649C23.5969 26.25 20.2744 26.9812 17.2496 28.3027V25.5H12.7496V30.8647C8.61488 33.8512 5.41988 38.1345 3.78488 43.2727L3.47363 44.25H5.24963V47.25H36.7496V43.7498L41.3599 37.6028L38.0134 29.796L41.5601 26.25L40.4351 25.125L43.8101 21.75H47.2496V20.25H43.1891ZM14.2496 27H15.7496V29.0122C15.2396 29.2777 14.7386 29.559 14.2496 29.8597V27ZM6.74963 45.75V44.25H35.2496V45.75H6.74963ZM35.6246 42.75H5.54963C8.86238 33.7358 17.3824 27.75 27.0656 27.75H35.5046L39.6394 37.3965L35.6246 42.75ZM37.3774 28.3118L36.6634 26.6467L38.2496 25.0605L39.4391 26.25L37.3774 28.3118Z" fill="#4B1600"/>
<path d="M6.01892 13.8795C6.01442 13.9358 6.01292 13.992 6.01067 14.049C6.00767 14.1165 6.00017 14.1825 6.00017 14.25H6.01067C6.01067 14.5658 6.03392 14.8845 6.10217 15.204C6.46517 16.9005 7.77992 18.2453 9.45092 18.6292C10.1799 18.7957 10.9172 18.7882 11.6192 18.6082C12.3609 20.031 12.7502 21.6173 12.7502 23.25L14.2502 23.2238C14.2502 21.1425 13.6839 19.0987 12.6129 17.3137L12.2769 16.7535L11.6762 17.01C11.0859 17.2612 10.4327 17.3167 9.78767 17.1675C8.69792 16.917 7.80692 16.002 7.56917 14.8905C7.52192 14.6707 7.50017 14.451 7.50167 14.2335C7.50167 14.211 7.50767 14.1892 7.50842 14.1667C7.51442 13.9718 7.53467 13.7783 7.57817 13.59C7.58192 13.5735 7.58867 13.5585 7.59317 13.5427C7.69667 13.134 7.88492 12.7455 8.16242 12.396L8.23817 12.3007C8.78942 11.6632 9.59342 11.25 10.5002 11.25V9.75C9.18467 9.75 8.00342 10.3208 7.17992 11.223C7.02917 11.2395 6.88517 11.25 6.75017 11.25C5.40167 11.25 4.13567 10.6523 3.27617 9.6105C2.41742 8.56875 2.07542 7.19475 2.33867 5.84025C2.67767 4.09275 4.08017 2.6865 5.82842 2.3415C7.39892 2.031 8.97017 2.5515 10.0329 3.69525C9.85292 4.1805 9.75017 4.7025 9.75017 5.25H11.2502C11.2502 4.85325 11.3312 4.47675 11.4722 4.1295L11.5862 3.9045C11.7902 3.5025 12.0722 3.1695 12.4014 2.9055C12.4374 2.877 12.4697 2.84475 12.5072 2.8185C12.5807 2.76525 12.6594 2.721 12.7374 2.6745C12.8147 2.62875 12.8934 2.5845 12.9752 2.5455C13.0464 2.51175 13.1192 2.48025 13.1934 2.4525C13.2954 2.4135 13.4004 2.38275 13.5069 2.355C13.5714 2.3385 13.6337 2.31825 13.6997 2.30625C13.8714 2.274 14.0469 2.2545 14.2277 2.253C14.3792 2.2515 14.5329 2.25975 14.6874 2.2815C15.7952 2.4375 16.7409 3.24 17.0979 4.326C17.3447 5.07675 17.2914 5.826 16.9404 6.5505L16.2654 7.94325L17.7767 7.6095C18.7809 7.38825 19.7289 7.5 20.6732 7.9545C22.0487 8.616 23.0207 9.933 23.2104 11.3918C23.3822 12.7102 22.9997 13.9808 22.1327 14.9678C21.2282 15.9983 19.8729 16.5443 18.5244 16.4835C16.8842 16.3995 15.3924 15.4223 14.6829 13.929L13.3277 14.5725C14.0792 16.1543 15.4892 17.3062 17.1324 17.7705C16.2309 19.4445 15.7502 21.3172 15.7502 23.2238V23.25L17.2502 23.2238C17.2502 21.414 17.7422 19.6373 18.6729 18.0855L18.7247 18C18.7292 18 18.7344 17.9993 18.7389 17.9993C18.7427 17.9993 18.7464 18 18.7502 18V17.9985C20.4587 17.9895 22.1199 17.2553 23.2599 15.9578C24.3984 14.661 24.9227 12.9262 24.6977 11.1982C24.4434 9.243 23.1504 7.48125 21.3227 6.60225C20.4677 6.19125 19.5812 5.97975 18.6827 6.00075C18.8079 5.29125 18.7554 4.566 18.5222 3.8565C17.9882 2.232 16.5647 1.0305 14.8959 0.795C14.6799 0.765 14.4639 0.7545 14.2502 0.75525V0.75C12.8754 0.75 11.6439 1.37175 10.8182 2.34675C9.41717 1.0485 7.47392 0.4875 5.53817 0.87C3.19817 1.332 1.32017 3.2145 0.866423 5.5545C0.517673 7.35075 0.974423 9.177 2.11892 10.5645C3.16142 11.829 4.65392 12.6023 6.26942 12.7305C6.13817 13.095 6.05192 13.4798 6.01892 13.8795Z" fill="#4B1600"/>
<path d="M18.75 13.5V15C20.4045 15 21.75 13.6545 21.75 12C21.75 10.3455 20.4045 9 18.75 9V10.5C19.5773 10.5 20.25 11.1727 20.25 12C20.25 12.8273 19.5773 13.5 18.75 13.5Z" fill="#4B1600"/>
<path d="M6.75 5.25V3.75C5.0955 3.75 3.75 5.0955 3.75 6.75C3.75 8.4045 5.0955 9.75 6.75 9.75V8.25C5.92275 8.25 5.25 7.57725 5.25 6.75C5.25 5.92275 5.92275 5.25 6.75 5.25Z" fill="#4B1600"/>
</svg>
