<svg width="48" height="48" viewBox="0 0 48 48" fill="none" xmlns="http://www.w3.org/2000/svg">
<path d="M42.8084 39.7564C42.645 39.4305 42.5444 39.0813 42.508 38.719L42.4763 38.5664C42.4623 38.5192 41.0324 33.7935 41.0324 24C41.0324 14.2065 42.4623 9.48077 42.477 9.43432L42.5088 9.28181C42.5444 8.91948 42.6458 8.57032 42.8092 8.24439L43.6515 6.55974C43.9635 5.93342 44.1292 5.23277 44.1292 4.53213C44.1292 2.03303 42.0961 0 39.597 0H8.40322C5.90413 0 3.87109 2.03303 3.87109 4.53213C3.87109 5.232 4.03677 5.93342 4.34955 6.55897L5.19187 8.24361C5.35522 8.56955 5.45587 8.91871 5.49225 9.28103L5.524 9.43355C5.53793 9.48077 6.96787 14.2065 6.96787 24C6.96787 33.7935 5.53793 38.5192 5.52322 38.5657L5.49148 38.7182C5.45587 39.0805 5.35445 39.4297 5.19109 39.7556L4.34877 41.4403C4.03677 42.0666 3.87109 42.7672 3.87109 43.4679C3.87109 45.967 5.90413 48 8.40322 48H39.597C42.0961 48 44.1292 45.967 44.1292 43.4679C44.1292 42.768 43.9635 42.0666 43.6507 41.441L42.8084 39.7564ZM39.597 46.4516H8.40322C6.75806 46.4516 5.41948 45.113 5.41948 43.4679C5.41948 43.0072 5.52864 42.5458 5.73458 42.1332L6.5769 40.4485C6.81303 39.977 6.96322 39.4723 7.02438 38.9497C7.2218 38.2777 8.51625 33.5017 8.51625 24C8.51625 14.4983 7.2218 9.72232 7.02438 9.04955C6.96322 8.52697 6.81303 8.02297 6.5769 7.55071L5.73458 5.86684C5.52864 5.45497 5.41948 4.99277 5.41948 4.53213C5.41948 2.88697 6.75806 1.54839 8.40322 1.54839H39.597C41.2422 1.54839 42.5808 2.88697 42.5808 4.53213C42.5808 4.99277 42.4716 5.45419 42.2657 5.86684L41.4234 7.55148C41.1872 8.02297 41.037 8.52774 40.9759 9.05032C40.7784 9.72232 39.484 14.4983 39.484 24C39.484 33.5017 40.7784 38.2777 40.9759 38.9505C41.037 39.473 41.1872 39.977 41.4234 40.4493L42.2657 42.1339C42.4716 42.545 42.5808 43.0072 42.5808 43.4679C42.5808 45.113 41.2422 46.4516 39.597 46.4516Z" fill="#4B1600"/>
<path d="M27.5624 25.5112C27.7606 25.0467 27.8706 24.5357 27.8706 24C27.8706 23.4643 27.7606 22.9533 27.5624 22.4888L29.8835 20.7484L28.9544 19.5097L26.6783 21.2168C25.9815 20.5463 25.0401 20.129 23.9996 20.129C22.9591 20.129 22.0177 20.5463 21.3209 21.2168L19.0448 19.5097L18.1157 20.7484L20.4368 22.4888C20.2386 22.9533 20.1286 23.4643 20.1286 24C20.1286 24.5357 20.2386 25.0467 20.4368 25.5112L18.1157 27.2516L19.0448 28.4903L21.3209 26.7832C22.0177 27.4537 22.9591 27.871 23.9996 27.871C25.0401 27.871 25.9815 27.4537 26.6783 26.7832L28.9544 28.4903L29.8835 27.2516L27.5624 25.5112ZM23.9996 26.3226C22.7191 26.3226 21.677 25.2805 21.677 24C21.677 22.7195 22.7191 21.6774 23.9996 21.6774C25.2801 21.6774 26.3222 22.7195 26.3222 24C26.3222 25.2805 25.2801 26.3226 23.9996 26.3226Z" fill="#4B1600"/>
<path d="M27.5624 12.3499C27.7606 11.8854 27.8706 11.3745 27.8706 10.8387C27.8706 10.303 27.7606 9.792 27.5624 9.32749L29.8835 7.5871L28.9544 6.34839L26.6783 8.05549C25.9815 7.38503 25.0401 6.96774 23.9996 6.96774C22.9591 6.96774 22.0177 7.38503 21.3209 8.05549L19.0448 6.34839L18.1157 7.5871L20.4368 9.32749C20.2386 9.792 20.1286 10.303 20.1286 10.8387C20.1286 11.3745 20.2386 11.8854 20.4368 12.3499L18.1157 14.0903L19.0448 15.329L21.3209 13.6219C22.0177 14.2924 22.9591 14.7097 23.9996 14.7097C25.0401 14.7097 25.9815 14.2924 26.6783 13.6219L28.9544 15.329L29.8835 14.0903L27.5624 12.3499ZM23.9996 13.1613C22.7191 13.1613 21.677 12.1192 21.677 10.8387C21.677 9.5582 22.7191 8.51613 23.9996 8.51613C25.2801 8.51613 26.3222 9.5582 26.3222 10.8387C26.3222 12.1192 25.2801 13.1613 23.9996 13.1613Z" fill="#4B1600"/>
<path d="M27.5624 39.4467C27.7606 38.9822 27.8706 38.4712 27.8706 37.9355C27.8706 37.3997 27.7606 36.8888 27.5624 36.4243L29.8835 34.6839L28.9544 33.4452L26.6783 35.1523C25.9815 34.4818 25.0401 34.0645 23.9996 34.0645C22.9591 34.0645 22.0177 34.4818 21.3209 35.1523L19.0448 33.4452L18.1157 34.6839L20.4368 36.4243C20.2386 36.8888 20.1286 37.3997 20.1286 37.9355C20.1286 38.4712 20.2386 38.9822 20.4368 39.4467L18.1157 41.1871L19.0448 42.4258L21.3209 40.7187C22.0177 41.3892 22.9591 41.8064 23.9996 41.8064C25.0401 41.8064 25.9815 41.3892 26.6783 40.7187L28.9544 42.4258L29.8835 41.1871L27.5624 39.4467ZM23.9996 40.2581C22.7191 40.2581 21.677 39.216 21.677 37.9355C21.677 36.655 22.7191 35.6129 23.9996 35.6129C25.2801 35.6129 26.3222 36.655 26.3222 37.9355C26.3222 39.216 25.2801 40.2581 23.9996 40.2581Z" fill="#4B1600"/>
</svg>
