<svg width="24" height="24" viewBox="0 0 24 24" fill="none" xmlns="http://www.w3.org/2000/svg">
<path fill-rule="evenodd" clip-rule="evenodd" d="M2.34002 22.4998C2.60903 22.5009 2.85801 22.3578 2.99252 22.1248C5.02485 18.6597 8.73291 16.522 12.75 16.4998V20.9998C12.7482 21.3045 12.931 21.58 13.2124 21.6968C13.4938 21.8137 13.8179 21.7487 14.0325 21.5323L23.0325 12.5323C23.3233 12.2398 23.3233 11.7673 23.0325 11.4748L14.0325 2.47481C13.8189 2.25944 13.4966 2.19394 13.2159 2.30886C12.9352 2.42377 12.7513 2.69647 12.75 2.99981V7.58231C9.3763 7.9815 6.30141 9.71059 4.20762 12.3859C2.11383 15.0612 1.1743 18.4615 1.59752 21.8323C1.63593 22.1523 1.87445 22.4119 2.19002 22.4773L2.34002 22.4998Z" fill="white"/>
</svg>
