<svg width="48" height="48" viewBox="0 0 48 48" fill="none" xmlns="http://www.w3.org/2000/svg">
<path d="M42.9552 23.2049L40.8494 15.4839H34.8386V13.9355H38.7095C39.9901 13.9355 41.0321 12.8934 41.0321 11.6129V2.32258C41.0321 1.04206 39.9901 0 38.7095 0H9.29018C8.00966 0 6.9676 1.04206 6.9676 2.32258V11.6129C6.9676 12.8934 8.00966 13.9355 9.29018 13.9355H13.1611V15.4839H7.15031L5.0445 23.2049C4.77973 24.1773 4.64502 25.1806 4.64502 26.1894C4.64502 27.823 5.58721 29.2506 6.9676 29.863V48H41.0321V29.8452C42.3947 29.2204 43.3547 27.8036 43.3547 26.1894C43.3547 25.1806 43.22 24.1765 42.9552 23.2049ZM35.6089 26.3582C35.5895 27.6225 34.5583 28.6452 33.2902 28.6452C32.0097 28.6452 30.9676 27.6031 30.9676 26.3226H30.9653V26.263L30.2553 17.0323H34.1743L35.6089 26.3582ZM31.7418 15.4839V13.9355H33.2902V15.4839H31.7418ZM9.29018 12.3871C8.8636 12.3871 8.51599 12.0395 8.51599 11.6129V2.32258C8.51599 1.896 8.8636 1.54839 9.29018 1.54839H38.7095C39.1361 1.54839 39.4837 1.896 39.4837 2.32258V11.6129C39.4837 12.0395 39.1361 12.3871 38.7095 12.3871H9.29018ZM17.8063 15.4839V13.9355H30.1934V15.4839H17.8063ZM29.4192 26.3226C29.4192 27.6031 28.3771 28.6452 27.0966 28.6452C25.8161 28.6452 24.7741 27.6031 24.7741 26.3226V17.0323H28.7023L29.4192 26.3226ZM23.2257 17.0323V26.3226C23.2257 27.6031 22.1836 28.6452 20.9031 28.6452C19.6264 28.6452 18.589 27.6101 18.5821 26.3357L19.2974 17.0323H23.2257ZM16.2579 13.9355V15.4839H14.7095V13.9355H16.2579ZM13.8254 17.0323H17.7451L17.0321 26.3226C17.0321 27.6031 15.9901 28.6452 14.7095 28.6452C13.4414 28.6452 12.4102 27.6225 12.3908 26.3582L13.8254 17.0323ZM6.19341 26.1894C6.19341 25.3185 6.30954 24.4514 6.5387 23.6129L8.33328 17.0323H12.2592L10.8479 26.2049L10.8463 26.3226H10.8386C10.8386 27.0194 10.5297 27.6728 9.9916 28.1164C9.44502 28.567 8.75212 28.7381 8.03986 28.5987C6.98696 28.3928 6.19341 27.3569 6.19341 26.1894ZM15.4837 35.4813V33.2903H18.5805V35.6129C18.5805 36.0418 18.4086 36.4413 18.0974 36.7363C17.7862 37.0312 17.3782 37.1814 16.9477 37.159C16.1402 37.1164 15.4837 36.3639 15.4837 35.4813ZM25.5482 46.4516H22.4515V41.8064H25.5482V46.4516ZM30.9676 46.4516H27.0966V40.2581H20.9031V46.4516H17.0321V38.6973C17.8311 38.6988 18.5821 38.4116 19.1635 37.8596C19.2308 37.7961 19.2943 37.7295 19.3555 37.6599C19.923 38.3032 20.7537 38.7097 21.6773 38.7097C22.6009 38.7097 23.4324 38.3032 23.9999 37.6591C24.5673 38.3032 25.3988 38.7097 26.3224 38.7097C27.2461 38.7097 28.0768 38.3032 28.6442 37.6599C28.7054 37.7288 28.7689 37.7961 28.8362 37.8596C29.4177 38.4116 30.1679 38.6981 30.9676 38.6973V46.4516ZM20.1289 35.6129V33.2903H23.2257V35.6129C23.2257 36.4668 22.5312 37.1613 21.6773 37.1613C20.8233 37.1613 20.1289 36.4668 20.1289 35.6129ZM24.7741 35.6129V33.2903H27.8708V35.6129C27.8708 36.4668 27.1764 37.1613 26.3224 37.1613C25.4685 37.1613 24.7741 36.4668 24.7741 35.6129ZM31.052 37.159C30.62 37.1814 30.2128 37.0312 29.9023 36.7363C29.5911 36.4413 29.4192 36.0418 29.4192 35.6129V33.2903H32.516V35.4813C32.516 36.3639 31.8595 37.1164 31.052 37.159ZM39.4837 46.4516H32.516V38.2653C33.4404 37.7063 34.0644 36.6728 34.0644 35.4813V31.7419H13.9353V35.4813C13.9353 36.6728 14.5593 37.7055 15.4837 38.2653V46.4516H8.51599V30.1889C9.41173 30.1881 10.2788 29.8862 10.9756 29.3117C11.2171 29.1128 11.4301 28.889 11.6143 28.6444C12.3211 29.5843 13.4453 30.1935 14.7095 30.1935C15.9746 30.1935 17.0995 29.5835 17.8063 28.6428C18.5131 29.5835 19.6381 30.1935 20.9031 30.1935C22.1681 30.1935 23.293 29.5835 23.9999 28.6428C24.7067 29.5835 25.8316 30.1935 27.0966 30.1935C28.3617 30.1935 29.4866 29.5835 30.1934 28.6428C30.9002 29.5835 32.0251 30.1935 33.2902 30.1935C34.5544 30.1935 35.6793 29.5843 36.3862 28.6436C36.5317 28.8387 36.6974 29.0206 36.8801 29.1871C37.5916 29.8343 38.5261 30.1695 39.4837 30.1726V46.4516ZM39.7144 28.6343C39.0494 28.6994 38.4115 28.4872 37.9214 28.0413C37.4383 27.6015 37.1611 26.9752 37.1611 26.3226L35.7397 17.0323H39.6664L41.461 23.6129C41.6902 24.4514 41.8063 25.3185 41.8063 26.1894C41.8063 27.4483 40.8873 28.5221 39.7144 28.6343Z" fill="#4B1600"/>
<path d="M10.0645 3.09677V10.8387H37.9354V3.09677H10.0645ZM36.387 9.29032H11.6128V4.64516H36.387V9.29032Z" fill="#4B1600"/>
</svg>
