<svg width="48" height="48" viewBox="0 0 48 48" fill="none" xmlns="http://www.w3.org/2000/svg">
<path d="M45.6774 0H2.32258C1.04206 0 0 1.04206 0 2.32258V42.5806C0 43.5886 0.649548 44.4403 1.54839 44.7608V48H7.74194V44.9032H41.0323V48H47.2258V44.2994C47.6973 43.8743 48 43.2643 48 42.5806V2.32258C48 1.04206 46.9579 0 45.6774 0ZM6.19355 46.4516H3.09677V44.9032H6.19355V46.4516ZM45.6774 46.4516H42.5806V44.9032H45.6774V46.4516ZM46.4516 42.5806C46.4516 43.008 46.1048 43.3548 45.6774 43.3548H41.0323H7.74194H2.32258C1.89523 43.3548 1.54839 43.008 1.54839 42.5806V2.32258C1.54839 1.896 1.89523 1.54839 2.32258 1.54839H45.6774C46.1048 1.54839 46.4516 1.896 46.4516 2.32258V42.5806Z" fill="#4B1600"/>
<path d="M9.68729 34.5747L9.74381 34.9719C9.98459 36.6611 11.454 37.9355 13.1611 37.9355C14.8682 37.9355 16.3376 36.6611 16.5784 34.9719L16.6349 34.5747C16.8981 32.7321 17.0321 30.8531 17.0321 28.9904V22.8077C18.9474 21.5202 20.1288 19.3556 20.1288 17.0315C20.1288 13.1899 17.0034 10.0637 13.1611 10.0637C9.31878 10.0637 6.19336 13.1899 6.19336 17.0315C6.19336 19.3649 7.37246 21.5202 9.29013 22.8077V28.9897C9.29013 30.8539 9.42407 32.7321 9.68729 34.5747ZM15.4837 28.9904C15.4837 30.7804 15.3552 32.5858 15.102 34.3556L15.0455 34.7528C14.9123 35.6849 14.1025 36.3871 13.1611 36.3871C12.2197 36.3871 11.4099 35.6849 11.2767 34.7528L11.2202 34.3556C10.967 32.5858 10.8385 30.7804 10.8385 28.9904V16.258C10.8385 15.4041 11.533 14.7097 12.3869 14.7097H13.9353C14.7892 14.7097 15.4837 15.4041 15.4837 16.258V28.9904ZM7.74175 17.0322C7.74175 14.0439 10.1735 11.6129 13.1611 11.6129C16.1487 11.6129 18.5805 14.0439 18.5805 17.0322C18.5805 18.4614 18.0076 19.8178 17.0321 20.8188V16.258C17.0321 14.5502 15.6432 13.1613 13.9353 13.1613H12.3869C10.679 13.1613 9.29013 14.5502 9.29013 16.258V20.8149C8.31542 19.8162 7.74175 18.4668 7.74175 17.0322Z" fill="#4B1600"/>
<path d="M41.8063 16.2581C41.8063 10.7086 37.2912 6.19354 31.7418 6.19354C26.1923 6.19354 21.6772 10.7086 21.6772 16.2581C21.6772 21.8075 26.1923 26.3226 31.7418 26.3226C37.2912 26.3226 41.8063 21.8075 41.8063 16.2581ZM31.7418 24.7742C27.0463 24.7742 23.2256 20.9535 23.2256 16.2581C23.2256 11.5626 27.0463 7.74193 31.7418 7.74193C36.4372 7.74193 40.2579 11.5626 40.2579 16.2581C40.2579 20.9535 36.4372 24.7742 31.7418 24.7742Z" fill="#4B1600"/>
<path d="M31.742 13.9355C30.4615 13.9355 29.4194 14.9776 29.4194 16.2581C29.4194 17.5386 30.4615 18.5806 31.742 18.5806C33.0225 18.5806 34.0646 17.5386 34.0646 16.2581C34.0646 14.9776 33.0225 13.9355 31.742 13.9355ZM31.742 17.0323C31.3147 17.0323 30.9678 16.6846 30.9678 16.2581C30.9678 15.8315 31.3147 15.4839 31.742 15.4839C32.1694 15.4839 32.5162 15.8315 32.5162 16.2581C32.5162 16.6846 32.1694 17.0323 31.742 17.0323Z" fill="#4B1600"/>
<path d="M37.0994 15.4839C36.9677 14.568 36.607 13.7272 36.0759 13.018L37.7636 11.3303L36.6689 10.2356L34.9812 11.9233C34.2728 11.393 33.432 11.0322 32.5161 10.9006V8.51611H30.9677V10.9006C30.0519 11.0322 29.2111 11.393 28.5027 11.9241L26.815 10.2364L25.7203 11.3311L27.408 13.0188C26.8769 13.7272 26.5161 14.568 26.3845 15.4839H24V17.0322H26.3845C26.5161 17.9481 26.8769 18.7889 27.408 19.498L25.7203 21.1858L26.815 22.2805L28.5027 20.5928C29.2111 21.1239 30.0519 21.4839 30.9677 21.6162V24H32.5161V21.6155C33.432 21.4839 34.2728 21.1231 34.9812 20.592L36.6689 22.2797L37.7636 21.185L36.0759 19.4973C36.607 18.7889 36.9677 17.9481 37.0994 17.0315H39.4839V15.4839H37.0994ZM31.7419 20.129C29.6075 20.129 27.871 18.3925 27.871 16.258C27.871 14.1236 29.6075 12.3871 31.7419 12.3871C33.8764 12.3871 35.6129 14.1236 35.6129 16.258C35.6129 18.3925 33.8764 20.129 31.7419 20.129Z" fill="#4B1600"/>
<path d="M31.7419 27.871C30.994 27.871 30.2903 28.2697 29.9055 28.9107L25.8325 35.7004C25.6467 36.0085 25.5483 36.3623 25.5483 36.7231C25.5483 37.8186 26.4394 38.7097 27.5349 38.7097H35.9481C37.0443 38.7097 37.9354 37.8186 37.9354 36.7231C37.9354 36.3623 37.8371 36.0085 37.6521 35.7012L33.5783 28.9107C33.1935 28.2697 32.4898 27.871 31.7419 27.871ZM36.387 36.7231C36.387 36.9646 36.1904 37.1613 35.9489 37.1613H27.5349C27.2934 37.1613 27.0967 36.9646 27.0967 36.7231C27.0967 36.6434 27.1176 36.5667 27.1594 36.4978L31.2332 29.7074C31.3393 29.5301 31.5344 29.4194 31.7419 29.4194C31.9494 29.4194 32.1445 29.5301 32.2505 29.7074L36.3251 36.4978C36.3661 36.5659 36.387 36.6434 36.387 36.7231Z" fill="#4B1600"/>
<path d="M3.09668 41.8064H44.9031V38.7097H43.3547V40.2581H4.64507V4.64516H43.3547V37.1613H44.9031V3.09677H3.09668V41.8064Z" fill="#4B1600"/>
<path d="M13.9356 21.6774H12.3872V23.2258H13.9356V21.6774Z" fill="#4B1600"/>
<path d="M13.9356 16.2581H12.3872V20.129H13.9356V16.2581Z" fill="#4B1600"/>
</svg>
