<svg width="48" height="48" viewBox="0 0 48 48" fill="none" xmlns="http://www.w3.org/2000/svg">
<g clip-path="url(#clip0)">
<path d="M10.0645 36.3872C8.78416 36.3872 7.74194 37.4294 7.74194 38.7098C7.74194 39.9902 8.78416 41.0324 10.0645 41.0324C11.3449 41.0324 12.3871 39.9902 12.3871 38.7098C12.3871 37.4294 11.3449 36.3872 10.0645 36.3872ZM10.0645 39.484C9.63736 39.484 9.29033 39.1362 9.29033 38.7098C9.29033 38.2834 9.63736 37.9356 10.0645 37.9356C10.4917 37.9356 10.8387 38.2834 10.8387 38.7098C10.8387 39.1362 10.4917 39.484 10.0645 39.484Z" fill="#4B1600"/>
<path d="M36.387 36.3872C35.1067 36.3872 34.0645 37.4294 34.0645 38.7098C34.0645 39.9902 35.1067 41.0324 36.387 41.0324C37.6674 41.0324 38.7096 39.9902 38.7096 38.7098C38.7096 37.4294 37.6674 36.3872 36.387 36.3872ZM36.387 39.484C35.9599 39.484 35.6128 39.1362 35.6128 38.7098C35.6128 38.2834 35.9599 37.9356 36.387 37.9356C36.8142 37.9356 37.1612 38.2834 37.1612 38.7098C37.1612 39.1362 36.8142 39.484 36.387 39.484Z" fill="#4B1600"/>
<path d="M44.0013 17.297L43.6675 16.2975C43.3764 15.425 42.6056 14.8228 41.7067 14.7291L40.4399 5.86555C40.2773 4.72807 39.2896 3.87109 38.1415 3.87109H17.6004C16.4524 3.87109 15.4638 4.72807 15.3013 5.86555L13.8293 16.1629C12.6959 16.9216 11.732 17.9412 11.0602 19.1886L8.05305 24.7743H3.87097C1.73664 24.7743 0 26.511 0 28.6453V35.613C0 37.7474 1.73664 39.484 3.87097 39.484H4.70716C5.0848 42.1063 7.3401 44.1292 10.0645 44.1292C12.7889 44.1292 15.0442 42.1063 15.4219 39.484H31.0297C31.4074 42.1063 33.6627 44.1292 36.3871 44.1292C39.1115 44.1292 41.3668 42.1063 41.7445 39.484H44.129C46.2634 39.484 48 37.7474 48 35.613V24.6435C48 21.6862 46.4747 18.8991 44.0013 17.297ZM16.8349 6.08367C16.8882 5.70527 17.2182 5.41948 17.6004 5.41948H38.1407C38.5229 5.41948 38.8529 5.70527 38.9062 6.08443L40.1397 14.7098H18.5599C17.4999 14.7098 16.4766 14.9204 15.5202 15.2859L16.8349 6.08367ZM8.97921 26.3227L12.4249 19.9224C13.6414 17.6618 15.9927 16.2582 18.5599 16.2582H41.4651C41.7989 16.2582 42.0937 16.471 42.1996 16.7878L42.7107 18.323L42.956 18.47C45.113 19.7644 46.4516 22.1297 46.4516 24.6435V27.0999C44.7482 27.0769 43.3548 28.4835 43.3548 30.1937C43.3548 31.9016 44.7437 33.2904 46.4516 33.2904V34.8388H40.1723C39.1943 33.8828 37.8587 33.2904 36.3871 33.2904C34.9154 33.2904 33.5791 33.8828 32.6019 34.8388H31.0335C31.3904 32.5582 33.2896 30.7486 35.6549 30.58L41.8065 30.1404V26.1734L39.4336 20.2399C38.842 18.7618 37.4316 17.8066 35.839 17.8066H18.3546C16.2891 17.8066 14.4326 18.9546 13.5072 20.8028L10.8387 26.1401V33.3524C10.5847 33.3162 10.3276 33.2904 10.0645 33.2904C8.59211 33.2904 7.25655 33.8828 6.27936 34.8388H1.54839V33.1812C1.80393 33.2462 2.0625 33.2904 2.32258 33.2904C4.45691 33.2904 6.19355 31.2072 6.19355 28.6453C6.19355 27.8129 6.00529 27.0186 5.6662 26.3227H8.97921ZM46.4516 31.7421C45.5977 31.7421 44.9032 31.0476 44.9032 30.1937C44.9032 29.3397 45.5977 28.6453 46.4516 28.6453V31.7421ZM24.7742 34.8388V27.0969H40.2581V28.6986L35.5441 29.0354C32.3706 29.2622 29.8382 31.7466 29.4704 34.8388H24.7742ZM24.7742 25.5485V19.355H35.839C36.7942 19.355 37.6406 19.928 37.9952 20.8153L39.8887 25.5485H24.7742ZM23.2258 25.5485H17.8065V24.0001C17.8065 23.1462 17.112 22.4517 16.2581 22.4517H14.4141L14.8923 21.495C15.5527 20.1749 16.8799 19.355 18.3546 19.355H23.2258V25.5485ZM13.6399 24.0001H16.2581V25.5485H12.8657L13.6399 24.0001ZM12.3871 27.0969H23.2258V28.6453H20.129V30.1937H23.2258V34.8388H13.8497C13.4244 34.423 12.9299 34.0801 12.3871 33.8208V27.0969ZM14.9535 36.3872H31.4981C31.2683 36.8688 31.1087 37.389 31.0297 37.9356H15.4219C15.3429 37.389 15.1833 36.8688 14.9535 36.3872V36.3872ZM3.8154 26.328C4.33178 26.9189 4.64516 27.755 4.64516 28.6453C4.64516 30.3532 3.60295 31.7421 2.32258 31.7421C2.06174 31.7421 1.80318 31.674 1.54839 31.5455V28.6453C1.54839 27.3834 2.56111 26.3582 3.8154 26.328ZM1.6909 36.3872H5.17553C4.94569 36.8688 4.78616 37.389 4.70716 37.9356H3.87097C2.86316 37.9356 2.01147 37.2862 1.6909 36.3872ZM10.0645 42.5808C7.93019 42.5808 6.19355 40.8441 6.19355 38.7098C6.19355 36.5755 7.93019 34.8388 10.0645 34.8388C12.1988 34.8388 13.9355 36.5755 13.9355 38.7098C13.9355 40.8441 12.1988 42.5808 10.0645 42.5808ZM36.3871 42.5808C34.2528 42.5808 32.5161 40.8441 32.5161 38.7098C32.5161 36.5755 34.2528 34.8388 36.3871 34.8388C38.5214 34.8388 40.2581 36.5755 40.2581 38.7098C40.2581 40.8441 38.5214 42.5808 36.3871 42.5808ZM44.129 37.9356H41.7445C41.6654 37.389 41.5059 36.8688 41.2761 36.3872H46.3091C45.9885 37.2862 45.1368 37.9356 44.129 37.9356Z" fill="#4B1600"/>
<path d="M18.5806 13.1613H20.129V8.51616H21.6774V6.96777H17.0322V8.51616H18.5806V13.1613Z" fill="#4B1600"/>
<path d="M23.4785 12.3871H26.0702L26.3522 13.3741L27.8416 12.9485L26.1322 6.96777H23.4165L21.707 12.9485L23.1964 13.3741L23.4785 12.3871ZM24.9648 8.51616L25.6283 10.8387H23.9204L24.5838 8.51616H24.9648Z" fill="#4B1600"/>
<path d="M29.302 13.5715L30.5809 11.5249L31.8597 13.5715L33.173 12.7512L31.4938 10.0645L33.173 7.37793L31.8597 6.55762L30.5809 8.60424L29.302 6.55762L27.9888 7.37793L29.668 10.0645L27.9888 12.7512L29.302 13.5715Z" fill="#4B1600"/>
<path d="M38.7096 11.6129H37.1612V8.51616H38.7096V6.96777H34.0645V8.51616H35.6128V11.6129H34.0645V13.1613H38.7096V11.6129Z" fill="#4B1600"/>
</g>
<defs>
<clipPath id="clip0">
<rect width="47.9999" height="48" fill="white"/>
</clipPath>
</defs>
</svg>
