<svg width="48" height="48" viewBox="0 0 48 48" fill="none" xmlns="http://www.w3.org/2000/svg">
<g clip-path="url(#clip0)">
<path d="M43.5 27.75H42.75V24C42.75 21.9323 41.0677 20.25 39 20.25H27.75V15C27.75 12.3607 25.7895 10.176 23.25 9.81V5.25H24.75V3C24.75 1.7595 23.7405 0.75 22.5 0.75H6C4.7595 0.75 3.75 1.7595 3.75 3V5.25H5.25V9.81C2.7105 10.176 0.75 12.3607 0.75 15V37.5C0.75 39.7103 2.12475 41.6017 4.06275 42.375C3.86925 42.7072 3.75 43.0882 3.75 43.5V45C3.75 46.2405 4.7595 47.25 6 47.25C7.2405 47.25 8.25 46.2405 8.25 45V43.5C8.25 43.236 8.196 42.9855 8.112 42.75H17.25V43.5C17.25 45.5677 18.9323 47.25 21 47.25H43.5C45.5677 47.25 47.25 45.5677 47.25 43.5V31.5C47.25 29.4323 45.5677 27.75 43.5 27.75ZM45.75 31.5V39.75H45C44.586 39.75 44.25 39.414 44.25 39V33C44.25 31.7595 43.2405 30.75 42 30.75H22.5C21.2595 30.75 20.25 31.7595 20.25 33V39C20.25 39.414 19.914 39.75 19.5 39.75H18.75V31.5C18.75 30.2595 19.7595 29.25 21 29.25H43.5C44.7405 29.25 45.75 30.2595 45.75 31.5ZM27.75 27.75V24.75H38.25V27.75H27.75ZM26.25 27.75H23.25V24.75H26.25V27.75ZM23.25 21.0195C22.3447 21.705 21.75 22.7805 21.75 24V24.75H6C5.736 24.75 5.4855 24.804 5.25 24.888V15.75C5.25 14.9227 5.92275 14.25 6.75 14.25H21.75C22.5773 14.25 23.25 14.9227 23.25 15.75V21.0195ZM6.75 27V30C6.75 30.414 6.414 30.75 6 30.75C5.586 30.75 5.25 30.414 5.25 30V27C5.25 26.586 5.586 26.25 6 26.25C6.414 26.25 6.75 26.586 6.75 27ZM5.25 32.112C5.4855 32.196 5.736 32.25 6 32.25C7.2405 32.25 8.25 31.2405 8.25 30V27C8.25 26.736 8.196 26.4855 8.112 26.25H21.75V27.75H21C18.9323 27.75 17.25 29.4323 17.25 31.5V36.75H5.25V32.112ZM39.75 27.75V24.75H41.25V27.75H39.75ZM41.112 23.25H23.388C23.6985 22.3792 24.5235 21.75 25.5 21.75H39C39.9765 21.75 40.8015 22.3792 41.112 23.25ZM21.75 9.75H20.25V5.25H21.75V9.75ZM18.75 5.25V9.75H9.75V5.25H18.75ZM5.25 3C5.25 2.586 5.586 2.25 6 2.25H22.5C22.914 2.25 23.25 2.586 23.25 3V3.75H5.25V3ZM8.25 5.25V9.75H6.75V5.25H8.25ZM6 11.25H22.5C24.5677 11.25 26.25 12.9323 26.25 15V20.25H25.5C25.2435 20.25 24.9923 20.2762 24.75 20.3257V15.75C24.75 14.0955 23.4045 12.75 21.75 12.75H6.75C5.0955 12.75 3.75 14.0955 3.75 15.75V27V30V36.75H2.25V15C2.25 12.9323 3.93225 11.25 6 11.25V11.25ZM6.75 43.5V45C6.75 45.414 6.414 45.75 6 45.75C5.586 45.75 5.25 45.414 5.25 45V43.5C5.25 43.086 5.586 42.75 6 42.75C6.414 42.75 6.75 43.086 6.75 43.5ZM6 41.25C4.1895 41.25 2.6745 39.9593 2.32575 38.25H17.25V41.25H6ZM43.5 45.75H21C19.7595 45.75 18.75 44.7405 18.75 43.5V41.25H19.5C20.7405 41.25 21.75 40.2405 21.75 39V33C21.75 32.586 22.086 32.25 22.5 32.25H42C42.414 32.25 42.75 32.586 42.75 33V39C42.75 40.2405 43.7595 41.25 45 41.25H45.75V43.5C45.75 44.7405 44.7405 45.75 43.5 45.75Z" fill="#4B1600"/>
<path d="M20.25 42.75H21.75V44.25H20.25V42.75Z" fill="#4B1600"/>
<path d="M42.75 42.75H44.25V44.25H42.75V42.75Z" fill="#4B1600"/>
<path d="M39.75 33.75H24.75C23.9227 33.75 23.25 34.4227 23.25 35.25V36.75C23.25 37.5773 23.9227 38.25 24.75 38.25H39.75C40.5773 38.25 41.25 37.5773 41.25 36.75V35.25C41.25 34.4227 40.5773 33.75 39.75 33.75ZM24.75 36.75V35.25H39.75L39.7515 36.75H24.75Z" fill="#4B1600"/>
<path d="M20.25 15.75H8.25C7.42275 15.75 6.75 16.4227 6.75 17.25V18.75C6.75 19.5773 7.42275 20.25 8.25 20.25H20.25C21.0773 20.25 21.75 19.5773 21.75 18.75V17.25C21.75 16.4227 21.0773 15.75 20.25 15.75ZM8.25 18.75V17.25H20.25L20.2515 18.75H8.25Z" fill="#4B1600"/>
</g>
<defs>
<clipPath id="clip0">
<rect width="47.9999" height="48" fill="white"/>
</clipPath>
</defs>
</svg>
