<svg width="48" height="48" viewBox="0 0 48 48" fill="none" xmlns="http://www.w3.org/2000/svg">
<g clip-path="url(#clip0)">
<path d="M23.9954 36.3771C21.9926 36.3771 20.3633 34.7479 20.3633 32.745C20.3633 30.7426 21.9926 29.113 23.9954 29.113C25.9982 29.113 27.6274 30.7426 27.6274 32.745C27.6274 34.7479 25.9982 36.3771 23.9954 36.3771ZM23.9954 30.9876C23.0264 30.9876 22.2379 31.7761 22.2379 32.745C22.2379 33.7144 23.0264 34.5025 23.9954 34.5025C24.9647 34.5025 25.7528 33.7144 25.7528 32.745C25.7528 31.7761 24.9647 30.9876 23.9954 30.9876Z" fill="#4B1600"/>
<path d="M29.7116 27.966C29.4717 27.966 29.2319 27.8744 29.0488 27.6913C27.6989 26.3415 25.9041 25.5981 23.9951 25.5981C22.086 25.5981 20.2912 26.3415 18.9414 27.6913C18.5755 28.0575 17.9819 28.0575 17.6157 27.6913C17.2498 27.3255 17.2498 26.7319 17.6157 26.3657C19.32 24.662 21.5854 23.7234 23.9951 23.7234C26.4051 23.7234 28.6705 24.662 30.3745 26.3657C30.7407 26.7319 30.7407 27.3255 30.3745 27.6913C30.1913 27.8744 29.9515 27.966 29.7116 27.966Z" fill="#4B1600"/>
<path d="M33.523 24.1552C33.2831 24.1552 33.0433 24.0637 32.8602 23.8806C30.4922 21.5127 27.3439 20.2086 23.9957 20.2086C20.647 20.2086 17.4987 21.5127 15.1308 23.8806C14.7646 24.2468 14.1714 24.2468 13.8051 23.8806C13.4393 23.5144 13.4393 22.9211 13.8051 22.5549C16.5272 19.8329 20.1461 18.334 23.9957 18.334C27.8449 18.334 31.4638 19.8329 34.1858 22.5549C34.5517 22.9211 34.5517 23.5144 34.1858 23.8806C34.0027 24.0637 33.7629 24.1552 33.523 24.1552Z" fill="#4B1600"/>
<path d="M37.3343 20.3441C37.094 20.3441 36.8545 20.2525 36.6714 20.0694C29.6819 13.0803 18.3093 13.0803 11.3198 20.0694C10.9536 20.4356 10.3603 20.4356 9.99411 20.0694C9.62827 19.7036 9.62827 19.1099 9.99411 18.7441C17.7146 11.0237 30.2767 11.0237 37.9967 18.7441C38.3629 19.1099 38.3629 19.7036 37.9967 20.0694C37.814 20.2525 37.5741 20.3441 37.3343 20.3441Z" fill="#4B1600"/>
<path d="M40.3313 8.66967C40.0914 8.66967 39.8516 8.57812 39.6685 8.39502L39.637 8.36316C39.2708 7.99731 39.2708 7.40368 39.637 7.03747C40.0028 6.67163 40.5961 6.67163 40.9623 7.03747L40.9941 7.06934C41.3604 7.43518 41.3604 8.02881 40.9941 8.39502C40.811 8.57812 40.5712 8.66967 40.3313 8.66967Z" fill="#4B1600"/>
<path d="M23.9952 47.9994C17.5858 47.9994 11.5602 45.5037 7.02794 40.9715C2.49609 36.4393 0 30.4137 0 24.0042C0 17.5948 2.49609 11.5692 7.02794 7.03699C15.2215 -1.1566 28.0803 -2.33469 37.6025 4.23548C38.0287 4.52955 38.1357 5.11329 37.842 5.53919C37.5479 5.96546 36.9642 6.07239 36.5383 5.77833C27.7602 -0.277692 15.9071 0.80922 8.35362 8.36267C4.17553 12.5408 1.87463 18.0954 1.87463 24.0042C1.87463 29.9127 4.17553 35.4681 8.35362 39.6458C12.5317 43.8239 18.0868 46.1248 23.9952 46.1248C29.904 46.1248 35.459 43.8239 39.6371 39.6458C47.0181 32.2648 48.2222 20.5857 42.4998 11.8754C42.2156 11.4429 42.3361 10.8617 42.7686 10.5775C43.2015 10.293 43.7823 10.4134 44.0668 10.8463C47.0514 15.3895 48.4053 20.8885 47.8783 26.33C47.3444 31.8463 44.8882 37.0457 40.9624 40.9715C36.4302 45.5037 30.4046 47.9994 23.9952 47.9994Z" fill="#4B1600"/>
</g>
<defs>
<clipPath id="clip0">
<rect width="47.9999" height="48" fill="white"/>
</clipPath>
</defs>
</svg>
