<svg width="103" height="103" viewBox="0 0 103 103" fill="none" xmlns="http://www.w3.org/2000/svg">
<path d="M28.1489 89.5115C27.8447 89.607 29.1758 90.9922 28.0348 92.8073C27.3217 94.0683 26.1333 93.6479 24.9068 96.447C23.7183 94.3262 26.1523 91.8042 26.0667 91.8138C25.6674 91.6323 24.6786 92.2245 24.7166 92.2341C24.9733 90.8967 25.791 90.6579 26.1808 90.2089C26.0244 89.2873 25.6848 88.4069 25.1825 87.62C24.5764 86.5064 23.7478 85.5307 22.7485 84.7541C21.8963 84.1048 20.8902 83.6899 19.8297 83.5505C19.6353 82.2574 19.0001 81.0722 18.0327 80.1974C21.1305 81.1253 23.8839 82.9574 25.9431 85.461C26.8634 86.3011 28.0252 86.8263 29.2613 86.9609C32.7792 86.808 30.7921 84.5249 32.8552 83.5696C32.8552 83.6842 32.2372 85.4802 32.6556 85.5661C32.8383 84.9672 33.1648 84.4226 33.6063 83.9803C33.9878 83.6374 34.4486 83.3957 34.9468 83.2772C35.4449 83.1588 35.9646 83.1673 36.4587 83.3021C35.5079 83.7033 35.641 85.8623 34.7663 86.7411C32.3228 89.5115 29.8793 88.5562 29.8793 88.5562C29.8793 88.967 32.1992 89.5879 32.8267 89.7217C35.8787 90.4286 37.8943 89.2345 38.1225 88.4893C38.3127 88.0308 38.1225 87.0182 38.3032 86.359C38.4838 85.6999 38.7025 85.2031 39.8149 84.7159C39.0162 85.7572 39.1779 86.8367 39.5106 86.8558C39.7729 86.0147 40.1677 85.2212 40.6801 84.5058C40.9606 84.1266 41.3792 83.8745 41.8443 83.8046C42.3093 83.7348 42.783 83.8529 43.1616 84.1332C42.0682 84.7064 42.4295 86.1966 41.4977 88.6613C40.8893 90.3808 39.0257 90.6388 38.9307 91.1355C38.9307 91.3457 42.1918 91.5749 43.4088 90.3235C44.6258 89.0721 44.3596 86.9418 45.8998 85.8718C45.8998 85.8718 45.4244 87.7251 45.8998 87.7824C46.221 87.5828 46.5069 87.331 46.746 87.0373C47.2281 86.3818 47.6095 85.6572 47.8774 84.8879C48.6666 86.531 47.4876 89.2727 47.326 89.4637C46.6789 90.2923 45.9131 91.0199 45.0536 91.6227C45.0536 91.6227 46.6604 91.7278 47.326 91.6991C48.9138 91.6418 49.9121 91.8233 50.9674 91.0877C51.6425 90.6005 51.4238 90.0178 51.671 89.3873C51.9042 88.8927 52.2266 88.4457 52.6218 88.069C52.6218 88.069 52.0988 90.3426 52.5267 90.3808C52.6887 89.7099 52.9794 89.0772 53.3824 88.518C53.9992 87.9549 54.7784 87.6036 55.6072 87.5149C55.0938 88.5753 55.1128 89.4255 54.7135 90.3808C54.0574 92.2914 52.1559 92.492 52.0893 92.8168C52.0893 92.8168 56.1111 93.1034 57.5277 92.3392C60.5797 90.5146 57.7654 89.2822 59.068 87.3716C59.068 87.4863 59.5814 89.2822 59.8476 89.1103C59.8094 88.3874 59.8962 87.6634 60.1043 86.9704C60.2028 86.501 60.435 86.0705 60.7726 85.7313C61.1102 85.3921 61.5387 85.1588 62.0059 85.0598C61.3689 85.9005 62.4052 87.6105 62.0819 89.7217C61.8644 90.5959 61.4251 91.3987 60.8069 92.0516C60.1888 92.7045 59.4128 93.1854 58.5546 93.4473C58.6306 93.6288 65.7139 92.6067 65.2955 88.8524C65.2955 88.3556 64.4874 87.7251 64.3448 86.7316C64.2497 86.2157 64.3448 85.3846 64.5159 85.2986C64.5159 85.2986 65.3526 86.5119 65.6854 86.2539C65.418 85.7404 65.312 85.1575 65.3811 84.5822C65.4901 84.1513 65.7335 83.7668 66.0757 83.4849C66.4178 83.203 66.8408 83.0385 67.2827 83.0155C66.6361 84.0377 67.4823 85.3464 67.9482 87.9353C68.1574 90.0274 66.6647 90.868 66.8073 91.3361C66.9023 91.5367 69.4599 89.6835 69.8688 87.983C70.2776 86.2826 68.4236 84.6777 69.2603 82.9677C69.681 83.5469 70.0024 84.1926 70.211 84.8783C70.5913 84.8783 69.6786 82.1939 72.0365 81.2004C71.7888 82.1353 71.6642 83.0988 71.6657 84.0663C71.6657 84.9643 72.1506 85.8718 72.1031 86.6456C72.0582 87.2189 71.94 87.784 71.7513 88.3269C71.9034 88.4893 73.3771 86.808 73.9381 85.8145C74.4393 85.0081 74.7331 84.089 74.7928 83.1401C74.8526 82.1913 74.6765 81.2423 74.2803 80.3789C76.0583 80.0732 75.8491 82.2895 76.334 82.2417C76.6487 81.7963 76.9104 81.3154 77.1136 80.8088C77.5852 80.2434 78.1808 79.7954 78.8535 79.5C78.9101 80.0787 78.8716 80.6629 78.7395 81.2291C78.612 81.7279 78.4564 82.2191 78.2736 82.7002C78.5018 83.0155 79.7948 81.8787 79.7948 81.8787C79.7948 81.8787 79.7283 84.3242 78.3687 84.9738C77.1823 85.4217 76.0798 86.0677 75.1075 86.8844C74.8033 87.2092 73.2915 89.0339 73.2915 89.053C73.2915 89.502 75.4308 87.7729 78.2831 89.1867C79.8994 89.9796 80.9357 90.954 82.6091 90.142C82.3894 90.712 81.9942 91.1965 81.481 91.5248C80.9679 91.853 80.3637 92.0078 79.7568 91.9666C78.5208 91.9666 77.8552 90.954 77.6556 91.4317C77.6556 91.6036 77.7506 91.6705 77.9883 91.9475C78.2895 92.2867 78.4991 92.6978 78.5968 93.1416C77.7889 92.796 77.0435 92.3183 76.391 91.7278C75.7921 90.8585 74.2708 90.419 72.588 91.0495C72.2647 91.1833 68.6708 92.492 68.6518 92.406C70.116 92.6735 70.9812 91.8806 72.6925 92.7786C74.4039 93.6766 73.8335 94.4217 76.0583 95.0045C75.2837 95.5932 74.3283 95.8906 73.3581 95.8451C72.5604 95.6577 71.8075 95.3136 71.1428 94.8325C70.6769 95.0236 71.8464 95.7878 71.8559 95.998C68.8419 95.826 70.5533 93.1321 64.4969 94.1829C63.2134 94.3453 62.3672 94.5268 62.3672 94.5268C65.0674 94.9567 65.6188 95.1478 66.4555 96.1986C67.4063 97.4214 67.2827 98.1092 68.357 98.8065C67.4918 98.7301 67.1971 99.0263 66.5981 98.9307C65.7899 98.8065 65.0103 97.8703 64.3638 97.3067C64.0868 97.0814 63.7612 96.9243 63.413 96.8482C62.757 97.4214 63.7933 98.0996 63.8694 98.3289C61.1977 97.6506 62.1105 96.1413 58.7447 95.4057C58.3368 95.3257 57.9238 95.2747 57.5087 95.2528C57.5943 95.6158 57.9461 95.7782 58.6497 97.1634C59.2867 98.7301 59.8476 99.2555 61.6636 100.345C60.8745 100.746 59.6385 101.357 58.8113 100.87C58.2736 100.344 57.8833 99.6851 57.6799 98.9594C57.3566 99.0931 57.271 99.7618 57.4802 100.641C57.1474 100.641 56.5294 99.2364 56.8337 98.0328C56.7006 96.4661 54.3332 94.7274 53.582 94.6414C54.5395 95.6978 55.1271 97.0397 55.2554 98.4626C55.2554 99.9051 54.5613 100.708 54.1145 101.778C53.9886 102.172 53.9434 102.588 53.9814 103C53.2683 102.15 52.6978 101.195 52.9736 100.411C53.2493 99.6281 53.4204 99.074 53.0781 99.0358C52.9734 99.2056 52.8842 99.3847 52.8119 99.5708C52.7271 99.7669 52.6818 99.9779 52.6788 100.192C51.728 98.9498 53.0876 97.7175 52.8309 97.2016C52.4887 95.8642 49.9216 93.4951 45.7477 93.027C47.8964 93.6766 49.6363 100.077 51.5284 100.88C50.2875 101.068 49.021 100.789 47.9725 100.096C46.8886 99.523 46.1375 97.2303 46.1375 97.2303C45.3864 97.3067 46.1375 99.5899 46.7175 100.345C43.1045 98.434 45.9949 94.6128 42.2774 93.4378C41.5576 93.1688 40.7912 93.0485 40.0241 93.0843C40.8558 93.7485 41.5695 94.5496 42.1348 95.4534C43.0855 97.1825 42.8859 98.3193 44.0363 99.2078C41.5738 99.8956 40.2332 98.0901 39.5201 96.1699C39.1842 96.8503 39.0903 97.6257 39.2539 98.3671C37.2668 97.2207 40.4519 94.6701 34.7283 92.4634C34.1549 92.305 33.6249 92.0175 33.1785 91.6227C33.3116 92.215 35.5079 93.3231 35.7361 95.1764C35.9547 96.7144 35.5554 97.087 36.221 98.2334C35.3508 98.1886 34.5207 97.8523 33.8631 97.2781C32.7697 96.0457 32.9123 95.1095 32.608 94.3358C32.0376 94.6892 32.8647 96.6667 32.8647 96.6667C30.8016 95.4821 31.4101 93.5906 30.5639 92.0144C29.8998 91.0062 29.0315 90.1501 28.0158 89.502" fill="#4B1700"/>
<path d="M40.6895 92.1481C41.0853 92.1719 41.4822 92.1719 41.878 92.1481C43.2769 92.0431 44.6816 92.0431 46.0804 92.1481C46.7364 92.1481 47.3259 92.2818 47.8964 92.3583C54.2666 92.664 52.6502 90.0751 55.0462 87.7537C53.0591 90.1611 53.9908 92.7213 49.1609 92.6162C53.0115 93.4091 57.2139 94.7178 60.2659 90.8489C61.6635 89.0147 60.2659 87.1423 61.3688 85.8431C60.418 87.534 61.8252 88.7663 60.418 90.9922C58.5165 93.4091 56.7195 93.7434 54.3426 93.8581C55.4661 94.0275 56.6008 94.1105 57.7369 94.1065H58.1267C58.5165 94.1065 58.8778 94.1065 59.2011 94.0396C60.3211 93.9051 61.4323 93.7042 62.5288 93.4377C64.4303 92.7117 66.3318 91.2406 66.5505 89.0052C66.8072 87.4194 65.7138 85.2508 66.3794 83.8848C65.923 85.2604 67.0544 87.5054 66.8167 89.0434C66.6942 89.9294 66.357 90.7717 65.8349 91.4963C65.3127 92.2208 64.6214 92.8055 63.8218 93.1989L64.9342 92.9601C65.8279 92.578 66.7692 92.2818 67.6819 91.9379C69.1461 90.8871 70.6103 89.4446 70.9526 87.7251C71.2949 86.0055 70.5533 83.4453 71.3804 82.2703C70.6959 83.6842 71.5421 86.0915 71.2093 87.7824C70.7875 89.3216 69.855 90.6698 68.5661 91.6036C68.9465 91.4507 69.5169 91.1164 69.5169 91.1164C69.7451 90.9922 69.9638 90.8584 70.1825 90.7151C71.6811 89.5324 73.0258 88.1652 74.1852 86.6456C75.2374 85.1589 75.6706 83.3184 75.3927 81.5156C75.6114 82.0506 75.9631 83.2543 75.0884 85.4706C76.0392 84.1236 78.0834 80.6941 78.0073 80.8756C77.2052 82.489 76.3066 84.0522 75.3166 85.5565C76.6338 84.9242 77.88 84.1524 79.0341 83.2543C78.5683 84.0185 76.1818 85.2222 75.117 85.8336C74.9268 86.0533 74.518 86.5692 74.3754 86.7889C73.2672 88.2447 71.9906 89.5627 70.5723 90.7151C70.6864 90.7151 74.7176 89.3682 76.2769 89.5019C78.2355 89.7025 79.1958 91.2597 81.1544 91.0208C79.5951 91.5654 78.207 89.9605 76.2579 89.7599C74.3088 89.5592 70.8005 90.9349 69.6025 91.3456C68.381 91.9747 67.1088 92.4988 65.7994 92.9123C67.325 92.8579 68.8523 92.941 70.3631 93.1607C71.1916 93.3057 71.9852 93.6072 72.702 94.0491C73.3148 94.5649 74.0419 94.9253 74.8222 95.1C73.999 95.0026 73.2206 94.6712 72.5784 94.1447C71.8409 93.7387 71.035 93.4731 70.2015 93.3613C68.6235 93.1801 67.0357 93.1003 65.4476 93.1225C65.3145 93.1894 64.5539 93.3136 64.2021 93.39C62.6154 93.7891 61.0097 94.1079 59.3912 94.3453C61.616 94.7752 65.0008 96.0075 65.885 97.0106C66.7692 98.0136 66.6456 97.9659 67.1305 98.3002C66.6202 98.0574 66.1765 97.6935 65.8374 97.2398C65.4615 96.9024 65.0427 96.6165 64.5919 96.3896C62.5518 95.4287 60.3783 94.7845 58.1457 94.479C57.0849 94.5005 56.024 94.4495 54.9701 94.3262C56.1248 95.0327 57.0856 96.0178 57.7654 97.1921C58.545 98.348 58.7162 99.8764 60.0853 100.574C58.469 99.972 58.3834 98.5581 57.5562 97.3354C56.7854 95.9374 55.5845 94.828 54.1334 94.1733C53.1271 93.8772 52.105 93.638 51.072 93.4569C52.4337 94.2671 53.5155 95.4774 54.1715 96.9246C54.3827 97.9519 54.3002 99.0183 53.9338 100.001C53.8397 100.386 53.7824 100.779 53.7626 101.176C53.5154 100.163 54.4757 98.4913 54.0193 97.0965C53.7213 96.3257 53.257 95.6308 52.6597 95.0618C51.9122 94.1617 50.9461 93.4707 49.855 93.0556C49.218 92.9028 48.5619 92.7499 47.8774 92.6448H47.7443C47.1738 92.5493 46.6414 92.4729 46.0614 92.4251C44.8493 92.3344 43.6321 92.3344 42.4199 92.4251C43.9215 92.5949 45.3037 93.3285 46.2896 94.479C47.4971 95.9693 47.9629 98.9976 49.6458 100.029C48.1626 99.5899 46.8981 95.9406 46.0899 94.6319C44.9039 93.4011 43.3039 92.6586 41.6023 92.5493L40.6515 92.4442C40.043 92.3583 39.3775 92.4442 39.0542 92.3392C39.0542 92.3392 37.4569 92.0335 36.8484 91.9379C38.2141 92.6223 39.3973 93.6245 40.2997 94.8611C40.7724 95.4411 41.1628 96.0841 41.4597 96.7717C41.7335 97.4282 42.153 98.013 42.6862 98.4817C41.9065 98.1378 41.3931 97.0679 40.7846 95.9979C40.6064 95.6489 40.3929 95.3192 40.1476 95.014C38.9222 93.4481 37.2708 92.2733 35.3937 91.6322C35.3772 91.6302 35.3614 91.6239 35.3481 91.6138C35.3347 91.6038 35.3242 91.5903 35.3177 91.5749C33.7299 91.0591 32.1231 90.6196 30.5638 89.9509C31.7041 90.9377 32.7513 92.0282 33.6919 93.2085C34.2398 93.9911 34.6009 94.89 34.7472 95.8355C34.8774 96.3624 35.0961 96.8632 35.3937 97.3163C35.2416 97.3163 34.6521 96.275 34.5476 95.7782C34.3958 94.9073 34.0334 94.0872 33.4922 93.39C32.3098 91.8415 30.9066 90.4766 29.3278 89.3395C28.1626 88.7774 27.0939 88.0325 26.1618 87.1328L25.7719 86.7029C26.7227 88.2409 27.6735 90.1229 27.4833 91.2215C27.2456 93.0079 25.829 93.3422 25.1539 94.8038C25.5818 93.4186 27.0555 92.7213 27.2171 91.1641C27.3788 89.607 25.0208 85.9291 23.8894 84.821C22.9018 83.7997 21.6813 83.0357 20.3335 82.5951C20.2121 82.2046 20.0222 81.839 19.7726 81.5156C23.4426 83.1683 24.2983 84.6586 25.7149 86.2921C28.244 87.7537 29.518 88.3842 32.2847 87.2474C33.6866 86.5352 34.7647 85.3118 35.2987 83.8275C35.1681 84.6257 34.8379 85.3776 34.339 86.0125C33.8401 86.6475 33.1888 87.1447 32.4464 87.4576C29.7937 88.5084 28.4056 88.0785 26.2949 86.8749L26.3614 86.9608C27.2341 87.7974 28.2278 88.4963 29.3088 89.0338L29.4609 89.1198C29.8983 89.3395 30.2976 89.5306 30.6684 89.693C31.719 90.1284 32.7917 90.5079 33.882 90.8298C35.9072 91.1737 38.2556 90.8298 39.5866 89.0338C40.6135 87.7633 40.5374 85.2126 41.9541 84.6395C40.7941 85.461 40.7846 87.9639 39.7958 89.1867C39.2332 89.8939 38.5037 90.4487 37.6735 90.8007C36.8433 91.1527 35.9387 91.2907 35.042 91.2024L36.1163 91.5654C37.1432 91.68 38.1605 91.8806 39.1778 92.0144C43.7415 91.6704 45.5575 90.8967 47.6777 86.6838C47.2541 88.2294 46.345 89.5962 45.0858 90.5808C43.8267 91.5654 42.2847 92.1151 40.6895 92.1481Z" fill="white"/>
<path d="M74.4133 12.7914C74.708 12.6863 73.3484 11.3489 74.4133 9.5052C75.0978 8.21555 76.3148 8.5499 77.4367 5.76999C78.6823 7.86209 76.3243 10.4414 76.4099 10.4414C76.8092 10.6038 77.779 9.98285 77.741 9.97329C77.5318 11.3203 76.7237 11.5782 76.3434 12.0463C76.5257 12.9593 76.8878 13.8264 77.4082 14.5969C78.0628 15.6981 78.9407 16.6485 79.9848 17.3864C80.853 18.0117 81.8693 18.3971 82.9322 18.5041C83.1715 19.7918 83.8426 20.9583 84.8337 21.8094C81.7136 20.9722 78.9109 19.2234 76.7807 16.7846C75.8389 15.97 74.6633 15.4781 73.4245 15.3803C69.9066 15.6286 71.9603 17.8545 69.9161 18.8671C69.9161 18.762 70.4866 16.9565 70.0683 16.8705C69.8848 17.4775 69.5587 18.0312 69.1175 18.485C68.7409 18.8377 68.2838 19.0919 67.7864 19.2252C67.2889 19.3585 66.7665 19.3667 66.2652 19.2492C67.216 18.8098 67.0068 16.6604 67.853 15.7528C70.1919 12.9156 72.6639 13.8136 72.6639 13.8136C72.6639 13.4124 70.3155 12.8583 69.6785 12.7437C66.6075 12.1227 64.6298 13.3646 64.4302 14.1193C64.2495 14.5874 64.4302 15.6 64.3066 16.2496C64.2421 16.6334 64.0743 16.9922 63.8212 17.287C63.568 17.5817 63.2394 17.8011 62.8709 17.9214C63.641 16.861 63.4604 15.791 63.1276 15.7815C62.8938 16.6131 62.5381 17.4051 62.0723 18.1315C61.8002 18.5192 61.3866 18.783 60.9217 18.8653C60.4568 18.9476 59.9783 18.8418 59.5908 18.571C60.6746 17.9691 60.2753 16.498 61.1215 13.9951C61.692 12.266 63.546 11.9508 63.622 11.454C63.622 11.2438 60.3514 11.1101 59.1629 12.4093C58.1266 13.7563 58.3072 15.8197 56.805 16.9279C56.805 16.9279 57.2328 15.065 56.805 15.0746C56.4897 15.2823 56.2103 15.5405 55.9778 15.8388C55.5152 16.5079 55.1531 17.2418 54.9035 18.0169C54.0763 16.4024 55.1792 13.6321 55.3313 13.4315C55.9529 12.5807 56.6999 11.8302 57.5466 11.2056C57.5466 11.2056 55.9303 11.1483 55.2648 11.2056C53.677 11.3107 52.6786 11.1483 51.6423 11.9221C50.9768 12.4189 51.224 13.0016 50.9863 13.6416C50.7741 14.1379 50.4782 14.5936 50.1116 14.9886C50.1116 14.9886 50.5679 12.6959 50.1116 12.6768C49.9716 13.3598 49.7003 14.0088 49.3129 14.5874C48.7128 15.1681 47.9429 15.5398 47.1166 15.6478C47.6015 14.5778 47.554 13.7372 47.9248 12.7819C48.5333 10.8713 50.4253 10.6038 50.4824 10.279C50.4824 10.279 46.4606 10.107 45.063 10.9095C41.9825 12.8201 44.8348 13.9951 43.5608 15.9343C43.5608 15.8197 42.9998 14.0237 42.7431 14.2148C42.7965 14.9406 42.729 15.6703 42.5434 16.3738C42.4449 16.8432 42.2128 17.2737 41.8751 17.6129C41.5375 17.9521 41.1091 18.1854 40.6419 18.2844C41.2599 17.4342 40.176 15.7624 40.4422 13.6321C40.6322 12.7523 41.0469 11.9374 41.6453 11.2674C42.2438 10.5974 43.0055 10.0955 43.8555 9.81089C43.7794 9.63894 36.7342 10.8522 37.2001 14.5874C37.2666 15.0746 38.0368 15.6955 38.2459 16.6795C38.36 17.1858 38.341 18.0264 38.1223 18.1124C38.1223 18.1124 37.2571 16.9183 36.9244 17.2144C37.2043 17.7175 37.33 18.2925 37.2857 18.8671C37.1848 19.3082 36.9456 19.7051 36.6032 19.9992C36.2609 20.2933 35.8335 20.4691 35.3841 20.5007C35.9926 19.4594 35.1179 18.1697 34.576 15.6C34.3097 13.5174 35.7739 12.6386 35.6218 12.1609C35.5267 11.9603 33.0167 13.89 32.6649 15.6095C32.3131 17.3291 34.1957 18.8671 33.4065 20.6057C32.9855 20.0268 32.6641 19.381 32.4557 18.6951C32.0754 18.6951 33.0642 21.37 30.7444 22.4304C30.959 21.4909 31.0548 20.528 31.0296 19.5645C31.0296 18.6665 30.4972 17.7685 30.5162 17.0043C30.551 16.4259 30.6596 15.8544 30.8394 15.3038C30.6778 15.1414 29.2516 16.8705 28.7192 17.8736C28.2388 18.6933 27.9691 19.6202 27.9342 20.5708C27.8994 21.5214 28.1005 22.4658 28.5195 23.3188C26.7416 23.5958 26.9127 21.456 26.4374 21.456C26.1335 21.9086 25.8846 22.3961 25.6958 22.908C25.2403 23.4861 24.6578 23.9504 23.9939 24.2645C23.9203 23.6885 23.9428 23.1041 24.0604 22.5354C24.1696 22.0327 24.3126 21.538 24.4883 21.0547C24.2506 20.7395 22.9861 21.9145 22.9861 21.9145C22.9861 21.9145 22.9861 19.4689 24.3171 18.7811C25.4895 18.3129 26.5757 17.651 27.5307 16.8228C27.8255 16.4884 29.2897 14.616 29.2802 14.5969C29.2326 14.1479 27.179 15.9343 24.2886 14.5969C22.6533 13.8518 21.5884 12.8965 19.9341 13.7372C20.1359 13.1625 20.5148 12.6674 21.0158 12.3238C21.5167 11.9802 22.1137 11.8061 22.7198 11.8266C23.9654 11.7406 24.6689 12.7819 24.8401 12.2947C24.8401 12.1227 24.7355 12.0654 24.4883 11.7884C24.1948 11.46 23.9888 11.0623 23.8893 10.6324C24.7039 10.9543 25.4615 11.4059 26.1331 11.9699C26.7416 12.8201 28.2819 13.2117 29.9362 12.5335C30.25 12.3997 33.8153 10.9955 33.8344 11.0719C32.3607 10.8426 31.5145 11.6642 29.7841 10.814C28.0537 9.96374 28.5956 9.20906 26.3613 8.68364C27.1132 8.06097 28.0586 7.72293 29.033 7.72835C29.8371 7.89225 30.6002 8.21714 31.2768 8.68364C31.7332 8.48303 30.5447 7.72835 30.5257 7.53729C33.5396 7.61371 31.9138 10.3172 37.9322 9.14219C39.2157 8.94157 40.0524 8.74096 40.0524 8.74096C37.3427 8.37795 36.7818 8.206 35.9261 7.17428C34.8992 5.98971 35.0418 5.26368 33.9294 4.63319C34.8041 4.68095 35.0894 4.37526 35.6979 4.45168C36.506 4.55676 37.3047 5.46429 37.9702 6.01837C38.2514 6.23087 38.5762 6.37773 38.921 6.44825C39.5675 5.84641 38.5122 5.20636 38.4266 4.97709C41.1173 5.57893 40.2426 7.11696 43.6273 7.74745C44.0388 7.82011 44.4551 7.86162 44.8728 7.87164C44.7777 7.50863 44.426 7.35578 43.6748 5.96105C42.9998 4.41347 42.4198 3.90716 40.5658 2.86589C41.355 2.45511 42.5624 1.80551 43.3706 2.26405C43.91 2.77058 44.3153 3.40427 44.5496 4.10777C44.8633 3.96448 44.9299 3.28622 44.7017 2.4169C45.0249 2.4169 45.719 3.79253 45.4243 5.00575C45.5954 6.56289 48.0104 8.24421 48.771 8.30152C47.7916 7.28262 47.1677 5.97192 46.993 4.56632C46.993 3.12382 47.611 2.30226 48.0389 1.22278C48.1435 0.824186 48.1725 0.409378 48.1245 0C48.8661 0.821555 49.465 1.7673 49.2178 2.55064C48.9706 3.33398 48.7995 3.90716 49.1418 3.93582C49.2466 3.76412 49.3327 3.58156 49.3985 3.3913C49.4768 3.19388 49.5156 2.98287 49.5126 2.77036C50.4634 3.98359 49.1703 5.25413 49.446 5.76044C49.8263 7.0883 52.46 9.38101 56.6434 9.72492C54.4756 9.14219 52.5551 2.79902 50.644 2.08255C51.8781 1.85252 53.1532 2.09444 54.2189 2.76081C55.3123 3.29577 56.1204 5.6267 56.1204 5.6267C56.8716 5.52161 56.0159 3.27667 55.4549 2.53154C59.1249 4.33705 56.3391 8.26331 60.0947 9.30459C60.8227 9.54997 61.5912 9.65056 62.3575 9.60073C61.5089 8.9541 60.7703 8.17334 60.1707 7.28891C59.22 5.58848 59.3436 4.48989 58.1266 3.58236C60.5796 2.83723 61.9297 4.60453 62.7283 6.49602C63.0531 5.7973 63.1237 5.00628 62.928 4.26062C64.9531 5.34966 61.8346 7.98628 67.6248 9.9924C68.1998 10.1365 68.7357 10.4073 69.1936 10.7853C69.0414 10.193 66.8071 9.15174 66.5409 7.30802C66.2747 5.77954 66.655 5.34966 65.9609 4.26062C66.8408 4.29973 67.6818 4.63636 68.3474 5.21592C69.4788 6.41959 69.2981 7.35578 69.688 8.12957C70.2394 7.74745 69.3552 5.8082 69.3552 5.8082C71.4564 6.9259 70.9049 8.83649 71.7987 10.3841C72.4872 11.3742 73.3787 12.2048 74.4133 12.8201" fill="#4B1700"/>
<path d="M61.8063 10.4902C61.4165 10.4902 61.0172 10.4902 60.6179 10.4902C59.2182 10.6273 57.8104 10.6592 56.406 10.5858C55.7499 10.5858 55.1605 10.4902 54.59 10.4138C48.2103 10.2992 49.8361 12.8403 47.5733 15.1903C49.4748 12.7256 48.5241 10.1941 53.3255 10.1559C49.4463 9.47761 45.2154 8.29304 42.268 12.248C40.9274 14.1586 42.4011 15.9545 41.3172 17.2824C42.1824 15.5724 40.7848 14.4165 42.0778 12.1047C43.8938 9.64001 45.6908 9.23878 48.0582 9.07638C46.9264 8.9739 45.7883 8.96113 44.6544 9.03817H44.2646C43.8748 9.03817 43.5135 9.09549 43.1998 9.14325C42.0817 9.31392 40.974 9.54673 39.8816 9.84062C37.98 10.624 36.1641 12.1429 35.9929 14.3783C35.7837 15.9736 36.9437 18.123 36.3067 19.4987C36.725 18.1135 35.5365 15.8972 35.7267 14.3496C35.8388 13.4591 36.1671 12.61 36.6827 11.877C37.1984 11.144 37.8855 10.5496 38.6836 10.1463C38.3128 10.2514 37.942 10.3278 37.5807 10.4234C36.6965 10.8341 35.7647 11.1494 34.871 11.5219C33.4353 12.611 32.0187 14.1012 31.7144 15.8208C31.4102 17.5403 32.2374 20.1005 31.4387 21.2851C32.0852 19.8617 31.1725 17.4639 31.4387 15.7826C31.8278 14.2353 32.7299 12.8673 33.9963 11.9041C33.616 12.076 33.0455 12.4199 33.0455 12.4199L32.3895 12.8498C30.9224 14.0737 29.6157 15.4796 28.5008 17.034C27.4962 18.5508 27.1178 20.4006 27.4455 22.1926C27.2078 21.6576 26.8275 20.4635 27.6356 18.2281C26.7324 19.6038 24.7833 23.0046 24.8404 22.8995C25.6009 21.2576 26.4582 19.6626 27.4074 18.123C26.0913 18.7822 24.8484 19.5796 23.6994 20.5017C24.1463 19.7184 26.5518 18.4478 27.5025 17.8078C27.6832 17.5881 28.073 17.0531 28.2156 16.8525C29.3057 15.3767 30.5663 14.0363 31.9711 12.8594C31.8666 12.9071 27.8733 14.321 26.3236 14.235C24.3555 14.0821 23.3572 12.5537 21.4081 12.8498C22.9483 12.2671 24.384 13.8051 26.3331 13.9771C28.2822 14.149 31.762 12.6396 32.9029 12.2002C34.1203 11.5339 35.3927 10.9746 36.706 10.5284C35.181 10.6251 33.6504 10.5835 32.1328 10.4042C31.2999 10.2799 30.4971 10.0013 29.7654 9.58269C29.1355 9.09604 28.3986 8.76842 27.6166 8.62739C28.4421 8.69624 29.2306 9.00123 29.889 9.50627C30.6354 9.895 31.4484 10.1381 32.2849 10.2227C33.8659 10.3563 35.4537 10.3883 37.0388 10.3183C37.1719 10.2514 37.9325 10.1081 38.2843 10.0221C39.8496 9.58153 41.4363 9.22123 43.0381 8.94264C40.7943 8.57008 37.3335 7.43327 36.4683 6.45887C35.6031 5.48447 35.6792 5.50357 35.1848 5.20743C35.6942 5.42102 36.1468 5.75145 36.5063 6.17228C36.8904 6.49772 37.3156 6.77075 37.7709 6.98428C39.8365 7.90424 42.0293 8.50337 44.2741 8.76114C45.3327 8.70842 46.3937 8.72757 47.4497 8.81845C46.2827 8.13322 45.3028 7.16831 44.5974 6.00988C43.7892 4.87308 43.6466 3.35416 42.1824 2.695C43.7892 3.30639 43.9128 4.66291 44.8066 5.86659C45.6157 7.24405 46.8512 8.31766 48.3244 8.92354C49.3342 9.19925 50.3598 9.413 51.3954 9.56358C49.9998 8.77261 48.8884 7.55899 48.2198 6.09586C47.9804 5.07344 48.0332 4.00389 48.372 3.01025C48.4554 2.62081 48.4999 2.224 48.5051 1.82568C48.7808 2.8383 47.868 4.52917 48.372 5.91435C48.6859 6.67754 49.1669 7.35993 49.7791 7.91092C50.5527 8.78118 51.5344 9.43878 52.6314 9.82151C53.2684 9.95526 53.934 10.089 54.628 10.175H54.7516C55.3125 10.2606 55.8774 10.318 56.444 10.3469C57.6574 10.417 58.8743 10.401 60.0855 10.2992C58.5834 10.1733 57.181 9.49259 56.1493 8.38857C54.8942 6.91741 54.3143 3.89868 52.6219 2.91472C54.1241 3.31595 55.4742 6.92697 56.3299 8.21662C57.5598 9.3927 59.1776 10.0728 60.8746 10.1272L61.8254 10.2036C62.4339 10.2705 63.0994 10.2036 63.4227 10.2705C63.4227 10.2705 65.0295 10.5284 65.638 10.5953C64.2523 9.95259 63.0396 8.98637 62.1011 7.77718C61.611 7.20068 61.2045 6.55745 60.8936 5.86659C60.5789 5.24402 60.1347 4.69669 59.5911 4.26169C60.3802 4.58649 60.9221 5.63732 61.5496 6.6977C61.7551 7.0392 61.9939 7.35922 62.2627 7.65299C63.5386 9.18382 65.2299 10.309 67.1307 10.8914C67.1467 10.8949 67.1618 10.9019 67.1749 10.9118C67.1881 10.9217 67.1989 10.9343 67.2067 10.9488C68.8135 11.4169 70.4298 11.8276 72.0176 12.439C70.8524 11.4826 69.7767 10.421 68.804 9.26744C68.2318 8.50203 67.8475 7.61178 67.6821 6.66904C67.5327 6.14961 67.2981 5.65886 66.9881 5.21699C67.1402 5.21699 67.7582 6.2296 67.8818 6.72635C68.0548 7.5925 68.4368 8.40273 68.9942 9.08594C70.2192 10.5974 71.6611 11.9174 73.2727 13.0027C74.4541 13.5351 75.5449 14.2507 76.5053 15.1234L76.9046 15.5437C75.8683 14.0344 74.908 12.1811 75.0696 11.073C75.2503 9.277 76.6574 8.91398 77.2944 7.43327C76.9046 8.81845 75.4689 9.56358 75.3358 11.1207C75.2027 12.6779 77.6367 16.2889 78.7871 17.3684C79.8121 18.3499 81.0582 19.0677 82.4191 19.4605C82.557 19.8379 82.7562 20.1897 83.0085 20.5017C79.291 18.9541 78.3973 17.483 76.9331 15.9259C74.366 14.5407 73.13 13.9388 70.3443 15.1139C68.9814 15.89 67.9621 17.1565 67.492 18.658C67.6013 17.8561 67.9117 17.0952 68.394 16.4468C68.8763 15.7985 69.5147 15.2839 70.2492 14.9515C72.8638 13.8242 74.2615 14.2159 76.4102 15.3527L76.3436 15.2763C75.4455 14.4688 74.4289 13.805 73.3297 13.3083L73.1776 13.2224C72.7402 13.0218 72.3314 12.8307 71.9606 12.6779C70.8767 12.2575 69.7928 11.9518 68.709 11.6461C66.6743 11.3595 64.3354 11.7512 63.0614 13.5567C62.1106 14.8559 62.1867 17.3779 60.8271 18.018C61.9204 17.206 61.9204 14.7126 62.8712 13.4516C63.4092 12.733 64.1167 12.1602 64.93 11.7849C65.7434 11.4097 66.6369 11.2438 67.53 11.3022L66.4176 10.9488C65.3908 10.8723 64.3639 10.7004 63.3371 10.5858C58.8019 11.0634 56.9954 11.8945 55.0083 16.1647C55.372 14.5991 56.2311 13.1942 57.4568 12.1607C58.6825 11.1273 60.2087 10.521 61.8063 10.4329" fill="white"/>
<path d="M88.5418 75.985C88.6273 76.2812 90.044 75.0297 91.8124 76.1952C93.0484 76.9499 92.6016 78.1058 95.3493 79.4432C93.2006 80.5704 90.7666 78.058 90.7666 78.144C90.5764 78.5357 91.1374 79.5387 91.1469 79.5005C89.8253 79.2139 89.6161 78.3828 89.1788 77.9816C88.2544 78.1173 87.3677 78.4425 86.5737 78.9369C85.4522 79.5133 84.4617 80.3167 83.6643 81.2965C82.9964 82.1238 82.554 83.1114 82.3808 84.1624C81.1038 84.3322 79.9229 84.9355 79.0341 85.8723C80.0437 82.7902 81.9394 80.0777 84.482 78.0771C85.347 77.1802 85.9034 76.0286 86.0698 74.7909C86.0698 71.2563 83.6928 73.186 82.7991 71.0843C82.9132 71.0843 84.7007 71.7626 84.7767 71.3423C84.1844 71.13 83.6524 70.7759 83.227 70.3106C82.904 69.9171 82.6815 69.4504 82.5788 68.951C82.476 68.4516 82.4962 67.9345 82.6375 67.4447C83.0178 68.4 85.157 68.3426 86.0127 69.2406C88.6939 71.7722 87.6766 74.2082 87.6766 74.2082C88.0759 74.2082 88.77 71.9059 88.9221 71.2754C89.7112 68.2376 88.5893 66.1741 87.8477 65.9258C87.4008 65.7251 86.3835 65.8493 85.737 65.6774C85.0905 65.5054 84.5961 65.2475 84.1397 64.1107C85.157 64.9513 86.2314 64.8176 86.2599 64.4833C85.4462 64.2084 84.6797 63.8088 83.9876 63.2987C83.6171 63.0051 83.3771 62.5761 83.3201 62.1055C83.2631 61.6348 83.3937 61.1606 83.6833 60.7863C84.2063 61.8657 85.6895 61.5792 88.1234 62.5344C89.8158 63.2032 90.025 65.0755 90.5099 65.1902C90.719 65.1902 91.0423 61.9231 89.8348 60.6621C88.5418 59.5539 86.4976 59.6686 85.4803 58.0446C85.4803 58.0446 87.3058 58.5795 87.3248 58.1496C87.1346 57.8208 86.894 57.5242 86.6117 57.2708C85.9708 56.7676 85.2596 56.362 84.501 56.0671C86.1553 55.322 88.846 56.5925 89.0362 56.7549C89.842 57.4306 90.5437 58.2225 91.1184 59.1049C91.1184 59.1049 91.2705 57.4905 91.261 56.8218C91.261 55.2169 91.4606 54.2234 90.7571 53.1439C90.3007 52.4465 89.7112 52.6567 89.0837 52.3892C88.602 52.1512 88.1672 51.8275 87.8002 51.4339C87.8002 51.4339 90.044 52.0262 90.0915 51.5963C89.4312 51.4131 88.8116 51.1051 88.266 50.6888C87.7223 50.0519 87.39 49.2604 87.3153 48.4247C88.3611 48.9692 89.2168 48.9692 90.1676 49.38C92.0121 50.0965 92.1832 52.0166 92.5065 52.0835C92.5065 52.0835 92.9058 48.0617 92.1927 46.6097C90.4813 43.419 89.1408 46.2084 87.2868 44.8233C87.4008 44.8233 89.1883 44.3647 89.0362 44.0972C88.3136 44.1151 87.5932 44.0084 86.9064 43.782C86.4525 43.6567 86.0434 43.4042 85.7269 43.0541C85.4104 42.7039 85.1996 42.2705 85.119 41.8045C85.9367 42.4732 87.6575 41.4797 89.7492 41.8714C90.615 42.1121 91.4034 42.5751 92.037 43.215C92.6705 43.8549 93.1272 44.6495 93.3622 45.5206C93.5428 45.4442 92.7347 38.3081 88.9791 38.6138C88.4847 38.6138 87.8382 39.3876 86.8399 39.5691C86.3265 39.6551 85.4993 39.5691 85.4232 39.359C85.4232 39.359 86.6592 38.5661 86.374 38.2222C85.8579 38.4744 85.278 38.5643 84.7102 38.4801C84.2781 38.3516 83.8982 38.0876 83.6262 37.7266C83.3542 37.3657 83.2043 36.9267 83.1984 36.474C84.2063 37.1427 85.5278 36.3402 88.1139 35.9486C90.2056 35.7957 90.9662 37.3146 91.4701 37.1904C91.6793 37.1045 89.9014 34.4774 88.2185 34.0189C86.5356 33.5603 84.8908 35.3658 83.2079 34.4869C83.7911 34.0917 84.4329 33.7918 85.1095 33.5985C85.1095 33.226 82.4283 34.0571 81.5061 31.6879C82.4329 31.9637 83.392 32.1147 84.3584 32.1369C85.3091 32.1369 86.1743 31.707 86.935 31.7739C87.5057 31.8334 88.0656 31.9716 88.5988 32.1847C88.77 32.0318 87.1346 30.5034 86.1744 29.9206C85.3876 29.391 84.4819 29.0665 83.5391 28.9765C82.5963 28.8864 81.646 29.0336 80.774 29.4048C80.5268 27.5993 82.6755 27.8667 82.6755 27.3891C82.2464 27.059 81.7806 26.7801 81.2874 26.558C80.7366 26.0724 80.3067 25.4638 80.0324 24.7811C80.6079 24.7358 81.1869 24.7908 81.7438 24.9435C82.2359 25.0845 82.7186 25.2568 83.1889 25.4594C83.5122 25.2301 82.4188 23.9023 82.4188 23.9023C82.4188 23.9023 84.8528 24.036 85.4613 25.4212C85.8571 26.6238 86.4518 27.7509 87.2202 28.7552C87.534 29.0609 89.3119 30.6658 89.3404 30.6658C89.7778 30.6658 88.1234 28.4781 89.6066 25.66C90.4433 24.0551 91.4511 23.0425 90.7095 21.3325C91.2691 21.5698 91.7387 21.9803 92.05 22.5044C92.3612 23.0285 92.4978 23.6387 92.4399 24.2462C92.4399 25.4881 91.3846 26.1568 91.8505 26.3383C92.0216 26.3383 92.0881 26.2523 92.3829 26.023C92.7225 25.7254 93.1369 25.5272 93.5809 25.4498C93.2131 26.25 92.7151 26.983 92.1072 27.6184C91.2325 28.1915 90.7571 29.7105 91.3275 31.4396C91.4511 31.7644 92.6491 35.4136 92.573 35.4327C92.8773 33.9711 92.1072 33.0731 93.0579 31.3822C94.0087 29.6914 94.7123 30.2836 95.3683 28.0674C95.9231 28.8646 96.1883 29.8292 96.1194 30.7995C95.9096 31.5673 95.5545 32.2874 95.0736 32.9203C95.2447 33.3979 96.0243 32.242 96.2525 32.242C95.9958 35.2607 93.4002 33.4648 94.2274 39.5787C94.3605 40.8683 94.5126 41.7281 94.5126 41.7281C95.026 39.0342 95.2257 38.4801 96.3001 37.6681C97.5361 36.7128 98.2682 36.8943 98.9432 35.8148C98.8481 36.6937 99.1238 36.9898 99.0193 37.6012C98.8671 38.4037 97.9164 39.1583 97.3364 39.7984C97.1093 40.0571 96.9436 40.3641 96.8515 40.6964C97.4125 41.3746 98.1065 40.3525 98.3442 40.276C97.5836 42.9413 96.1099 41.9765 95.2922 45.3391C95.1992 45.7483 95.1325 46.1632 95.0926 46.581C95.4634 46.5046 95.6345 46.1607 97.0512 45.4824C98.6294 44.8997 99.1714 44.3456 100.303 42.5497C100.674 43.3617 101.254 44.6131 100.74 45.4155C100.209 45.9336 99.5543 46.3053 98.8386 46.495C98.9622 46.8198 99.6278 46.9345 100.512 46.7434C100.512 47.0778 99.0858 47.6987 97.8974 47.3261C96.3381 47.4026 94.5316 49.7335 94.427 50.4882C95.4943 49.5689 96.8278 49.0196 98.2301 48.9215C99.6658 48.9215 100.445 49.6762 101.491 50.1634C101.883 50.294 102.296 50.3491 102.708 50.3258C101.843 51.0136 100.873 51.5581 100.103 51.2811C99.333 51.004 98.7816 50.7939 98.734 51.1378C98.9023 51.2497 99.0805 51.3456 99.2665 51.4244C99.4585 51.5115 99.6647 51.5633 99.875 51.5772C98.6104 52.4656 97.422 51.09 96.9086 51.3288C95.568 51.6345 93.1055 54.1947 92.554 58.3311C93.2671 56.1913 99.6753 54.6246 100.521 52.7427C100.678 53.9952 100.367 55.2617 99.6468 56.2964C99.0478 57.3663 96.7279 58.0541 96.7279 58.0541C96.785 58.8088 99.0668 58.0541 99.8369 57.5574C97.8403 61.1397 94.1323 58.121 92.8488 61.8275C92.5617 62.544 92.4164 63.3097 92.4209 64.082C93.1089 63.2659 93.9285 62.5716 94.8454 62.0281C96.5948 61.1302 97.6977 61.3499 98.6485 60.1844C99.257 62.6777 97.422 64.0056 95.4919 64.6361C96.1591 64.9919 96.9267 65.1098 97.6692 64.9705C96.4712 66.8811 94.0182 63.6521 91.6603 69.3457C91.4888 69.9156 91.1895 70.4385 90.7856 70.8742C91.3751 70.7596 92.5445 68.5815 94.389 68.4095C95.9293 68.2376 96.2906 68.6388 97.4505 68.0083C97.3983 68.8723 97.0642 69.6949 96.4997 70.3488C95.2352 71.4092 94.3225 71.199 93.5333 71.5238C93.8756 72.1065 95.8532 71.3327 95.8532 71.3327C94.6267 73.3675 92.7537 72.7084 91.1754 73.5204C90.1316 74.1424 89.2334 74.983 88.5418 75.985Z" fill="#4B1700"/>
<path d="M91.5653 63.4899C91.589 63.0954 91.589 62.6998 91.5653 62.3053C91.5114 60.8928 91.5623 59.4782 91.7174 58.0733C91.7935 57.4237 91.8885 56.8314 91.9836 56.2583C92.4685 49.8673 89.8444 51.3767 87.6006 48.9503C89.9775 50.985 92.5446 50.1157 92.3449 54.9686C93.2386 51.1474 94.6648 46.9441 90.8997 43.7725C89.1123 42.3109 87.2107 43.6866 85.9462 42.5116C87.6006 43.4669 88.8746 42.139 91.0519 43.5719C93.4003 45.5398 93.676 47.3931 93.714 49.7431C93.9161 48.6234 94.0306 47.4895 94.0563 46.3518V45.9602C94.0563 45.559 94.0563 45.1959 94.0563 44.8807C93.9272 43.7502 93.7367 42.6277 93.4858 41.518C92.8108 39.5501 91.4036 37.6969 89.1979 37.3434C87.6196 37.0473 85.3948 38.079 84.0922 37.3434C85.4423 37.8497 87.7146 36.7702 89.2359 37.0568C90.1277 37.2137 90.9663 37.5921 91.6753 38.1577C92.3844 38.7234 92.9414 39.4582 93.2957 40.2953C93.2101 39.9132 93.1626 39.5406 93.0865 39.168C92.7252 38.2605 92.4685 37.3052 92.1357 36.3881C91.185 34.8883 89.7398 33.3694 88.0379 32.9777C86.336 32.586 83.7689 33.2643 82.628 32.3854C84.0161 33.121 86.4311 32.3854 88.095 32.7293C89.611 33.192 90.9211 34.1675 91.803 35.4901C91.6603 35.0985 91.3466 34.4775 91.3466 34.4775C91.223 34.2387 91.0994 34.0285 90.9568 33.7993C89.8289 32.2578 88.5093 30.8677 87.0301 29.6628C86.3041 29.1072 85.4759 28.7012 84.5931 28.4684C83.7103 28.2356 82.7905 28.1805 81.8864 28.3063C82.4284 28.0961 83.6358 27.7809 85.8131 28.7171C84.501 27.7618 81.1829 25.5837 81.3255 25.6506C82.9053 26.5136 84.4324 27.4706 85.8987 28.5165C85.322 27.1685 84.6015 25.8872 83.7499 24.6953C84.501 25.1825 85.6515 27.6663 86.2029 28.7075C86.4121 28.8986 86.9255 29.3189 87.0966 29.4718C88.5153 30.6345 89.7919 31.9621 90.8997 33.4267C90.8997 33.3216 89.6732 29.2329 89.8539 27.6949C90.1106 25.7843 91.6889 24.829 91.5082 22.8516C92.0026 24.4278 90.3673 25.7748 90.1106 27.7236C89.8539 29.6724 91.1279 33.2452 91.5082 34.4106C92.0954 35.6701 92.5756 36.9771 92.9439 38.3178C92.9379 36.7807 93.0683 35.2462 93.3337 33.7324C93.5002 32.9047 93.8229 32.1167 94.2845 31.411C94.8133 30.8072 95.1942 30.0875 95.3969 29.3094C95.2748 30.1314 94.9256 30.9026 94.3891 31.5352C93.9764 32.2586 93.6993 33.0519 93.5714 33.8757C93.3471 35.4391 93.2233 37.0154 93.2006 38.5948C93.2576 38.7381 93.3622 39.5501 93.4288 39.8654C93.7821 41.4682 94.055 43.0879 94.2464 44.7183C94.7408 42.4924 96.0624 39.1394 97.0988 38.27C98.1351 37.4007 98.1066 37.544 98.4203 37.0568C98.1586 37.5596 97.7843 37.9945 97.3269 38.3274C96.9779 38.6959 96.6805 39.1105 96.4427 39.5597C95.3918 41.5757 94.6513 43.7402 94.2464 45.9793C94.2535 47.0433 94.1836 48.1065 94.0373 49.1604C94.7805 48.016 95.7971 47.0768 96.9942 46.4283C98.1731 45.6831 99.6944 45.5876 100.426 44.2024C99.7799 45.8073 98.3823 45.8455 97.1368 46.648C95.7186 47.3771 94.5791 48.5556 93.8947 50.0011C93.563 50.9992 93.2931 52.0169 93.0865 53.0485C93.9559 51.6982 95.2219 50.6532 96.7089 50.0584C97.7395 49.874 98.8009 49.9867 99.7704 50.3832C100.151 50.4963 100.544 50.5636 100.94 50.5838C99.913 50.8131 98.2872 49.8005 96.8801 50.2208C96.1058 50.4966 95.4015 50.9401 94.8169 51.52C93.9025 52.2494 93.1863 53.199 92.7347 54.2808C92.5731 54.9113 92.4019 55.5705 92.2783 56.2583V56.392C92.1565 56.9467 92.0676 57.5081 92.0121 58.0733C91.8682 59.284 91.8142 60.5038 91.8505 61.7226C92.0676 60.222 92.838 58.8582 94.0088 57.9014C95.53 56.7359 98.5534 56.3442 99.6278 54.682C99.1524 56.1723 95.4729 57.3377 94.1514 58.102C92.8957 59.2545 92.1098 60.8337 91.9456 62.5346C91.8505 63.1364 91.8125 63.4899 91.8125 63.4899C91.7079 64.1012 91.7459 64.77 91.6603 65.0852C91.6603 65.0852 91.3086 66.6805 91.204 67.2919C91.932 65.9295 92.9755 64.7631 94.2464 63.8911C94.8235 63.4311 95.4641 63.0579 96.148 62.7829C96.8207 62.5217 97.4254 62.1101 97.9164 61.5793C97.5456 62.3531 96.4713 62.8403 95.3779 63.4039C95.0207 63.589 94.683 63.8098 94.37 64.063C92.7743 65.2551 91.5585 66.8883 90.8712 68.7631C90.8684 68.7808 90.8606 68.7974 90.8489 68.8109C90.8371 68.8244 90.8218 68.8344 90.8047 68.8395C90.2437 70.4158 89.7493 72.0206 89.0457 73.616C90.0488 72.4965 91.1533 71.4731 92.3449 70.559C93.1416 70.0416 94.0459 69.7148 94.988 69.6038C95.5143 69.4794 96.018 69.2732 96.4808 68.9924C96.4808 69.1452 95.4254 69.7088 94.931 69.8044C94.0604 69.9197 93.2312 70.2477 92.516 70.7597C90.9416 71.9028 89.5446 73.2742 88.3707 74.8292C87.779 75.9822 87.0088 77.0334 86.0888 77.9435L85.6515 78.3256C87.2107 77.3703 89.1028 76.5105 90.1867 76.7398C91.9646 77.0169 92.2498 78.4593 93.6855 79.1758C92.3259 78.7077 91.6699 77.2652 90.1296 76.9977C88.5894 76.7303 84.9004 79.023 83.788 80.112C82.7506 81.0826 81.9642 82.2925 81.4966 83.637C81.1074 83.7469 80.7405 83.9247 80.4127 84.1625C82.1621 80.5228 83.6739 79.7108 85.3092 78.3352C86.8304 75.8323 87.496 74.6 86.4881 71.7627C85.642 69.5846 83.2555 68.7918 83.1319 68.6867C83.9187 68.8442 84.653 69.1993 85.2664 69.7187C85.8799 70.2382 86.3525 70.9052 86.6403 71.6576C87.591 74.3516 87.1442 75.7272 85.8797 77.8193L85.9652 77.7524C86.8222 76.9123 87.5467 75.9459 88.114 74.8865L88.1995 74.7337C88.4372 74.3038 88.6369 73.9026 88.8175 73.5491C89.2929 72.4887 89.6637 71.4093 90.025 70.3489C90.4338 68.3237 90.1771 65.9545 88.4087 64.6171C87.1727 63.5567 84.6627 63.5185 84.1017 62.1238C84.8813 63.3083 87.3724 63.3943 88.5608 64.4165C89.247 64.9919 89.7801 65.7297 90.112 66.5634C90.4439 67.3972 90.5643 68.3008 90.4624 69.193L90.8617 68.123C90.9948 67.1009 91.223 66.0787 91.3941 65.0565C91.185 60.4711 90.4434 58.6178 86.336 56.3729C87.8516 56.8396 89.1778 57.7832 90.1193 59.0645C91.0607 60.3459 91.5676 61.8972 91.5653 63.4899Z" fill="white"/>
<path d="M13.5548 27.3219C13.4597 27.0257 12.0811 28.3536 10.2841 27.2072C9.01959 26.4907 9.43793 25.2966 6.65216 24.0643C8.76288 22.8702 11.2729 25.2775 11.2729 25.2775C11.4536 24.8763 10.8546 23.8923 10.8451 23.9306C12.1761 24.1789 12.4138 25.0005 12.8607 25.3922C13.7842 25.2193 14.6618 24.8549 15.4373 24.3222C16.5449 23.7163 17.516 22.8869 18.2896 21.8862C18.9382 21.0312 19.3514 20.0198 19.4876 18.9535C20.7723 18.7514 21.9497 18.1144 22.8248 17.1479C21.9012 20.2581 20.0816 23.0237 17.5955 25.096C16.7579 26.0159 16.2349 27.1807 16.1028 28.4204C16.255 31.955 18.5273 29.9585 19.4781 32.041C19.3735 32.041 17.5765 31.4105 17.5005 31.8309C18.0948 32.0183 18.636 32.3459 19.0788 32.7861C19.4142 33.173 19.651 33.636 19.7686 34.1353C19.8862 34.6346 19.8811 35.1552 19.7538 35.652C19.345 34.6967 17.2057 34.8305 16.3215 33.9516C13.5738 31.4965 14.515 29.0414 14.515 29.0414C14.1157 28.9936 13.4882 31.3723 13.3646 32.0028C12.6515 35.0598 13.84 37.0945 14.5816 37.3143C15.038 37.5053 16.0458 37.3143 16.7018 37.5053C17.3579 37.6964 17.8523 37.9065 18.3372 39.0242C17.3008 38.2218 16.2359 38.3746 16.2074 38.709C17.0296 38.9658 17.8085 39.3458 18.5178 39.8362C18.8958 40.1198 19.1469 40.5421 19.2164 41.0109C19.2859 41.4798 19.168 41.9572 18.8886 42.3391C18.3181 41.231 16.8444 41.594 14.3819 40.6673C12.6706 40.056 12.4138 38.1836 11.9289 38.088C11.7103 38.088 11.4821 41.3647 12.7276 42.5875C14.0397 43.667 16.0933 43.5428 17.1582 45.0904C17.1582 45.0904 15.3137 44.6032 15.3042 45.0904C15.5073 45.4125 15.7573 45.7023 16.0458 45.9501C16.699 46.4406 17.4196 46.8332 18.185 47.1156C16.5592 47.9085 13.8305 46.7144 13.6308 46.5615C12.8209 45.9065 12.1127 45.1337 11.5296 44.2688C11.5296 44.2688 11.425 45.8833 11.4441 46.5615C11.5106 48.1569 11.3205 49.1599 12.0621 50.2108C12.5374 50.8986 13.1174 50.6693 13.7449 50.9177C14.2356 51.1547 14.68 51.4783 15.057 51.873C15.057 51.873 12.8037 51.3476 12.7561 51.7774C13.4224 51.9396 14.0517 52.2282 14.6101 52.6277C15.1533 53.2537 15.486 54.0359 15.5609 54.863C14.5055 54.3472 13.6594 54.3663 12.7086 53.9746C10.807 53.3059 10.6074 51.3953 10.2841 51.3284C10.2841 51.3284 9.99888 55.3694 10.7595 56.7927C12.5565 59.9452 13.821 57.108 15.713 58.4454C15.5989 58.4454 13.8115 58.9517 13.9826 59.2192C14.7052 59.1806 15.4289 59.2679 16.1219 59.4771C16.5775 59.588 16.9926 59.8263 17.3191 60.1644C17.6455 60.5026 17.8699 60.9267 17.9664 61.3877C17.1297 60.7381 15.4373 61.7889 13.3266 61.4641C12.4557 61.2398 11.6574 60.7929 11.0093 60.1669C10.3612 59.5408 9.88538 58.7569 9.62808 57.8913C9.45694 57.9678 10.4648 65.0847 14.2013 64.6739C14.6957 64.6166 15.3327 63.8619 16.312 63.7186C16.8254 63.6231 17.6526 63.6613 17.7382 63.8906C17.7382 63.8906 16.5307 64.7217 16.7874 65.0561C17.3002 64.7925 17.8788 64.6862 18.4512 64.7504C18.8894 64.8638 19.2791 65.1169 19.562 65.4717C19.8448 65.8265 20.0055 66.2639 20.02 66.7183C18.9932 66.0687 17.6906 66.9093 15.1235 67.3774C13.0414 67.5971 12.2047 66.0973 11.7293 66.2311C11.5296 66.3266 13.3741 68.8963 15.0665 69.3071C16.7589 69.7179 18.3562 67.8646 20.058 68.7053C19.4829 69.1301 18.8398 69.4531 18.1565 69.6606C18.1565 70.0331 20.8282 69.1161 21.817 71.4852C20.8856 71.2419 19.927 71.1199 18.9647 71.1222C18.0139 71.1222 17.1582 71.5998 16.3976 71.5521C15.8295 71.4891 15.2728 71.3477 14.7432 71.1317C14.5816 71.2941 16.255 72.7749 17.2438 73.3289C18.0436 73.834 18.9558 74.1315 19.8984 74.1949C20.841 74.2583 21.7845 74.0854 22.6441 73.6919C22.9484 75.4879 20.7426 75.2777 20.7426 75.7554C21.187 76.0725 21.6653 76.3384 22.1688 76.5483C22.7333 77.0204 23.1795 77.6192 23.4713 78.2965C22.8948 78.3533 22.3129 78.3113 21.7504 78.1723C21.2568 78.0451 20.771 77.8888 20.2957 77.7042C19.9725 77.9334 21.1039 79.2327 21.1039 79.2327C21.1039 79.2327 18.6699 79.1753 18.0234 77.8093C17.5905 76.6184 16.964 75.5079 16.1694 74.523C15.8461 74.2269 14.0302 72.6984 14.0016 72.708C13.5643 72.708 15.2757 74.8574 13.8685 77.7137C13.0794 79.3377 12.1096 80.379 12.9178 82.0699C12.3522 81.8476 11.8721 81.4498 11.5472 80.9343C11.2223 80.4189 11.0696 79.8127 11.1113 79.204C11.0542 77.9526 12.1191 77.2934 11.6342 77.0928C11.4726 77.0928 11.406 77.1883 11.1208 77.4271C10.7861 77.7267 10.3799 77.934 9.94183 78.029C10.2835 77.2182 10.7557 76.4694 11.3395 75.8127C12.2047 75.2204 12.642 73.6919 12.0145 71.9915C11.8814 71.6667 10.5884 68.0557 10.6644 68.027C10.3982 69.4982 11.1873 70.3771 10.2936 72.0966C9.39989 73.8161 8.67731 73.2334 8.09734 75.4592C7.51711 74.6817 7.22159 73.7268 7.26066 72.7557C7.44549 71.9507 7.7881 71.1908 8.26848 70.5204C8.08783 70.0618 7.3177 71.2368 7.10853 71.2368C7.27967 68.2181 9.96085 69.9376 8.915 63.8428C8.75337 62.5341 8.58223 61.703 8.58223 61.703C8.14488 64.416 7.96423 64.9796 6.90887 65.8107C5.69188 66.766 5.00733 66.6418 4.32277 67.7213C4.38933 66.852 4.1041 66.5559 4.18967 65.9445C4.31327 65.1325 5.24502 64.3587 5.80598 63.6995C6.02575 63.4365 6.18195 63.1258 6.26235 62.792C5.69188 62.1328 5.02634 63.1646 4.78865 63.241C5.4637 60.6235 6.96592 61.5024 7.72654 58.1206C7.80635 57.7073 7.86034 57.2893 7.88817 56.8692C7.51737 56.9647 7.35574 57.3086 5.98662 58.0251C4.42736 58.6556 3.90443 59.2287 2.82055 61.0534C2.43074 60.2509 1.81274 59.0186 2.29763 58.1875C2.82584 57.6534 3.48 57.2623 4.19917 57.0507C4.05656 56.7354 3.39102 56.6399 2.51631 56.8596C2.51631 56.5253 3.91394 55.9043 5.11191 56.2005C6.58561 56.1145 8.32552 53.7262 8.40158 52.9811C7.3502 53.9431 6.01471 54.5335 4.5985 54.6624C3.16283 54.6624 2.36418 53.9746 1.29932 53.5161C0.918772 53.3947 0.518267 53.3492 0.120361 53.3823C0.966548 52.6659 1.91732 52.0927 2.69695 52.3602C3.47659 52.6277 4.02803 52.8092 4.06606 52.4748C3.89612 52.3685 3.71809 52.2759 3.53363 52.1978C3.33956 52.1037 3.13023 52.0454 2.91563 52.0258C4.16114 51.0705 5.38764 52.4461 5.89155 52.1882C7.23213 51.8443 9.58054 49.2555 10.0464 45.0617C9.39989 47.2493 3.03923 49.0071 2.24058 50.9177C2.03246 49.6767 2.29359 48.4023 2.97268 47.3449C3.54314 46.2558 5.82499 45.5011 5.82499 45.5011C5.74893 44.7465 3.48609 45.5011 2.72548 46.0839C4.68407 42.4729 8.47765 45.3387 9.62808 41.6131C9.89582 40.8899 10.0155 40.1198 9.97987 39.349C9.32988 40.198 8.54244 40.931 7.65047 41.5176C5.92958 42.4729 4.87422 42.234 3.92345 43.4281C3.2484 40.9444 5.03585 39.607 6.9469 38.8905C6.26302 38.5627 5.48847 38.4784 4.75062 38.6517C5.89155 36.6551 8.43962 39.8649 10.6264 34.1045C10.7877 33.5298 11.0734 32.9981 11.4631 32.5473C10.8736 32.6811 9.7707 34.8974 7.93571 35.1171C6.39546 35.3368 5.98662 34.9451 4.88373 35.6043C4.91701 34.7207 5.24902 33.875 5.82499 33.2065C7.061 32.0983 7.98324 32.2512 8.76288 31.9359C8.40158 31.3723 6.44299 32.2034 6.44299 32.2034C7.61244 30.1304 9.50448 30.7418 11.0637 29.882C12.0671 29.2148 12.9192 28.3424 13.5643 27.3219" fill="#4B1700"/>
<path d="M10.9114 39.923C10.8829 40.3206 10.8829 40.7196 10.9114 41.1172C11.016 42.5259 11.016 43.9404 10.9114 45.3491C10.8639 45.9987 10.7878 46.6006 10.7023 47.1737C10.4075 53.5742 12.9841 51.9502 15.2945 54.348C12.889 52.3515 10.341 53.2876 10.4455 48.4347C9.65641 52.3132 8.35385 56.5261 12.2045 59.5926C14.03 60.9969 15.8935 59.5926 17.196 60.7103C15.5132 59.755 14.2772 61.1593 12.0619 59.755C9.65641 57.8444 9.32364 56.0389 9.20954 53.6602C9.0409 54.7858 8.95826 55.9228 8.96234 57.0611V57.4527C8.96234 57.854 8.96234 58.217 9.0289 58.5322C9.1707 59.6722 9.37063 60.8041 9.62788 61.9235C10.36 63.8341 11.8147 65.7447 14.0395 65.9644C15.6178 66.2128 17.7855 65.1238 19.1356 65.7925C17.776 65.3244 15.5322 66.4612 14.0014 66.2224C13.1182 66.0873 12.2819 65.7349 11.5669 65.1965C10.852 64.6582 10.2806 63.9506 9.90361 63.1367C9.98918 63.5093 10.0557 63.8819 10.1413 64.2544C10.5216 65.1524 10.8163 66.0886 11.1586 67.0057C12.2045 68.4769 13.6401 69.948 15.3515 70.3015C17.0629 70.6549 19.6205 69.8907 20.7805 70.7314C19.3733 70.034 16.9774 70.8938 15.304 70.5498C13.7711 70.1282 12.4286 69.1908 11.5009 67.8941C11.653 68.2762 11.9858 68.8494 11.9858 68.8494C12.1094 69.0787 12.252 69.2889 12.3946 69.5086C13.5656 71.0194 14.9235 72.3741 16.4354 73.5399C17.9201 74.594 19.7535 75.0288 21.5506 74.7532C21.0086 74.9729 19.8107 75.3168 17.6049 74.4475C18.9455 75.4028 22.3587 77.4471 22.1781 77.3802C20.5702 76.5746 19.0142 75.6685 17.5193 74.6672C18.1396 75.9983 18.8981 77.2599 19.7821 78.431C19.0215 77.9629 17.8235 75.5651 17.2151 74.4952C17.0059 74.3137 16.483 73.9029 16.2643 73.7596C14.8205 72.6436 13.5122 71.3611 12.3661 69.9385C12.3661 70.0435 13.6972 74.094 13.5641 75.6702C13.3644 77.6381 11.8147 78.603 12.0524 80.5614C11.5104 78.9947 13.1077 77.5999 13.3074 75.6511C13.507 73.7023 12.1379 70.1582 11.7291 68.9641C11.1038 67.7364 10.5822 66.4582 10.1698 65.1429C10.2243 66.6757 10.1416 68.2103 9.92262 69.7283C9.78826 70.5621 9.49791 71.3627 9.06693 72.0879C8.55901 72.7071 8.20101 73.4364 8.02108 74.2182C8.1218 73.3892 8.45111 72.605 8.97185 71.9541C9.38288 71.2161 9.64764 70.4051 9.75148 69.5659C9.93542 67.9967 10.0148 66.417 9.98918 64.8372C9.92262 64.7034 9.79902 63.8819 9.72296 63.5762C9.32399 61.9823 9.00665 60.3689 8.77219 58.7424C8.33483 60.9873 7.10834 64.3786 6.11002 65.2766C5.11171 66.1746 5.15925 66.0313 4.82648 66.528C5.07601 66.0123 5.44038 65.5612 5.89135 65.2097C6.24253 64.8359 6.54014 64.4147 6.77556 63.9583C7.73287 61.9088 8.37407 59.7248 8.67711 57.4814C8.64825 56.4158 8.69591 55.3494 8.81973 54.2907C8.12304 55.4711 7.14222 56.4566 5.96741 57.1566C4.81697 57.9304 3.30524 58.1119 2.61118 59.4875C3.19115 57.8157 4.59829 57.7584 5.82479 56.8891C7.22006 56.1196 8.32559 54.9115 8.97185 53.45C9.27265 52.4431 9.51394 51.4191 9.69444 50.3835C8.85665 51.7567 7.61844 52.8373 6.14805 53.4787C5.1244 53.6832 4.0643 53.5972 3.08657 53.2303C2.70284 53.1386 2.31122 53.0842 1.91711 53.0679C2.92493 52.81 4.58879 53.7844 5.97692 53.3163C6.74351 53.0202 7.43517 52.5569 8.00206 51.9598C8.90263 51.1936 9.59048 50.2063 9.99868 49.0939C10.1508 48.4538 10.3029 47.7947 10.4075 47.0973V46.9636C10.5065 46.4261 10.5795 45.8841 10.6262 45.3396C10.7307 44.1228 10.7497 42.9002 10.6832 41.6808C10.5157 43.1786 9.80081 44.5607 8.67711 45.5593C7.14637 46.763 4.13242 47.2502 3.10558 48.9315C3.54294 47.4317 7.1844 46.1611 8.47745 45.3587C9.7084 44.1683 10.4569 42.5619 10.5787 40.8497C10.6547 40.2383 10.6737 39.8944 10.6737 39.8944C10.7593 39.283 10.6737 38.6143 10.7878 38.2895C10.7878 38.2895 11.0921 36.6941 11.1776 36.0732C10.5026 37.4734 9.4973 38.6868 8.24926 39.6078C7.67399 40.0829 7.03355 40.4722 6.34772 40.7637C5.69617 41.042 5.11472 41.4631 4.64583 41.996C4.98811 41.2127 6.05298 40.6968 7.12735 40.0854C7.46365 39.8845 7.78179 39.6543 8.07812 39.3976C9.63458 38.1645 10.8034 36.5059 11.4439 34.6211C11.4461 34.6021 11.4535 34.584 11.4652 34.5688C11.4769 34.5537 11.4926 34.542 11.5104 34.5352C12.0143 32.9398 12.4612 31.3349 13.1267 29.7587C12.1413 30.9016 11.0528 31.9505 9.87508 32.8921C9.09499 33.4197 8.20284 33.7567 7.26997 33.876C6.75417 34.0247 6.26601 34.257 5.82479 34.5638C5.82479 34.411 6.85163 33.8187 7.34603 33.7136C8.21517 33.565 9.03467 33.2042 9.73247 32.6628C11.2706 31.4745 12.6258 30.0645 13.7542 28.4786C14.3062 27.3024 15.0411 26.2221 15.9315 25.2784L16.3594 24.8867C14.8286 25.842 12.9556 26.7973 11.8622 26.5967C10.0843 26.3674 9.76099 24.9344 8.2968 24.2657C9.67542 24.6956 10.379 26.1763 11.9192 26.3387C13.4595 26.5011 17.12 24.1607 18.2229 23.043C19.2325 22.0428 19.9833 20.8097 20.4097 19.451C20.7983 19.3333 21.1623 19.1456 21.484 18.897C19.8392 22.5844 18.356 23.4346 16.7302 24.8676C15.2755 27.4087 14.648 28.6888 15.7794 31.4591C16.6826 33.6085 19.0881 34.325 19.2212 34.4492C18.4267 34.318 17.6784 33.9862 17.0465 33.4849C16.4145 32.9837 15.9196 32.3293 15.6082 31.5833C14.5624 28.918 14.9902 27.5329 16.1882 25.4025L16.1026 25.4694C15.27 26.3498 14.5745 27.3514 14.0395 28.4404L13.9539 28.5932C13.7352 29.0231 13.5451 29.4339 13.3834 29.7969C12.9366 30.8668 12.5943 31.9559 12.2615 33.0258C11.9097 35.0606 12.2615 37.4297 14.0395 38.7576C15.304 39.7798 17.8426 39.7129 18.413 41.1267C17.6049 39.9708 15.1138 39.9517 13.8873 38.9582C13.1828 38.3935 12.6302 37.6605 12.2798 36.8263C11.9294 35.992 11.7924 35.0828 11.8812 34.1817C11.7576 34.5543 11.634 34.9077 11.5199 35.2708C11.4153 36.2929 11.2062 37.3151 11.0731 38.3468C11.4153 42.9227 12.1855 44.7473 16.3784 46.8776C14.8389 46.461 13.4751 45.5545 12.4912 44.2939C11.5074 43.0333 10.9565 41.4864 10.9209 39.8848" fill="white"/>
<path d="M88.8366 13.9473H14.0299V89.11H88.8366V13.9473Z" fill="#4B1700"/>
<path d="M88.1234 14.6641H14.7429V88.3938H88.1234V14.6641Z" fill="#D7CCBF"/>
<path d="M84.3585 18.4375H18.4891V84.6204H84.3585V18.4375Z" fill="#4B1700"/>
<path d="M83.674 19.1348H19.1832V83.9325H83.674V19.1348Z" fill="#EAE5D6"/>
<path d="M12.0431 51.5198C12.0431 43.6933 14.3526 36.0424 18.6796 29.5345C23.0066 23.0266 29.1569 17.9537 36.3529 14.9573C43.5489 11.9609 51.4675 11.1755 59.1078 12.7003C66.748 14.2251 73.7667 17.9917 79.2767 23.5239C84.7867 29.0561 88.5405 36.1055 90.0636 43.781C91.5868 51.4565 90.8108 59.4134 87.8338 66.6458C84.8568 73.8782 79.8124 80.0614 73.3385 84.4138C66.8645 88.7661 59.2515 91.0921 51.4621 91.0978C46.2868 91.1016 41.1616 90.0806 36.3792 88.0933C31.5969 86.106 27.2511 83.1913 23.5904 79.5158C19.9296 75.8403 17.0256 71.476 15.0442 66.6723C13.0629 61.8686 12.0431 56.7197 12.0431 51.5198Z" fill="#4B1700"/>
<path d="M12.6801 51.5198C12.6819 43.8226 14.9549 36.2987 19.2116 29.899C23.4683 23.4994 29.5177 18.5113 36.5951 15.5652C43.6726 12.6192 51.4605 11.8474 58.9744 13.3475C66.4883 14.8475 73.391 18.552 78.81 23.9928C84.229 29.4336 87.9211 36.3664 89.4195 43.915C90.918 51.4636 90.1556 59.289 87.2287 66.4024C84.3018 73.5157 79.3418 79.5975 72.9756 83.8792C66.6094 88.1609 59.1228 90.4502 51.462 90.4577C46.3701 90.4627 41.3271 89.4592 36.6215 87.5045C31.9158 85.5499 27.6398 82.6824 24.038 79.066C20.4361 75.4497 17.579 71.1554 15.6302 66.4288C13.6813 61.7022 12.6788 56.636 12.6801 51.5198Z" fill="#D7CCBF"/>
<path d="M16.4735 51.3004C16.5096 43.7006 19.0065 36.319 23.5871 30.2711C28.1676 24.2231 34.5828 19.8375 41.8633 17.7767C49.1438 15.7159 56.8941 16.092 63.9431 18.8482C70.9921 21.6044 76.9568 26.5909 80.9358 33.0543C83.5414 36.9501 85.3396 41.3331 86.2232 45.9421C87.1068 50.5511 87.0577 55.2917 86.079 59.8812C85.1002 64.4707 83.2117 68.8153 80.5262 72.6558C77.8406 76.4964 74.4129 79.7543 70.4474 82.2354C66.4819 84.7165 62.0598 86.3699 57.4447 87.0972C52.8296 87.8244 48.1161 87.6106 43.585 86.4683C39.054 85.3261 34.7982 83.279 31.0714 80.4489C27.3446 77.6188 24.2231 74.0637 21.8929 69.9956C18.3489 64.4107 16.4685 57.9239 16.4735 51.3004Z" fill="#4B1700"/>
<path d="M17.3098 51.5192C17.3117 44.7398 19.3139 38.1131 23.0633 32.4767C26.8126 26.8404 32.1409 22.4474 38.3746 19.853C44.6083 17.2586 51.4676 16.5794 58.0855 17.901C64.7033 19.2227 70.7826 22.486 75.555 27.2784C80.3274 32.0709 83.5786 38.1773 84.8977 44.8259C86.2168 51.4745 85.5446 58.3668 82.966 64.6316C80.3874 70.8965 76.0182 76.2525 70.4106 80.0229C64.803 83.7933 58.2088 85.8087 51.4615 85.8143C46.9788 85.8156 42.5398 84.9294 38.398 83.2063C34.2563 81.4833 30.493 78.9572 27.3233 75.7723C24.1535 72.5875 21.6394 68.8063 19.9245 64.6449C18.2096 60.4834 17.3276 56.0233 17.3288 51.5192" fill="white"/>
<path fill-rule="evenodd" clip-rule="evenodd" d="M18.4985 51.5194C18.5004 44.9762 20.4329 38.5804 24.0517 33.1404C27.6705 27.7004 32.8132 23.4604 38.8297 20.9564C44.8462 18.4525 51.4665 17.7968 57.8538 19.0724C64.2411 20.348 70.1087 23.4976 74.7149 28.123C79.3211 32.7485 82.4591 38.6421 83.7324 45.0591C85.0056 51.4761 84.3569 58.1283 81.8682 64.1749C79.3796 70.2215 75.1627 75.3911 69.7506 79.0303C64.3384 82.6694 57.974 84.6148 51.4618 84.6205C47.1332 84.6255 42.8461 83.7729 38.8458 82.1114C34.8455 80.4499 31.2105 78.0122 28.1488 74.9378C25.0872 71.8633 22.6589 68.2124 21.003 64.194C19.3471 60.1757 18.496 55.8686 18.4985 51.5194Z" fill="#4B1700"/>
<path d="M19.8772 51.5196C19.8772 45.2476 21.728 39.1164 25.1956 33.9012C28.6633 28.6859 33.592 24.6208 39.3588 22.2198C45.1255 19.8187 51.4714 19.1895 57.594 20.4117C63.7166 21.634 69.3411 24.6527 73.7563 29.0863C78.1716 33.52 81.1795 39.1694 82.3996 45.3204C83.6197 51.4714 82.9973 57.8478 80.6111 63.6435C78.2249 69.4391 74.182 74.3938 68.9935 77.881C63.8051 81.3683 57.7041 83.2316 51.4618 83.2354C47.3162 83.2367 43.211 82.4172 39.3807 80.8237C35.5504 79.2303 32.0702 76.8942 29.1388 73.9488C26.2074 71.0035 23.8823 67.5067 22.2965 63.6582C20.7106 59.8097 19.895 55.6849 19.8962 51.5196" fill="#EAE5D6"/>
<path d="M80.6313 73.5582L81.1922 73.9977L80.7549 74.5708L80.1844 74.1219L80.6313 73.5582ZM81.8007 71.9056L82.3807 72.3259L81.9718 72.9182L81.3824 72.4979L81.8007 71.9056ZM82.8371 70.1765L83.4551 70.5299L83.1033 71.1604L82.4758 70.7974L82.8371 70.1765ZM83.7878 68.3996L84.4343 68.734L84.1016 69.374L83.4646 69.0492L83.7878 68.3996ZM84.672 66.5846L85.3186 66.8807L85.0238 67.5399L84.4248 67.3106L84.672 66.5846ZM85.4422 64.674L86.1172 64.9319L85.851 65.6102L85.1855 65.3427L85.4422 64.674ZM86.1172 62.7634L86.8018 62.9927L86.5736 63.6805L85.9366 63.4894L86.1172 62.7634ZM86.6877 60.8528L87.3817 61.0534L87.1821 61.7412L86.5451 61.5788L86.6877 60.8528ZM87.1535 58.8849L87.8476 59.0473L87.686 59.7542L87.0395 59.6682L87.1535 58.8849ZM87.5909 56.9361L88.2945 57.0603L88.1709 57.7672L87.4673 57.643L87.5909 56.9361ZM87.7811 54.8917L88.4941 54.9491L88.4371 55.6655L87.724 55.6178L87.7811 54.8917ZM87.9047 52.8761H88.6272V53.6021H87.9047V52.8761ZM87.9047 50.8604H88.6272V51.5769H87.9047V50.8604ZM87.8191 48.8352L88.5322 48.7778L88.5892 49.5039H87.8761L87.8191 48.8352ZM87.6194 46.8195L88.3325 46.7335L88.4181 47.45L87.705 47.536L87.6194 46.8195ZM87.3057 44.8229L88.0188 44.6987L88.1424 45.4056L87.4388 45.5394L87.3057 44.8229ZM86.8968 42.8455L87.5909 42.6831L87.7525 43.39L87.0585 43.5524L86.8968 42.8455ZM86.3644 40.9349L87.0585 40.7343L87.2581 41.4316L86.5641 41.6227L86.3644 40.9349ZM85.7369 39.0243L86.4215 38.795L86.6496 39.4733L85.9651 39.7025L85.7369 39.0243ZM85.0048 37.1137L85.6703 36.8462L85.9366 37.5149L85.271 37.7824L85.0048 37.1137ZM84.1491 35.2795L84.7956 34.9452L85.1189 35.5948L84.4819 35.9196L84.1491 35.2795ZM83.1983 33.4931L83.8259 33.1301L84.1776 33.7606L83.5596 34.114L83.1983 33.4931ZM82.1905 31.7736L82.7895 31.3819L83.1793 31.9837L82.5803 32.3754L82.1905 31.7736ZM81.0591 30.1018L81.6391 29.6815L82.0574 30.2642L81.4774 30.6845L81.0591 30.1018ZM79.8421 28.4874L80.4031 28.0384L80.8499 28.6115L80.2795 29.051L79.8421 28.4874ZM78.5301 26.9493L79.072 26.4812L79.5474 27.0257L79.0054 27.4938L78.5301 26.9493ZM77.1324 25.4782L77.6458 24.9814L78.1497 25.5068L77.6268 26.0036L77.1324 25.4782ZM75.6587 24.1025L76.1817 23.558L76.7236 24.0357L76.2577 24.5802L75.6587 24.1025ZM74.1185 22.8033L74.5558 22.2397L75.1263 22.6791L74.6794 23.2523L74.1185 22.8033ZM72.5022 21.5901L72.9205 20.9978L73.51 21.4182L73.0917 22.0104L72.5022 21.5901ZM70.8478 20.5011L71.2377 19.8992L71.8461 20.2814L71.4563 20.8927L70.8478 20.5011ZM69.1174 19.4694L69.4787 18.8484L70.0967 19.2019L69.7449 19.8324L69.1174 19.4694ZM67.3395 18.5141L67.6628 17.874L68.2998 18.1988L67.9765 18.8389L67.3395 18.5141ZM65.5045 17.6352L65.7992 16.9856L66.4553 17.2817L66.1605 17.9409L65.5045 17.6352ZM63.603 16.9187L63.8311 16.2405L64.5157 16.4697L64.2875 17.148L63.603 16.9187ZM61.7014 16.2978L61.8916 15.61L62.5856 15.801L62.386 16.4984L61.7014 16.2978ZM59.7523 15.7915L59.914 15.0845L60.608 15.2469L60.4464 15.9539L59.7523 15.7915ZM57.7842 15.3807L57.9078 14.6738L58.6114 14.798L58.4878 15.5144L57.7842 15.3807ZM55.7876 15.0845L55.8827 14.3681L56.5958 14.4636L56.5007 15.1801L55.7876 15.0845ZM53.7815 14.903L53.8385 14.1866L54.5516 14.2343V14.9604L53.7815 14.903ZM51.7754 14.8266V14.1006H52.4884V14.8266H51.7754ZM49.7597 14.8266V14.1101H50.4823V14.8266H49.7597ZM47.7536 14.9699L47.6966 14.2534L48.4191 14.1961V14.9126L47.7536 14.9699ZM45.757 15.2278L45.6619 14.5114L46.375 14.4158L46.4701 15.1323L45.757 15.2278ZM43.7794 15.5813L43.6463 14.8744L44.3593 14.7502L44.4829 15.4571L43.7794 15.5813ZM41.8208 16.0781L41.6306 15.3807L42.3152 15.1896L42.5149 15.8774L41.8208 16.0781ZM39.9192 16.6608L39.6816 15.9825L40.3661 15.7437L40.5943 16.4315L39.9192 16.6608ZM38.0177 17.3486L37.7515 16.6799L38.417 16.422L38.6832 17.0907L38.0177 17.3486ZM36.1162 18.1415L35.8214 17.4919L36.4775 17.1957L36.7722 17.8453L36.1162 18.1415ZM34.3097 19.0395L33.9864 18.3994L34.6235 18.0746L34.9467 18.7147L34.3097 19.0395ZM32.5603 19.9948L32.199 19.3738L32.8265 19.0108L33.1783 19.6318L32.5603 19.9948ZM30.9059 21.1698L30.5446 20.5584L31.1531 20.1667L31.543 20.7781L30.9059 21.1698ZM29.2801 22.3543L28.8333 21.7907L29.4037 21.3417L29.8411 21.9149L29.2801 22.3543ZM27.6923 23.6344L27.2169 23.0899L27.7589 22.6123L28.2343 23.1568L27.6923 23.6344ZM26.2281 24.991L25.7337 24.4656L26.2472 23.9688L26.7416 24.4847L26.2281 24.991ZM24.84 26.4239L24.3266 25.9272L24.821 25.4017L25.3439 25.8985L24.84 26.4239ZM23.5089 27.9333L22.967 27.4556L23.4329 26.9111L23.9748 27.3888L23.5089 27.9333ZM22.2444 29.5095L21.6454 29.0987L22.0923 28.5256L22.6532 28.9746L22.2444 29.5095ZM21.0369 31.1526L20.457 30.7419L20.8753 30.1496L21.4553 30.5699L21.0369 31.1526ZM19.9816 32.9199L19.3541 32.5665L19.7154 31.936L20.3334 32.299L19.9816 32.9199ZM19.0308 34.6968L18.3938 34.3624L18.7266 33.7224L19.3636 34.0472L19.0308 34.6968ZM18.1561 36.5118L17.5001 36.2157L17.7948 35.5565L18.4508 35.8527L18.1561 36.5118ZM17.3765 38.3747L16.7109 38.1167L16.9771 37.4385L17.6427 37.706L17.3765 38.3747ZM16.7014 40.2853L16.0264 40.0464L16.2546 39.3682L16.9391 39.5974L16.7014 40.2853ZM16.1405 42.1959L15.4464 41.9952L15.6461 41.3074L16.2831 41.5176L16.1405 42.1959ZM15.6746 44.1638L14.971 44.0014L15.1326 43.2944L15.8362 43.4568L15.6746 44.1638ZM15.3323 46.1317L14.6287 46.0075L14.7523 45.3006L15.4559 45.4248L15.3323 46.1317ZM15.1041 48.1474L14.3815 48.09L14.4386 47.3736H15.1517L15.1041 48.1474ZM14.9805 50.163H14.2579V49.4466H14.9805V50.163ZM14.9805 52.1883H14.2674V51.4718H14.9805V52.1883ZM15.0661 54.2039L14.353 54.2612L14.3055 53.5352H15.0186L15.0661 54.2039ZM15.2658 56.2196L14.5622 56.3056L14.4671 55.5891L15.1802 55.5031L15.2658 56.2196ZM15.5795 58.2162L14.8759 58.3404L14.7428 57.6334L15.4559 57.5093L15.5795 58.2162ZM15.9978 60.1936L15.2943 60.356L15.0756 59.6682L15.7792 59.5058L15.9978 60.1936ZM16.5208 62.1042L15.8362 62.3048L15.6366 61.6075L16.3306 61.4164L16.5208 62.1042ZM17.1483 64.0148L16.4732 64.2441L16.245 63.5658L16.9201 63.3366L17.1483 64.0148ZM17.8899 65.9254L17.2243 66.1929L16.9581 65.5242L17.6237 65.2567L17.8899 65.9254ZM18.7361 67.7596L18.099 68.0844L17.7758 67.4443L18.4128 67.1195L18.7361 67.7596ZM19.6868 69.546L19.0593 69.909L18.7075 69.2785L19.3255 68.925L19.6868 69.546ZM20.7232 71.2751L20.1242 71.6667L19.7344 71.0554L20.3334 70.6732L20.7232 71.2751ZM21.8546 72.9468L21.2746 73.3672L20.8563 72.7749L21.4363 72.3641L21.8546 72.9468ZM23.0716 74.5613L22.5106 75.0007L21.9877 74.4562L22.5582 74.0072L23.0716 74.5613ZM24.3836 76.0993L23.8417 76.5674L23.3663 76.0229L23.9083 75.5548L24.3836 76.0993ZM25.7623 77.5705L25.2488 78.0672L24.7544 77.5418L25.2679 77.0451L25.7623 77.5705ZM27.2455 78.9365L26.7701 79.4906L26.2281 79.013L26.694 78.4685L27.2455 78.9365ZM28.7857 80.2453L28.3389 80.8089L27.6923 80.3791L28.1297 79.8154L28.7857 80.2453ZM30.3925 81.4585L29.9742 82.0413L29.3372 81.64L29.746 81.0573L30.3925 81.4585ZM32.0088 82.5953L31.619 83.2067L31.02 82.8151L31.4003 82.2132L32.0088 82.5953ZM33.7392 83.6271L33.3779 84.2576L32.7599 83.8945L33.1212 83.2736L33.7392 83.6271ZM35.5267 84.5824L35.1939 85.2224L34.5569 84.8976L34.8802 84.2576L35.5267 84.5824ZM37.3522 85.423L37.0574 86.0822L36.4014 85.786L36.7056 85.1269L37.3522 85.423ZM39.2537 86.1395L39.0255 86.8177L38.3505 86.5885L38.5787 85.9102L39.2537 86.1395ZM41.1553 86.7604L40.9556 87.4482L40.271 87.2572L40.4612 86.5598L41.1553 86.7604ZM43.1043 87.2667L42.9427 87.9737L42.2391 87.8113L42.4008 87.1043L43.1043 87.2667ZM45.0724 87.6775L44.9488 88.3844L44.2358 88.2602L44.3689 87.5438L45.0724 87.6775ZM47.0595 87.9737L46.974 88.6806L46.2609 88.5946L46.356 87.8781L47.0595 87.9737ZM49.0657 88.1552L49.0086 88.8716L48.2955 88.8143L48.3526 88.0979L49.0657 88.1552ZM51.0813 88.2316V88.9481H50.3587V88.2316H51.0813ZM53.0874 88.2316V88.9576H52.3743V88.2316H53.0874ZM55.0936 88.0883L55.1506 88.8143H54.4375L54.3805 88.0979L55.0936 88.0883ZM57.0997 87.8399L57.1852 88.5564L56.4722 88.6424L56.3866 87.9354L57.0997 87.8399ZM59.0678 87.4196L59.1914 88.1361L58.4878 88.2602L58.3642 87.5533L59.0678 87.4196ZM61.0169 86.9324L61.2165 87.6202L60.5225 87.8208L60.3323 87.1234L61.0169 86.9324ZM62.9184 86.3401L63.1466 87.0279L62.4715 87.2572L62.2338 86.5694L62.9184 86.3401ZM64.8199 85.6523L65.0766 86.321L64.4111 86.5885L64.1544 85.9102L64.8199 85.6523ZM66.6739 84.8594L66.9687 85.509L66.3222 85.8147L66.0274 85.1555L66.6739 84.8594ZM68.4804 83.9614L68.8132 84.6015L68.1667 84.9358L67.8434 84.2862L68.4804 83.9614ZM70.2393 83.0061L70.5911 83.6366L69.9731 83.9901L69.6118 83.3691L70.2393 83.0061ZM71.9317 81.9171L72.3215 82.5285L71.713 82.9201L71.3327 82.3087L71.9317 81.9171ZM73.5765 80.6847L74.0234 81.2484L73.4529 81.6974L73.0156 81.1242L73.5765 80.6847ZM75.1453 79.4046L75.6112 79.9492L75.0693 80.4268L74.6034 79.8823L75.1453 79.4046ZM76.638 78.0481L77.1324 78.5735L76.6095 79.0703L76.1151 78.5449L76.638 78.0481ZM78.0832 76.6247L78.5966 77.1215L78.1022 77.6469L77.5888 77.1501L78.0832 76.6247ZM79.4048 75.1345L79.9467 75.6026L79.4713 76.1471L78.9294 75.679L79.4048 75.1345ZM79.4048 75.1345L79.9562 75.6026L79.4808 76.1471L78.9389 75.679L79.4048 75.1345Z" fill="#4B1700"/>
<path fill-rule="evenodd" clip-rule="evenodd" d="M69.84 58.3509C69.84 66.4327 66.0369 68.372 58.4878 68.372H34.0435L33.9294 68.0567L33.9865 67.9994C35.2084 66.7822 35.9079 65.133 35.9355 63.4044V41.2893C35.9239 40.3392 35.707 39.4029 35.2999 38.5452C34.8928 37.6875 34.3051 36.9289 33.5776 36.3218H68.6896V44.1361L67.1398 44.7379L67.0638 44.6424C65.2478 42.5694 64.5633 42.3688 62.6427 42.3688H43.6273V48.2821H58.2977C65.8373 48.2821 69.84 50.1927 69.84 58.3509ZM62.2339 58.2554C62.2339 55.8098 61.825 54.6539 57.8698 54.6539H43.6083V62.0001H57.5656C61.6539 62.0001 62.2053 61.0735 62.2053 58.2554H62.2339Z" fill="#4B1700"/>
<path fill-rule="evenodd" clip-rule="evenodd" d="M68.7848 56.7161C68.7848 64.798 64.9817 66.7372 57.4326 66.7372H32.5223C33.2516 66.131 33.841 65.3728 34.2498 64.515C34.6586 63.6573 34.8769 62.7206 34.8898 61.7697V39.6546C34.8769 38.7036 34.6586 37.7669 34.2498 36.9092C33.841 36.0515 33.2516 35.2932 32.5223 34.687H67.6248V43.1127C67.0466 42.3493 66.2957 41.7354 65.4343 41.3217C64.5728 40.9081 63.6257 40.7066 62.6713 40.734H42.5149V46.6473H57.2519C64.782 46.6473 68.7848 48.5579 68.7848 56.7161ZM61.1786 56.6206C61.1786 54.1751 60.7603 53.0192 56.8051 53.0192H42.5435V60.3654H56.5103C60.6081 60.3654 61.1596 59.4387 61.1596 56.6206H61.1786Z" fill="#4B1700"/>
<path d="M65.7236 64.4452C67.5301 63.0218 68.4238 60.624 68.4238 56.6786C68.4238 52.7333 67.473 50.2782 65.5715 48.8548C63.6699 47.4314 60.8842 46.9442 57.1857 46.9442H42.5153L42.173 46.6003V40.7347L42.5153 40.3908H62.6811C63.5334 40.3657 64.3819 40.5154 65.1747 40.8308C65.9676 41.1461 66.6881 41.6205 67.2924 42.225V35.0316H33.3974C33.8126 35.4684 34.1618 35.9641 34.4337 36.5028C34.9107 37.4711 35.1826 38.5282 35.2323 39.6075V61.7895C35.1836 62.8792 34.9083 63.9465 34.4242 64.9228C34.152 65.4475 33.8062 65.9301 33.3974 66.3558H57.4329C61.1504 66.3558 63.9266 65.8877 65.7426 64.4452H65.7236ZM69.1274 56.6786C69.1274 60.8342 68.1766 63.423 66.1609 64.9897C64.1453 66.5564 61.3025 67.0436 57.4329 67.0436H32.5226L32.3135 66.4418C32.9419 65.9177 33.4537 65.2668 33.8157 64.5312C34.2585 63.6386 34.508 62.6618 34.5478 61.6653V39.6553C34.508 38.6587 34.2585 37.682 33.8157 36.7894C33.4482 36.071 32.9367 35.4367 32.3135 34.9265L32.5226 34.3247H67.6251L67.9674 34.6686V43.0943L67.3684 43.3045C66.8637 42.665 66.2406 42.1298 65.5334 41.7283C64.652 41.2728 63.6722 41.043 62.6811 41.0595H42.9051V46.2946H57.2522C61.0553 46.2946 64.0407 46.7818 66.0469 48.3389C68.053 49.896 69.1274 52.5135 69.1274 56.7169V56.6786ZM60.694 53.6217C61.3786 54.3 61.5022 55.2744 61.5022 56.5831C61.5022 58.0925 61.3405 59.0955 60.5514 59.7642C59.7623 60.433 58.6499 60.7195 56.4631 60.7195H42.5153L42.173 60.3756V52.9816L42.5153 52.6377H56.7768C58.8685 52.6759 60.019 52.9816 60.694 53.6599V53.6217ZM60.8176 56.5831C60.9414 55.7117 60.7269 54.8258 60.2186 54.1089C59.6862 53.5835 58.6689 53.3256 56.7863 53.3256H42.9051V60.0126H56.5106C58.4692 60.0126 59.5626 59.8025 60.1426 59.2866C60.7225 58.7707 60.8176 57.9396 60.8176 56.6213V56.5831Z" fill="white"/>
</svg>
