<svg width="229" height="50" viewBox="0 0 229 50" fill="none" xmlns="http://www.w3.org/2000/svg">
<path d="M2.59998 43.06V50H4.25998V44.44H8.54998V43.06H2.59998Z" fill="#4B1600"/>
<path d="M13.7512 47.46V45.61C13.7512 44.62 14.0412 44.36 15.0812 44.36H17.2212C18.2112 44.36 18.5512 44.59 18.5512 45.6V47.45C18.5512 48.39 18.3112 48.62 17.2512 48.62H15.0512C14.0412 48.62 13.7512 48.37 13.7512 47.46ZM20.2112 47.63V45.45C20.2112 43.5 19.4212 42.98 17.7012 42.98H14.6512C12.7612 42.98 12.0912 43.55 12.0912 45.45V47.63C12.0912 49.31 12.7912 50 14.6512 50H17.7012C19.6412 50 20.2112 49.36 20.2112 47.63Z" fill="#4B1600"/>
<path d="M30.1514 47.6C30.1514 48.44 29.8114 48.62 28.8214 48.62H26.6914C25.7414 48.62 25.3514 48.42 25.3514 47.36V45.64C25.3514 44.55 25.5814 44.36 26.6914 44.36H28.8214C29.7814 44.36 30.1514 44.67 30.1514 45.4H31.8114C31.8114 43.45 30.7814 42.98 29.1414 42.98H26.3814C24.3414 42.98 23.6914 43.55 23.6914 45.58V47.55C23.6914 49.41 24.3014 50 26.2214 50H29.3114C31.3614 50 31.8114 49.45 31.8214 47.6H30.1514Z" fill="#4B1600"/>
<path d="M35.1529 43.06V44.44H38.0529V50H39.7129V44.44H42.6429V43.06H35.1529Z" fill="#4B1600"/>
<path d="M47.611 43.06H45.951V50H48.801L52.971 44.44H53.201V50H54.861V43.06H52.071L47.841 48.62H47.611V43.06Z" fill="#4B1600"/>
<path d="M60.1763 43.06H58.5163V50H60.1763V47.1H64.4663V50H66.1263V43.06H64.4663V45.72H60.1763V43.06Z" fill="#4B1600"/>
<path d="M71.4489 43.06H69.7889V50H72.6389L76.8089 44.44H77.0389V50H78.6989V43.06H75.9089L71.6789 48.62H71.4489V43.06Z" fill="#4B1600"/>
<path d="M83.9542 43.06H82.2942V44.84C82.2942 46.52 83.0942 47.3 84.8442 47.3H86.1042C86.9942 47.3 87.4742 47.1 87.9342 46.82V50H89.5942V43.06H87.9342V45.32C87.6242 45.78 87.2242 45.92 86.3842 45.92H85.2142C84.3242 45.92 83.9542 45.63 83.9542 44.66V43.06Z" fill="#4B1600"/>
<path d="M94.815 43.06H93.155V50H94.815V47.1H99.105V50H100.765V43.06H99.105V45.72H94.815V43.06Z" fill="#4B1600"/>
<path d="M104.438 43.06V50H109.168C110.818 50 111.638 49.58 111.638 47.83C111.638 46.06 110.768 45.65 109.128 45.65H106.098V43.06H104.438ZM106.098 47.03H109.028C109.888 47.03 109.978 47.28 109.978 47.81C109.978 48.42 109.858 48.62 108.968 48.62H106.098V47.03ZM114.938 43.06H113.278V50H114.938V43.06Z" fill="#4B1600"/>
<path d="M120.482 43.06H118.822V50H121.672L125.842 44.44H126.072V50H127.732V43.06H124.942L120.712 48.62H120.482V43.06ZM125.392 41.04H124.042C124.042 41.68 123.842 41.74 123.002 41.74C122.122 41.74 121.972 41.68 121.972 41.04H120.622V41.13C120.622 42.15 121.002 42.55 123.002 42.55C125.182 42.55 125.392 42.01 125.392 41.04Z" fill="#4B1600"/>
<path d="M139.094 43.06H137.434V50H139.094V47.03H140.104L143.314 50H145.754L141.504 46.31L145.594 43.06H143.104L140.074 45.65H139.094V43.06Z" fill="#4B1600"/>
<path d="M150.626 47.46V45.61C150.626 44.62 150.916 44.36 151.956 44.36H154.096C155.086 44.36 155.426 44.59 155.426 45.6V47.45C155.426 48.39 155.186 48.62 154.126 48.62H151.926C150.916 48.62 150.626 48.37 150.626 47.46ZM157.086 47.63V45.45C157.086 43.5 156.296 42.98 154.576 42.98H151.526C149.636 42.98 148.966 43.55 148.966 45.45V47.63C148.966 49.31 149.666 50 151.526 50H154.576C156.516 50 157.086 49.36 157.086 47.63Z" fill="#4B1600"/>
<path d="M160.776 43.06V50H162.436V44.44H162.656L165.036 50H167.396L169.776 44.44H169.996V50H171.656V43.06H168.566L166.266 48.62H166.166L163.866 43.06H160.776Z" fill="#4B1600"/>
<path d="M175.264 43.06V50H176.924V44.44H181.214V50H182.874V43.06H175.264Z" fill="#4B1600"/>
<path d="M187.067 43.06V47.29C187.067 48.3 186.907 48.62 186.057 48.62V50H186.757C187.997 50 188.727 49.26 188.727 47.48V44.44H192.627V50H194.287V43.06H187.067Z" fill="#4B1600"/>
<path d="M197.963 50H205.053V48.69H199.623V47.1H204.883V45.89H199.623V44.37H205.053V43.06H197.963V50Z" fill="#4B1600"/>
<path d="M210.403 43.06H208.743V50H210.403V47.03H211.413L214.623 50H217.063L212.813 46.31L216.903 43.06H214.413L211.383 45.65H210.403V43.06Z" fill="#4B1600"/>
<path d="M226.675 47.6C226.675 48.44 226.335 48.62 225.345 48.62H223.215C222.265 48.62 221.875 48.42 221.875 47.36V45.64C221.875 44.55 222.105 44.36 223.215 44.36H225.345C226.305 44.36 226.675 44.67 226.675 45.4H228.335C228.335 43.45 227.305 42.98 225.665 42.98H222.905C220.865 42.98 220.215 43.55 220.215 45.58V47.55C220.215 49.41 220.825 50 222.745 50H225.835C227.885 50 228.335 49.45 228.345 47.6H226.675Z" fill="#4B1600"/>
<path fill-rule="evenodd" clip-rule="evenodd" d="M23.2128 30.1103C23.2128 35.2846 20.8204 36.5286 15.9457 36.5286H0C0.465261 36.1408 0.841428 35.6564 1.10265 35.1086C1.36386 34.5609 1.50393 33.9628 1.51323 33.3555V19.1908C1.5048 18.5825 1.36513 17.9832 1.10389 17.4344C0.842639 16.8855 0.466022 16.4002 0 16.0117H22.4712V21.4204C22.0839 20.9514 21.5999 20.5725 21.0525 20.31C20.5052 20.0475 19.9076 19.9076 19.3012 19.8999H6.39385V23.686H15.8261C20.6529 23.686 23.2128 24.8879 23.2128 30.1283V30.1103ZM18.3262 30.0682C18.3262 28.5057 18.0631 27.7666 15.533 27.7666H6.39385V32.4661H15.3656C17.9733 32.4481 18.3262 31.8531 18.3262 30.0502V30.0682Z" fill="#4B1700"/>
<path fill-rule="evenodd" clip-rule="evenodd" d="M53.5611 36.5166H45.1217C45.4755 36.3144 45.7364 35.9808 45.8482 35.5876C45.96 35.1943 45.9139 34.7727 45.7198 34.4132L44.1647 31.3483H32.0589L30.432 34.5153C30.2655 34.8638 30.2345 35.2622 30.3451 35.6324C30.4558 36.0026 30.7001 36.3179 31.0301 36.5166H22.6565C23.135 36.3062 24.092 35.5851 25.2164 33.6319L33.0637 18.8362C33.8951 17.0634 33.5362 16.6788 32.7228 16.0117H41.7902L50.9054 33.4396C52.1017 35.543 53.0886 36.3062 53.585 36.5226L53.5611 36.5166ZM42.2208 27.5081H34.0266L38.0579 19.8819H38.2912L42.2208 27.5081Z" fill="#4B1700"/>
<path d="M82.755 16.012H90.1478C89.3762 16.649 88.9934 17.5805 88.8857 19.0168V36.5288H55.2298V19.2392C55.1461 17.6827 54.7633 16.6791 53.9498 16.012H61.3724C60.5889 16.655 60.1762 17.6106 60.1044 19.0829V32.4483H69.6085V19.2272C69.5247 17.6707 69.1479 16.6671 68.3345 16H75.7571C74.9796 16.637 74.6027 17.5685 74.4951 19.0048V32.4483H83.9931V18.8365C83.8675 17.5024 83.4907 16.619 82.7491 16.012" fill="#4B1700"/>
<path d="M108.163 16.0117H117.135L105.101 25.6271L117.607 36.5406H111.518C111.09 36.5287 110.669 36.4256 110.284 36.2381C109.898 36.0505 109.557 35.7829 109.282 35.4528L101.739 28.4276C101.169 27.9985 100.478 27.7609 99.7655 27.7485H98.0369V33.3254C98.0428 33.9368 98.1812 34.5396 98.4425 35.0917C98.7039 35.6439 99.0819 36.1322 99.5502 36.5226H91.6371C92.1085 36.1295 92.4883 35.6374 92.7498 35.0808C93.0112 34.5243 93.148 33.9168 93.1503 33.3014V19.0346C93.0427 17.5922 92.6659 16.6307 91.8883 16.0297H99.287C98.5394 16.6307 98.1566 17.5322 98.0369 18.8783V23.686H99.7475C100.479 23.6641 101.185 23.4095 101.763 22.9588L108.014 17.5922C108.492 17.0334 108.767 16.3903 108.163 16.0297" fill="#4B1700"/>
<path d="M147.513 36.5837C147.94 36.2316 148.292 35.796 148.547 35.3033C148.802 34.8105 148.955 34.2709 148.996 33.7172V19.2941C148.913 17.7376 148.536 16.74 147.722 16.0669H164.2C169.35 16.0669 171.378 18.0741 171.378 23.2784C171.378 28.4828 169.29 30.5501 164.26 30.5501H153.883V33.4948C153.9 34.0879 154.044 34.6704 154.304 35.2032C154.564 35.736 154.934 36.2067 155.39 36.5837H147.513ZM166.497 23.2544C166.497 21.2412 165.899 20.1474 163.321 20.1474H153.883V26.4155H163.321C165.791 26.4155 166.497 25.4419 166.497 23.2244V23.2544Z" fill="#4B1700"/>
<path d="M166 0L168.14 4.05518L172.657 4.83688L169.462 8.12482L170.114 12.6631L166 10.64L161.886 12.6631L162.538 8.12482L159.343 4.83688L163.86 4.05518L166 0Z" fill="#4B1600"/>
<path d="M184 0L186.14 4.05518L190.657 4.83688L187.462 8.12482L188.114 12.6631L184 10.64L179.886 12.6631L180.538 8.12482L177.343 4.83688L181.86 4.05518L184 0Z" fill="#4B1600"/>
<path d="M202 0L204.14 4.05518L208.657 4.83688L205.462 8.12482L206.114 12.6631L202 10.64L197.886 12.6631L198.538 8.12482L195.343 4.83688L199.86 4.05518L202 0Z" fill="#4B1600"/>
<path d="M220 0L222.14 4.05518L226.657 4.83688L223.462 8.12482L224.114 12.6631L220 10.64L215.886 12.6631L216.538 8.12482L213.343 4.83688L217.86 4.05518L220 0Z" fill="#4B1600"/>
<path d="M137.854 36.5849C138.287 36.2217 138.643 35.7741 138.9 35.2691C139.157 34.7641 139.31 34.2121 139.349 33.6462V21.3926L124.767 35.7496C124.214 36.2389 123.516 36.5323 122.781 36.5849H119.898V18.9106C119.779 17.5405 119.402 16.639 118.648 16.02H125.772C125.184 16.5152 124.785 17.1986 124.641 17.9551V31.1763L140.126 16.02H145.324C144.947 16.3598 144.644 16.7733 144.432 17.2353C144.22 17.6972 144.104 18.1978 144.092 18.7063V33.3518C144.096 33.9693 144.234 34.5786 144.496 35.137C144.758 35.6954 145.139 36.1896 145.611 36.5849H137.854Z" fill="#4B1700"/>
<path d="M192.031 36.5849C192.465 36.2233 192.822 35.7759 193.078 35.2705C193.334 34.7651 193.485 34.2123 193.52 33.6462V21.3926L178.944 35.7496C178.387 36.2405 177.685 36.534 176.946 36.5849H174.063V18.9106C173.944 17.5405 173.561 16.639 172.807 16.02H179.931C179.348 16.5164 178.955 17.2002 178.818 17.9551V31.1763L194.315 16.02H199.507C199.131 16.3607 198.829 16.7744 198.617 17.2362C198.405 17.6979 198.289 18.1981 198.275 18.7063V33.3518C198.276 33.9692 198.411 34.579 198.673 35.1378C198.934 35.6966 199.315 36.1906 199.788 36.5849H192.031Z" fill="#4B1700"/>
<path d="M219.544 36.5829C220.008 36.1946 220.383 35.7099 220.643 35.1622C220.904 34.6145 221.043 34.0167 221.051 33.4099V30.0505H213.192L208.311 36.5829H201.224C201.986 36.2842 202.655 35.7862 203.162 35.1406L207.947 29.4375C205.626 28.9026 203.449 26.4327 203.449 23.2897C203.449 17.4663 206.481 16.0781 210.716 16.0781H227.23C226.434 16.7332 226.034 17.7067 225.962 19.2151V33.6923C226.002 34.2505 226.154 34.7946 226.41 35.2916C226.667 35.7885 227.021 36.2279 227.451 36.5829H221.051H219.544ZM221.051 26.1803V19.9123H211.105C208.927 19.9123 208.305 20.8858 208.305 23.0433C208.305 25.2007 209.191 26.1803 211.248 26.1803H221.051Z" fill="#4B1700"/>
</svg>
