<svg width="952" height="650" viewBox="0 0 952 650" fill="none" xmlns="http://www.w3.org/2000/svg">
<rect x="10" y="2" width="940" height="646" fill="white" stroke="#E0E0E0" stroke-width="4"/>
<circle cx="916" cy="111" r="12" transform="rotate(-180 916 111)" fill="#C4C4C4"/>
<circle cx="916" cy="78" r="12" transform="rotate(-180 916 78)" fill="#C4C4C4"/>
<rect x="893" y="123" width="40" height="57" transform="rotate(-180 893 123)" fill="#BDBDBD"/>
<circle cx="323.641" cy="51.993" r="12" transform="rotate(38.4026 323.641 51.993)" fill="#C4C4C4"/>
<circle cx="298.794" cy="83.3396" r="12" transform="rotate(38.4026 298.794 83.3396)" fill="#C4C4C4"/>
<rect x="349.254" y="51.8779" width="72" height="72" transform="rotate(38.4026 349.254 51.8779)" fill="#BDBDBD"/>
<circle cx="411.411" cy="121.565" r="12" transform="rotate(38.4026 411.411 121.565)" fill="#C4C4C4"/>
<circle cx="386.563" cy="152.912" r="12" transform="rotate(38.4026 386.563 152.912)" fill="#C4C4C4"/>
<circle cx="278.917" cy="108.417" r="12" transform="rotate(38.4026 278.917 108.417)" fill="#C4C4C4"/>
<circle cx="254.069" cy="139.763" r="12" transform="rotate(38.4026 254.069 139.763)" fill="#C4C4C4"/>
<rect x="304.529" y="108.302" width="72" height="72" transform="rotate(38.4026 304.529 108.302)" fill="#BDBDBD"/>
<circle cx="366.686" cy="177.989" r="12" transform="rotate(38.4026 366.686 177.989)" fill="#C4C4C4"/>
<circle cx="341.838" cy="209.336" r="12" transform="rotate(38.4026 341.838 209.336)" fill="#C4C4C4"/>
<circle cx="234.19" cy="164.841" r="12" transform="rotate(38.4026 234.19 164.841)" fill="#C4C4C4"/>
<circle cx="209.342" cy="196.187" r="12" transform="rotate(38.4026 209.342 196.187)" fill="#C4C4C4"/>
<rect x="259.803" y="164.726" width="72" height="72" transform="rotate(38.4026 259.803 164.726)" fill="#BDBDBD"/>
<circle cx="321.96" cy="234.413" r="12" transform="rotate(38.4026 321.96 234.413)" fill="#C4C4C4"/>
<circle cx="297.112" cy="265.76" r="12" transform="rotate(38.4026 297.112 265.76)" fill="#C4C4C4"/>
<circle cx="133.641" cy="51.993" r="12" transform="rotate(38.4026 133.641 51.993)" fill="#C4C4C4"/>
<circle cx="108.794" cy="83.3396" r="12" transform="rotate(38.4026 108.794 83.3396)" fill="#C4C4C4"/>
<rect x="159.254" y="51.8779" width="72" height="72" transform="rotate(38.4026 159.254 51.8779)" fill="#BDBDBD"/>
<circle cx="221.411" cy="121.565" r="12" transform="rotate(38.4026 221.411 121.565)" fill="#C4C4C4"/>
<circle cx="196.563" cy="152.912" r="12" transform="rotate(38.4026 196.563 152.912)" fill="#C4C4C4"/>
<circle cx="88.9166" cy="108.417" r="12" transform="rotate(38.4026 88.9166 108.417)" fill="#C4C4C4"/>
<circle cx="64.0689" cy="139.763" r="12" transform="rotate(38.4026 64.0689 139.763)" fill="#C4C4C4"/>
<rect x="114.529" y="108.302" width="72" height="72" transform="rotate(38.4026 114.529 108.302)" fill="#BDBDBD"/>
<circle cx="176.686" cy="177.989" r="12" transform="rotate(38.4026 176.686 177.989)" fill="#C4C4C4"/>
<circle cx="151.838" cy="209.336" r="12" transform="rotate(38.4026 151.838 209.336)" fill="#C4C4C4"/>
<circle cx="44.19" cy="164.841" r="12" transform="rotate(38.4026 44.19 164.841)" fill="#C4C4C4"/>
<circle cx="19.3424" cy="196.187" r="12" transform="rotate(38.4026 19.3424 196.187)" fill="#C4C4C4"/>
<rect x="69.8027" y="164.726" width="72" height="72" transform="rotate(38.4026 69.8027 164.726)" fill="#BDBDBD"/>
<circle cx="131.96" cy="234.413" r="12" transform="rotate(38.4026 131.96 234.413)" fill="#C4C4C4"/>
<circle cx="107.112" cy="265.76" r="12" transform="rotate(38.4026 107.112 265.76)" fill="#C4C4C4"/>
<circle r="12" transform="matrix(-0.783665 0.621184 0.621184 0.783665 673.113 383.993)" fill="#C4C4C4"/>
<circle r="12" transform="matrix(-0.783665 0.621184 0.621184 0.783665 697.96 415.34)" fill="#C4C4C4"/>
<rect width="72" height="72" transform="matrix(-0.783665 0.621184 0.621184 0.783665 647.5 383.878)" fill="#BDBDBD"/>
<circle r="12" transform="matrix(-0.783665 0.621184 0.621184 0.783665 585.343 453.565)" fill="#C4C4C4"/>
<circle r="12" transform="matrix(-0.783665 0.621184 0.621184 0.783665 610.191 484.912)" fill="#C4C4C4"/>
<circle r="12" transform="matrix(-0.783665 0.621184 0.621184 0.783665 717.837 440.417)" fill="#C4C4C4"/>
<circle r="12" transform="matrix(-0.783665 0.621184 0.621184 0.783665 742.685 471.763)" fill="#C4C4C4"/>
<rect width="72" height="72" transform="matrix(-0.783665 0.621184 0.621184 0.783665 692.225 440.302)" fill="#BDBDBD"/>
<circle r="12" transform="matrix(-0.783665 0.621184 0.621184 0.783665 630.068 509.989)" fill="#C4C4C4"/>
<circle r="12" transform="matrix(-0.783665 0.621184 0.621184 0.783665 654.915 541.336)" fill="#C4C4C4"/>
<circle r="12" transform="matrix(-0.783665 0.621184 0.621184 0.783665 762.564 496.841)" fill="#C4C4C4"/>
<circle r="12" transform="matrix(-0.783665 0.621184 0.621184 0.783665 787.412 528.187)" fill="#C4C4C4"/>
<rect width="72" height="72" transform="matrix(-0.783665 0.621184 0.621184 0.783665 736.951 496.726)" fill="#BDBDBD"/>
<circle r="12" transform="matrix(-0.783665 0.621184 0.621184 0.783665 674.794 566.413)" fill="#C4C4C4"/>
<circle r="12" transform="matrix(-0.783665 0.621184 0.621184 0.783665 699.642 597.76)" fill="#C4C4C4"/>
<circle cx="511.641" cy="51.993" r="12" transform="rotate(38.4026 511.641 51.993)" fill="#C4C4C4"/>
<circle cx="486.794" cy="83.3396" r="12" transform="rotate(38.4026 486.794 83.3396)" fill="#C4C4C4"/>
<rect x="537.254" y="51.8779" width="72" height="72" transform="rotate(38.4026 537.254 51.8779)" fill="#BDBDBD"/>
<circle cx="599.411" cy="121.565" r="12" transform="rotate(38.4026 599.411 121.565)" fill="#C4C4C4"/>
<circle cx="574.563" cy="152.912" r="12" transform="rotate(38.4026 574.563 152.912)" fill="#C4C4C4"/>
<circle cx="466.917" cy="108.417" r="12" transform="rotate(38.4026 466.917 108.417)" fill="#C4C4C4"/>
<circle cx="442.069" cy="139.763" r="12" transform="rotate(38.4026 442.069 139.763)" fill="#C4C4C4"/>
<rect x="492.529" y="108.302" width="72" height="72" transform="rotate(38.4026 492.529 108.302)" fill="#BDBDBD"/>
<circle cx="554.686" cy="177.989" r="12" transform="rotate(38.4026 554.686 177.989)" fill="#C4C4C4"/>
<circle cx="529.838" cy="209.336" r="12" transform="rotate(38.4026 529.838 209.336)" fill="#C4C4C4"/>
<circle cx="422.19" cy="164.841" r="12" transform="rotate(38.4026 422.19 164.841)" fill="#C4C4C4"/>
<circle cx="397.342" cy="196.187" r="12" transform="rotate(38.4026 397.342 196.187)" fill="#C4C4C4"/>
<rect x="447.803" y="164.726" width="72" height="72" transform="rotate(38.4026 447.803 164.726)" fill="#BDBDBD"/>
<circle cx="509.96" cy="234.413" r="12" transform="rotate(38.4026 509.96 234.413)" fill="#C4C4C4"/>
<circle cx="485.112" cy="265.76" r="12" transform="rotate(38.4026 485.112 265.76)" fill="#C4C4C4"/>
<circle r="12" transform="matrix(-0.783665 0.621184 0.621184 0.783665 485.113 383.993)" fill="#C4C4C4"/>
<circle r="12" transform="matrix(-0.783665 0.621184 0.621184 0.783665 509.96 415.34)" fill="#C4C4C4"/>
<rect width="72" height="72" transform="matrix(-0.783665 0.621184 0.621184 0.783665 459.5 383.878)" fill="#BDBDBD"/>
<circle r="12" transform="matrix(-0.783665 0.621184 0.621184 0.783665 397.343 453.565)" fill="#C4C4C4"/>
<circle r="12" transform="matrix(-0.783665 0.621184 0.621184 0.783665 422.191 484.912)" fill="#C4C4C4"/>
<circle r="12" transform="matrix(-0.783665 0.621184 0.621184 0.783665 529.837 440.417)" fill="#C4C4C4"/>
<circle r="12" transform="matrix(-0.783665 0.621184 0.621184 0.783665 554.685 471.763)" fill="#C4C4C4"/>
<rect width="72" height="72" transform="matrix(-0.783665 0.621184 0.621184 0.783665 504.225 440.302)" fill="#BDBDBD"/>
<circle r="12" transform="matrix(-0.783665 0.621184 0.621184 0.783665 442.068 509.989)" fill="#C4C4C4"/>
<circle r="12" transform="matrix(-0.783665 0.621184 0.621184 0.783665 466.915 541.336)" fill="#C4C4C4"/>
<circle r="12" transform="matrix(-0.783665 0.621184 0.621184 0.783665 574.564 496.841)" fill="#C4C4C4"/>
<circle r="12" transform="matrix(-0.783665 0.621184 0.621184 0.783665 599.412 528.187)" fill="#C4C4C4"/>
<rect width="72" height="72" transform="matrix(-0.783665 0.621184 0.621184 0.783665 548.951 496.726)" fill="#BDBDBD"/>
<circle r="12" transform="matrix(-0.783665 0.621184 0.621184 0.783665 486.794 566.413)" fill="#C4C4C4"/>
<circle r="12" transform="matrix(-0.783665 0.621184 0.621184 0.783665 511.642 597.76)" fill="#C4C4C4"/>
<circle cx="699.641" cy="51.993" r="12" transform="rotate(38.4026 699.641 51.993)" fill="#C4C4C4"/>
<circle cx="674.794" cy="83.3396" r="12" transform="rotate(38.4026 674.794 83.3396)" fill="#C4C4C4"/>
<rect x="725.254" y="51.8779" width="72" height="72" transform="rotate(38.4026 725.254 51.8779)" fill="#BDBDBD"/>
<circle cx="787.411" cy="121.565" r="12" transform="rotate(38.4026 787.411 121.565)" fill="#C4C4C4"/>
<circle cx="762.563" cy="152.912" r="12" transform="rotate(38.4026 762.563 152.912)" fill="#C4C4C4"/>
<circle cx="654.917" cy="108.417" r="12" transform="rotate(38.4026 654.917 108.417)" fill="#C4C4C4"/>
<circle cx="630.069" cy="139.763" r="12" transform="rotate(38.4026 630.069 139.763)" fill="#C4C4C4"/>
<rect x="680.529" y="108.302" width="72" height="72" transform="rotate(38.4026 680.529 108.302)" fill="#BDBDBD"/>
<circle cx="742.686" cy="177.989" r="12" transform="rotate(38.4026 742.686 177.989)" fill="#C4C4C4"/>
<circle cx="717.838" cy="209.336" r="12" transform="rotate(38.4026 717.838 209.336)" fill="#C4C4C4"/>
<circle cx="610.19" cy="164.841" r="12" transform="rotate(38.4026 610.19 164.841)" fill="#C4C4C4"/>
<circle cx="585.342" cy="196.187" r="12" transform="rotate(38.4026 585.342 196.187)" fill="#C4C4C4"/>
<rect x="635.803" y="164.726" width="72" height="72" transform="rotate(38.4026 635.803 164.726)" fill="#BDBDBD"/>
<circle cx="697.96" cy="234.413" r="12" transform="rotate(38.4026 697.96 234.413)" fill="#C4C4C4"/>
<circle cx="673.112" cy="265.76" r="12" transform="rotate(38.4026 673.112 265.76)" fill="#C4C4C4"/>
<circle r="12" transform="matrix(-0.783665 0.621184 0.621184 0.783665 297.113 383.993)" fill="#C4C4C4"/>
<circle r="12" transform="matrix(-0.783665 0.621184 0.621184 0.783665 321.96 415.34)" fill="#C4C4C4"/>
<rect width="72" height="72" transform="matrix(-0.783665 0.621184 0.621184 0.783665 271.5 383.878)" fill="#BDBDBD"/>
<circle r="12" transform="matrix(-0.783665 0.621184 0.621184 0.783665 209.343 453.565)" fill="#C4C4C4"/>
<circle r="12" transform="matrix(-0.783665 0.621184 0.621184 0.783665 234.191 484.912)" fill="#C4C4C4"/>
<circle r="12" transform="matrix(-0.783665 0.621184 0.621184 0.783665 341.837 440.417)" fill="#C4C4C4"/>
<circle r="12" transform="matrix(-0.783665 0.621184 0.621184 0.783665 366.685 471.763)" fill="#C4C4C4"/>
<rect width="72" height="72" transform="matrix(-0.783665 0.621184 0.621184 0.783665 316.225 440.302)" fill="#BDBDBD"/>
<circle r="12" transform="matrix(-0.783665 0.621184 0.621184 0.783665 254.068 509.989)" fill="#C4C4C4"/>
<circle r="12" transform="matrix(-0.783665 0.621184 0.621184 0.783665 278.915 541.336)" fill="#C4C4C4"/>
<circle r="12" transform="matrix(-0.783665 0.621184 0.621184 0.783665 386.564 496.841)" fill="#C4C4C4"/>
<circle r="12" transform="matrix(-0.783665 0.621184 0.621184 0.783665 411.412 528.187)" fill="#C4C4C4"/>
<rect width="72" height="72" transform="matrix(-0.783665 0.621184 0.621184 0.783665 360.951 496.726)" fill="#BDBDBD"/>
<circle r="12" transform="matrix(-0.783665 0.621184 0.621184 0.783665 298.794 566.413)" fill="#C4C4C4"/>
<circle r="12" transform="matrix(-0.783665 0.621184 0.621184 0.783665 323.642 597.76)" fill="#C4C4C4"/>
<circle r="12" transform="matrix(-0.783665 0.621184 0.621184 0.783665 107.113 383.993)" fill="#C4C4C4"/>
<circle r="12" transform="matrix(-0.783665 0.621184 0.621184 0.783665 131.96 415.34)" fill="#C4C4C4"/>
<rect width="72" height="72" transform="matrix(-0.783665 0.621184 0.621184 0.783665 81.5 383.878)" fill="#BDBDBD"/>
<circle r="12" transform="matrix(-0.783665 0.621184 0.621184 0.783665 19.3432 453.565)" fill="#C4C4C4"/>
<circle r="12" transform="matrix(-0.783665 0.621184 0.621184 0.783665 44.1908 484.912)" fill="#C4C4C4"/>
<circle r="12" transform="matrix(-0.783665 0.621184 0.621184 0.783665 151.837 440.417)" fill="#C4C4C4"/>
<circle r="12" transform="matrix(-0.783665 0.621184 0.621184 0.783665 176.685 471.763)" fill="#C4C4C4"/>
<rect width="72" height="72" transform="matrix(-0.783665 0.621184 0.621184 0.783665 126.225 440.302)" fill="#BDBDBD"/>
<circle r="12" transform="matrix(-0.783665 0.621184 0.621184 0.783665 64.0678 509.989)" fill="#C4C4C4"/>
<circle r="12" transform="matrix(-0.783665 0.621184 0.621184 0.783665 88.9155 541.336)" fill="#C4C4C4"/>
<circle r="12" transform="matrix(-0.783665 0.621184 0.621184 0.783665 196.564 496.841)" fill="#C4C4C4"/>
<circle r="12" transform="matrix(-0.783665 0.621184 0.621184 0.783665 221.412 528.187)" fill="#C4C4C4"/>
<rect width="72" height="72" transform="matrix(-0.783665 0.621184 0.621184 0.783665 170.951 496.726)" fill="#BDBDBD"/>
<circle r="12" transform="matrix(-0.783665 0.621184 0.621184 0.783665 108.794 566.413)" fill="#C4C4C4"/>
<circle r="12" transform="matrix(-0.783665 0.621184 0.621184 0.783665 133.642 597.76)" fill="#C4C4C4"/>
<circle cx="879" cy="230" r="12" transform="rotate(-180 879 230)" fill="#C4C4C4"/>
<rect x="917" y="253" width="28" height="80" transform="rotate(90 917 253)" fill="#BDBDBD"/>
<circle r="12" transform="matrix(-1 8.74228e-08 8.74228e-08 1 879 412)" fill="#C4C4C4"/>
<rect width="28" height="80" transform="matrix(1.19249e-08 -1 -1 -1.19249e-08 917 389)" fill="#BDBDBD"/>
</svg>
