<svg width="944" height="650" viewBox="0 0 944 650" fill="none" xmlns="http://www.w3.org/2000/svg">
<rect x="2" y="2" width="940" height="646" fill="white" stroke="#E0E0E0" stroke-width="4"/>
<circle cx="908" cy="111" r="12" transform="rotate(-180 908 111)" fill="#C4C4C4"/>
<circle cx="908" cy="78" r="12" transform="rotate(-180 908 78)" fill="#C4C4C4"/>
<rect x="885" y="123" width="40" height="57" transform="rotate(-180 885 123)" fill="#BDBDBD"/>
<circle cx="315.641" cy="51.993" r="12" transform="rotate(38.4026 315.641 51.993)" fill="#C4C4C4"/>
<circle cx="290.794" cy="83.3396" r="12" transform="rotate(38.4026 290.794 83.3396)" fill="#C4C4C4"/>
<rect x="341.254" y="51.8779" width="72" height="72" transform="rotate(38.4026 341.254 51.8779)" fill="#BDBDBD"/>
<circle cx="403.411" cy="121.565" r="12" transform="rotate(38.4026 403.411 121.565)" fill="#C4C4C4"/>
<circle cx="378.563" cy="152.912" r="12" transform="rotate(38.4026 378.563 152.912)" fill="#C4C4C4"/>
<circle cx="270.916" cy="108.417" r="12" transform="rotate(38.4026 270.916 108.417)" fill="#C4C4C4"/>
<circle cx="246.068" cy="139.763" r="12" transform="rotate(38.4026 246.068 139.763)" fill="#C4C4C4"/>
<rect x="296.527" y="108.302" width="72" height="72" transform="rotate(38.4026 296.527 108.302)" fill="#BDBDBD"/>
<circle cx="358.686" cy="177.989" r="12" transform="rotate(38.4026 358.686 177.989)" fill="#C4C4C4"/>
<circle cx="333.838" cy="209.336" r="12" transform="rotate(38.4026 333.838 209.336)" fill="#C4C4C4"/>
<circle cx="226.191" cy="164.841" r="12" transform="rotate(38.4026 226.191 164.841)" fill="#C4C4C4"/>
<circle cx="201.343" cy="196.187" r="12" transform="rotate(38.4026 201.343 196.187)" fill="#C4C4C4"/>
<rect x="251.803" y="164.726" width="72" height="72" transform="rotate(38.4026 251.803 164.726)" fill="#BDBDBD"/>
<circle cx="313.961" cy="234.413" r="12" transform="rotate(38.4026 313.961 234.413)" fill="#C4C4C4"/>
<circle cx="289.114" cy="265.76" r="12" transform="rotate(38.4026 289.114 265.76)" fill="#C4C4C4"/>
<circle cx="54" cy="302" r="12" fill="#C4C4C4"/>
<circle cx="54" cy="345" r="12" fill="#C4C4C4"/>
<rect x="72" y="258" width="57" height="127" fill="#BDBDBD"/>
<circle r="12" transform="matrix(-0.783665 0.621184 0.621184 0.783665 665.113 383.993)" fill="#C4C4C4"/>
<circle r="12" transform="matrix(-0.783665 0.621184 0.621184 0.783665 689.96 415.34)" fill="#C4C4C4"/>
<rect width="72" height="72" transform="matrix(-0.783665 0.621184 0.621184 0.783665 639.5 383.878)" fill="#BDBDBD"/>
<circle r="12" transform="matrix(-0.783665 0.621184 0.621184 0.783665 577.343 453.565)" fill="#C4C4C4"/>
<circle r="12" transform="matrix(-0.783665 0.621184 0.621184 0.783665 602.191 484.912)" fill="#C4C4C4"/>
<circle r="12" transform="matrix(-0.783665 0.621184 0.621184 0.783665 709.837 440.417)" fill="#C4C4C4"/>
<circle r="12" transform="matrix(-0.783665 0.621184 0.621184 0.783665 734.685 471.763)" fill="#C4C4C4"/>
<rect width="72" height="72" transform="matrix(-0.783665 0.621184 0.621184 0.783665 684.225 440.302)" fill="#BDBDBD"/>
<circle r="12" transform="matrix(-0.783665 0.621184 0.621184 0.783665 622.068 509.989)" fill="#C4C4C4"/>
<circle r="12" transform="matrix(-0.783665 0.621184 0.621184 0.783665 646.915 541.336)" fill="#C4C4C4"/>
<circle r="12" transform="matrix(-0.783665 0.621184 0.621184 0.783665 754.564 496.841)" fill="#C4C4C4"/>
<circle r="12" transform="matrix(-0.783665 0.621184 0.621184 0.783665 779.412 528.187)" fill="#C4C4C4"/>
<rect width="72" height="72" transform="matrix(-0.783665 0.621184 0.621184 0.783665 728.951 496.726)" fill="#BDBDBD"/>
<circle r="12" transform="matrix(-0.783665 0.621184 0.621184 0.783665 666.794 566.413)" fill="#C4C4C4"/>
<circle r="12" transform="matrix(-0.783665 0.621184 0.621184 0.783665 691.642 597.76)" fill="#C4C4C4"/>
<circle cx="503.641" cy="51.993" r="12" transform="rotate(38.4026 503.641 51.993)" fill="#C4C4C4"/>
<circle cx="478.794" cy="83.3396" r="12" transform="rotate(38.4026 478.794 83.3396)" fill="#C4C4C4"/>
<rect x="529.254" y="51.8779" width="72" height="72" transform="rotate(38.4026 529.254 51.8779)" fill="#BDBDBD"/>
<circle cx="591.411" cy="121.565" r="12" transform="rotate(38.4026 591.411 121.565)" fill="#C4C4C4"/>
<circle cx="566.563" cy="152.912" r="12" transform="rotate(38.4026 566.563 152.912)" fill="#C4C4C4"/>
<circle cx="458.917" cy="108.417" r="12" transform="rotate(38.4026 458.917 108.417)" fill="#C4C4C4"/>
<circle cx="434.069" cy="139.763" r="12" transform="rotate(38.4026 434.069 139.763)" fill="#C4C4C4"/>
<rect x="484.529" y="108.302" width="72" height="72" transform="rotate(38.4026 484.529 108.302)" fill="#BDBDBD"/>
<circle cx="546.686" cy="177.989" r="12" transform="rotate(38.4026 546.686 177.989)" fill="#C4C4C4"/>
<circle cx="521.838" cy="209.336" r="12" transform="rotate(38.4026 521.838 209.336)" fill="#C4C4C4"/>
<circle cx="414.19" cy="164.841" r="12" transform="rotate(38.4026 414.19 164.841)" fill="#C4C4C4"/>
<circle cx="389.342" cy="196.187" r="12" transform="rotate(38.4026 389.342 196.187)" fill="#C4C4C4"/>
<rect x="439.803" y="164.726" width="72" height="72" transform="rotate(38.4026 439.803 164.726)" fill="#BDBDBD"/>
<circle cx="501.96" cy="234.413" r="12" transform="rotate(38.4026 501.96 234.413)" fill="#C4C4C4"/>
<circle cx="477.112" cy="265.76" r="12" transform="rotate(38.4026 477.112 265.76)" fill="#C4C4C4"/>
<circle r="12" transform="matrix(-0.783665 0.621184 0.621184 0.783665 477.113 383.993)" fill="#C4C4C4"/>
<circle r="12" transform="matrix(-0.783665 0.621184 0.621184 0.783665 501.96 415.34)" fill="#C4C4C4"/>
<rect width="72" height="72" transform="matrix(-0.783665 0.621184 0.621184 0.783665 451.5 383.878)" fill="#BDBDBD"/>
<circle r="12" transform="matrix(-0.783665 0.621184 0.621184 0.783665 389.343 453.565)" fill="#C4C4C4"/>
<circle r="12" transform="matrix(-0.783665 0.621184 0.621184 0.783665 414.191 484.912)" fill="#C4C4C4"/>
<circle r="12" transform="matrix(-0.783665 0.621184 0.621184 0.783665 521.837 440.417)" fill="#C4C4C4"/>
<circle r="12" transform="matrix(-0.783665 0.621184 0.621184 0.783665 546.685 471.763)" fill="#C4C4C4"/>
<rect width="72" height="72" transform="matrix(-0.783665 0.621184 0.621184 0.783665 496.225 440.302)" fill="#BDBDBD"/>
<circle r="12" transform="matrix(-0.783665 0.621184 0.621184 0.783665 434.068 509.989)" fill="#C4C4C4"/>
<circle r="12" transform="matrix(-0.783665 0.621184 0.621184 0.783665 458.915 541.336)" fill="#C4C4C4"/>
<circle r="12" transform="matrix(-0.783665 0.621184 0.621184 0.783665 566.564 496.841)" fill="#C4C4C4"/>
<circle r="12" transform="matrix(-0.783665 0.621184 0.621184 0.783665 591.412 528.187)" fill="#C4C4C4"/>
<rect width="72" height="72" transform="matrix(-0.783665 0.621184 0.621184 0.783665 540.951 496.726)" fill="#BDBDBD"/>
<circle r="12" transform="matrix(-0.783665 0.621184 0.621184 0.783665 478.794 566.413)" fill="#C4C4C4"/>
<circle r="12" transform="matrix(-0.783665 0.621184 0.621184 0.783665 503.642 597.76)" fill="#C4C4C4"/>
<circle cx="691.641" cy="51.993" r="12" transform="rotate(38.4026 691.641 51.993)" fill="#C4C4C4"/>
<circle cx="666.794" cy="83.3396" r="12" transform="rotate(38.4026 666.794 83.3396)" fill="#C4C4C4"/>
<rect x="717.254" y="51.8779" width="72" height="72" transform="rotate(38.4026 717.254 51.8779)" fill="#BDBDBD"/>
<circle cx="779.411" cy="121.565" r="12" transform="rotate(38.4026 779.411 121.565)" fill="#C4C4C4"/>
<circle cx="754.563" cy="152.912" r="12" transform="rotate(38.4026 754.563 152.912)" fill="#C4C4C4"/>
<circle cx="646.917" cy="108.417" r="12" transform="rotate(38.4026 646.917 108.417)" fill="#C4C4C4"/>
<circle cx="622.069" cy="139.763" r="12" transform="rotate(38.4026 622.069 139.763)" fill="#C4C4C4"/>
<rect x="672.529" y="108.302" width="72" height="72" transform="rotate(38.4026 672.529 108.302)" fill="#BDBDBD"/>
<circle cx="734.686" cy="177.989" r="12" transform="rotate(38.4026 734.686 177.989)" fill="#C4C4C4"/>
<circle cx="709.838" cy="209.336" r="12" transform="rotate(38.4026 709.838 209.336)" fill="#C4C4C4"/>
<circle cx="602.19" cy="164.841" r="12" transform="rotate(38.4026 602.19 164.841)" fill="#C4C4C4"/>
<circle cx="577.342" cy="196.187" r="12" transform="rotate(38.4026 577.342 196.187)" fill="#C4C4C4"/>
<rect x="627.803" y="164.726" width="72" height="72" transform="rotate(38.4026 627.803 164.726)" fill="#BDBDBD"/>
<circle cx="689.96" cy="234.413" r="12" transform="rotate(38.4026 689.96 234.413)" fill="#C4C4C4"/>
<circle cx="665.112" cy="265.76" r="12" transform="rotate(38.4026 665.112 265.76)" fill="#C4C4C4"/>
<circle r="12" transform="matrix(-0.783665 0.621184 0.621184 0.783665 289.113 383.993)" fill="#C4C4C4"/>
<circle r="12" transform="matrix(-0.783665 0.621184 0.621184 0.783665 313.96 415.34)" fill="#C4C4C4"/>
<rect width="72" height="72" transform="matrix(-0.783665 0.621184 0.621184 0.783665 263.501 383.878)" fill="#BDBDBD"/>
<circle r="12" transform="matrix(-0.783665 0.621184 0.621184 0.783665 201.342 453.565)" fill="#C4C4C4"/>
<circle r="12" transform="matrix(-0.783665 0.621184 0.621184 0.783665 226.19 484.912)" fill="#C4C4C4"/>
<circle r="12" transform="matrix(-0.783665 0.621184 0.621184 0.783665 333.837 440.417)" fill="#C4C4C4"/>
<circle r="12" transform="matrix(-0.783665 0.621184 0.621184 0.783665 358.685 471.763)" fill="#C4C4C4"/>
<rect width="72" height="72" transform="matrix(-0.783665 0.621184 0.621184 0.783665 308.225 440.302)" fill="#BDBDBD"/>
<circle r="12" transform="matrix(-0.783665 0.621184 0.621184 0.783665 246.067 509.989)" fill="#C4C4C4"/>
<circle r="12" transform="matrix(-0.783665 0.621184 0.621184 0.783665 270.914 541.336)" fill="#C4C4C4"/>
<circle r="12" transform="matrix(-0.783665 0.621184 0.621184 0.783665 378.564 496.841)" fill="#C4C4C4"/>
<circle r="12" transform="matrix(-0.783665 0.621184 0.621184 0.783665 403.412 528.187)" fill="#C4C4C4"/>
<rect width="72" height="72" transform="matrix(-0.783665 0.621184 0.621184 0.783665 352.951 496.726)" fill="#BDBDBD"/>
<circle r="12" transform="matrix(-0.783665 0.621184 0.621184 0.783665 290.794 566.413)" fill="#C4C4C4"/>
<circle r="12" transform="matrix(-0.783665 0.621184 0.621184 0.783665 315.642 597.76)" fill="#C4C4C4"/>
<circle cx="871" cy="230" r="12" transform="rotate(-180 871 230)" fill="#C4C4C4"/>
<rect x="909" y="253" width="28" height="80" transform="rotate(90 909 253)" fill="#BDBDBD"/>
<circle r="12" transform="matrix(-1 8.74228e-08 8.74228e-08 1 871 412)" fill="#C4C4C4"/>
<rect width="28" height="80" transform="matrix(1.19249e-08 -1 -1 -1.19249e-08 909 389)" fill="#BDBDBD"/>
<rect y="92" width="25" height="467" fill="#E0E0E0"/>
</svg>
