<svg width="944" height="650" viewBox="0 0 944 650" fill="none" xmlns="http://www.w3.org/2000/svg">
<rect x="2" y="2" width="940" height="646" fill="white" stroke="#E0E0E0" stroke-width="4"/>
<rect x="825" y="503" width="72" height="72" fill="#BDBDBD"/>
<circle cx="61" cy="202" r="12" fill="#C4C4C4"/>
<circle cx="61" cy="245" r="12" fill="#C4C4C4"/>
<rect x="82" y="183" width="57" height="80" fill="#BDBDBD"/>
<circle cx="61" cy="282" r="12" fill="#C4C4C4"/>
<circle cx="61" cy="325" r="12" fill="#C4C4C4"/>
<rect x="82" y="263" width="57" height="80" fill="#BDBDBD"/>
<circle cx="61" cy="362" r="12" fill="#C4C4C4"/>
<circle cx="61" cy="405" r="12" fill="#C4C4C4"/>
<rect x="82" y="343" width="57" height="80" fill="#BDBDBD"/>
<circle cx="61" cy="442" r="12" fill="#C4C4C4"/>
<circle cx="61" cy="485" r="12" fill="#C4C4C4"/>
<rect x="82" y="423" width="57" height="80" fill="#BDBDBD"/>
<circle cx="908" cy="111" r="12" transform="rotate(-180 908 111)" fill="#C4C4C4"/>
<circle cx="908" cy="78" r="12" transform="rotate(-180 908 78)" fill="#C4C4C4"/>
<rect x="885" y="123" width="40" height="57" transform="rotate(-180 885 123)" fill="#BDBDBD"/>
<circle cx="203.971" cy="174.862" r="12" transform="rotate(-135 203.971 174.862)" fill="#C4C4C4"/>
<circle cx="232.256" cy="146.578" r="12" transform="rotate(-135 232.256 146.578)" fill="#C4C4C4"/>
<circle cx="260.539" cy="118.294" r="12" transform="rotate(-135 260.539 118.294)" fill="#C4C4C4"/>
<rect x="212.455" y="194.661" width="96" height="96" transform="rotate(-45 212.455 194.661)" fill="#BDBDBD"/>
<circle cx="300.137" cy="271.029" r="12" transform="rotate(-135 300.137 271.029)" fill="#C4C4C4"/>
<circle cx="328.422" cy="242.745" r="12" transform="rotate(-135 328.422 242.745)" fill="#C4C4C4"/>
<circle cx="356.705" cy="214.461" r="12" transform="rotate(-135 356.705 214.461)" fill="#C4C4C4"/>
<circle cx="302.965" cy="115.465" r="12" transform="rotate(-45 302.965 115.465)" fill="#C4C4C4"/>
<circle cx="331.25" cy="143.75" r="12" transform="rotate(-45 331.25 143.75)" fill="#C4C4C4"/>
<circle cx="359.533" cy="172.034" r="12" transform="rotate(-45 359.533 172.034)" fill="#C4C4C4"/>
<circle cx="300.137" cy="398.97" r="12" transform="rotate(-45 300.137 398.97)" fill="#C4C4C4"/>
<circle cx="328.422" cy="427.254" r="12" transform="rotate(-45 328.422 427.254)" fill="#C4C4C4"/>
<circle cx="356.705" cy="455.539" r="12" transform="rotate(-45 356.705 455.539)" fill="#C4C4C4"/>
<rect x="280.338" y="407.456" width="96" height="96" transform="rotate(45 280.338 407.456)" fill="#BDBDBD"/>
<circle cx="203.971" cy="495.137" r="12" transform="rotate(-45 203.971 495.137)" fill="#C4C4C4"/>
<circle cx="232.256" cy="523.421" r="12" transform="rotate(-45 232.256 523.421)" fill="#C4C4C4"/>
<circle cx="260.539" cy="551.705" r="12" transform="rotate(-45 260.539 551.705)" fill="#C4C4C4"/>
<circle cx="359.533" cy="497.965" r="12" transform="rotate(45 359.533 497.965)" fill="#C4C4C4"/>
<circle cx="331.248" cy="526.249" r="12" transform="rotate(45 331.248 526.249)" fill="#C4C4C4"/>
<circle cx="302.965" cy="554.534" r="12" transform="rotate(45 302.965 554.534)" fill="#C4C4C4"/>
<circle cx="427.273" cy="174.862" r="12" transform="rotate(-135 427.273 174.862)" fill="#C4C4C4"/>
<circle cx="455.559" cy="146.578" r="12" transform="rotate(-135 455.559 146.578)" fill="#C4C4C4"/>
<circle cx="483.842" cy="118.294" r="12" transform="rotate(-135 483.842 118.294)" fill="#C4C4C4"/>
<rect x="435.758" y="194.661" width="96" height="96" transform="rotate(-45 435.758 194.661)" fill="#BDBDBD"/>
<circle cx="523.439" cy="271.029" r="12" transform="rotate(-135 523.439 271.029)" fill="#C4C4C4"/>
<circle cx="551.725" cy="242.745" r="12" transform="rotate(-135 551.725 242.745)" fill="#C4C4C4"/>
<circle cx="580.008" cy="214.461" r="12" transform="rotate(-135 580.008 214.461)" fill="#C4C4C4"/>
<circle cx="526.267" cy="115.465" r="12" transform="rotate(-45 526.267 115.465)" fill="#C4C4C4"/>
<circle cx="554.553" cy="143.75" r="12" transform="rotate(-45 554.553 143.75)" fill="#C4C4C4"/>
<circle cx="582.836" cy="172.034" r="12" transform="rotate(-45 582.836 172.034)" fill="#C4C4C4"/>
<circle cx="523.439" cy="398.97" r="12" transform="rotate(-45 523.439 398.97)" fill="#C4C4C4"/>
<circle cx="551.724" cy="427.254" r="12" transform="rotate(-45 551.724 427.254)" fill="#C4C4C4"/>
<circle cx="580.008" cy="455.539" r="12" transform="rotate(-45 580.008 455.539)" fill="#C4C4C4"/>
<rect x="503.641" y="407.456" width="96" height="96" transform="rotate(45 503.641 407.456)" fill="#BDBDBD"/>
<circle cx="427.273" cy="495.137" r="12" transform="rotate(-45 427.273 495.137)" fill="#C4C4C4"/>
<circle cx="455.558" cy="523.421" r="12" transform="rotate(-45 455.558 523.421)" fill="#C4C4C4"/>
<circle cx="483.842" cy="551.705" r="12" transform="rotate(-45 483.842 551.705)" fill="#C4C4C4"/>
<circle cx="582.836" cy="497.965" r="12" transform="rotate(45 582.836 497.965)" fill="#C4C4C4"/>
<circle cx="554.551" cy="526.249" r="12" transform="rotate(45 554.551 526.249)" fill="#C4C4C4"/>
<circle cx="526.268" cy="554.534" r="12" transform="rotate(45 526.268 554.534)" fill="#C4C4C4"/>
<circle cx="656.652" cy="257" r="12" transform="rotate(-90 656.652 257)" fill="#C4C4C4"/>
<circle cx="696.652" cy="257" r="12" transform="rotate(-90 696.652 257)" fill="#C4C4C4"/>
<circle cx="736.652" cy="257" r="12" transform="rotate(-90 736.652 257)" fill="#C4C4C4"/>
<rect x="648.652" y="277" width="96" height="96" fill="#BDBDBD"/>
<circle cx="656.652" cy="393" r="12" transform="rotate(-90 656.652 393)" fill="#C4C4C4"/>
<circle cx="696.652" cy="393" r="12" transform="rotate(-90 696.652 393)" fill="#C4C4C4"/>
<circle cx="736.652" cy="393" r="12" transform="rotate(-90 736.652 393)" fill="#C4C4C4"/>
<circle cx="768.652" cy="285" r="12" fill="#C4C4C4"/>
<circle cx="768.652" cy="325" r="12" fill="#C4C4C4"/>
<circle cx="768.652" cy="365" r="12" fill="#C4C4C4"/>
<circle cx="871" cy="230" r="12" transform="rotate(-180 871 230)" fill="#C4C4C4"/>
<rect x="909" y="253" width="28" height="80" transform="rotate(90 909 253)" fill="#BDBDBD"/>
<circle r="12" transform="matrix(-1 8.74228e-08 8.74228e-08 1 871 412)" fill="#C4C4C4"/>
<rect width="28" height="80" transform="matrix(1.19249e-08 -1 -1 -1.19249e-08 909 389)" fill="#BDBDBD"/>
<rect y="92" width="25" height="467" fill="#E0E0E0"/>
</svg>
