<svg width="944" height="650" viewBox="0 0 944 650" fill="none" xmlns="http://www.w3.org/2000/svg">
<rect x="2" y="2" width="940" height="646" fill="white" stroke="#E0E0E0" stroke-width="4"/>
<rect x="822" y="519" width="72" height="72" fill="#BDBDBD"/>
<circle cx="908" cy="111" r="12" transform="rotate(-180 908 111)" fill="#C4C4C4"/>
<circle cx="908" cy="78" r="12" transform="rotate(-180 908 78)" fill="#C4C4C4"/>
<rect x="885" y="123" width="40" height="57" transform="rotate(-180 885 123)" fill="#BDBDBD"/>
<circle cx="165.426" cy="223.623" r="12" transform="rotate(-45 165.426 223.623)" fill="#C4C4C4"/>
<circle cx="193.711" cy="251.907" r="12" transform="rotate(-45 193.711 251.907)" fill="#C4C4C4"/>
<circle cx="165.426" cy="172.711" r="12" transform="rotate(-135 165.426 172.711)" fill="#C4C4C4"/>
<circle cx="193.711" cy="144.426" r="12" transform="rotate(-135 193.711 144.426)" fill="#C4C4C4"/>
<rect x="168.254" y="198.167" width="72" height="72" transform="rotate(-45 168.254 198.167)" fill="#BDBDBD"/>
<circle cx="244.621" cy="251.906" r="12" transform="rotate(-135 244.621 251.906)" fill="#C4C4C4"/>
<circle cx="272.906" cy="223.622" r="12" transform="rotate(-135 272.906 223.622)" fill="#C4C4C4"/>
<circle cx="244.623" cy="144.426" r="12" transform="rotate(-45 244.623 144.426)" fill="#C4C4C4"/>
<circle cx="272.908" cy="172.71" r="12" transform="rotate(-45 272.908 172.71)" fill="#C4C4C4"/>
<circle cx="165.426" cy="533.623" r="12" transform="rotate(-45 165.426 533.623)" fill="#C4C4C4"/>
<circle cx="193.711" cy="561.907" r="12" transform="rotate(-45 193.711 561.907)" fill="#C4C4C4"/>
<circle cx="165.426" cy="482.711" r="12" transform="rotate(-135 165.426 482.711)" fill="#C4C4C4"/>
<circle cx="193.711" cy="454.426" r="12" transform="rotate(-135 193.711 454.426)" fill="#C4C4C4"/>
<rect x="168.254" y="508.167" width="72" height="72" transform="rotate(-45 168.254 508.167)" fill="#BDBDBD"/>
<circle cx="244.621" cy="561.906" r="12" transform="rotate(-135 244.621 561.906)" fill="#C4C4C4"/>
<circle cx="272.906" cy="533.622" r="12" transform="rotate(-135 272.906 533.622)" fill="#C4C4C4"/>
<circle cx="244.623" cy="454.426" r="12" transform="rotate(-45 244.623 454.426)" fill="#C4C4C4"/>
<circle cx="272.908" cy="482.71" r="12" transform="rotate(-45 272.908 482.71)" fill="#C4C4C4"/>
<circle cx="638.426" cy="223.623" r="12" transform="rotate(-45 638.426 223.623)" fill="#C4C4C4"/>
<circle cx="666.711" cy="251.907" r="12" transform="rotate(-45 666.711 251.907)" fill="#C4C4C4"/>
<circle cx="638.426" cy="172.711" r="12" transform="rotate(-135 638.426 172.711)" fill="#C4C4C4"/>
<circle cx="666.711" cy="144.426" r="12" transform="rotate(-135 666.711 144.426)" fill="#C4C4C4"/>
<rect x="641.254" y="198.167" width="72" height="72" transform="rotate(-45 641.254 198.167)" fill="#BDBDBD"/>
<circle cx="717.621" cy="251.906" r="12" transform="rotate(-135 717.621 251.906)" fill="#C4C4C4"/>
<circle cx="745.906" cy="223.622" r="12" transform="rotate(-135 745.906 223.622)" fill="#C4C4C4"/>
<circle cx="717.623" cy="144.426" r="12" transform="rotate(-45 717.623 144.426)" fill="#C4C4C4"/>
<circle cx="745.908" cy="172.71" r="12" transform="rotate(-45 745.908 172.71)" fill="#C4C4C4"/>
<circle cx="637.426" cy="533.623" r="12" transform="rotate(-45 637.426 533.623)" fill="#C4C4C4"/>
<circle cx="665.711" cy="561.907" r="12" transform="rotate(-45 665.711 561.907)" fill="#C4C4C4"/>
<circle cx="637.426" cy="482.711" r="12" transform="rotate(-135 637.426 482.711)" fill="#C4C4C4"/>
<circle cx="665.711" cy="454.426" r="12" transform="rotate(-135 665.711 454.426)" fill="#C4C4C4"/>
<rect x="640.254" y="508.167" width="72" height="72" transform="rotate(-45 640.254 508.167)" fill="#BDBDBD"/>
<circle cx="716.621" cy="561.906" r="12" transform="rotate(-135 716.621 561.906)" fill="#C4C4C4"/>
<circle cx="744.906" cy="533.622" r="12" transform="rotate(-135 744.906 533.622)" fill="#C4C4C4"/>
<circle cx="716.623" cy="454.426" r="12" transform="rotate(-45 716.623 454.426)" fill="#C4C4C4"/>
<circle cx="744.908" cy="482.71" r="12" transform="rotate(-45 744.908 482.71)" fill="#C4C4C4"/>
<circle cx="401.426" cy="533.623" r="12" transform="rotate(-45 401.426 533.623)" fill="#C4C4C4"/>
<circle cx="429.711" cy="561.907" r="12" transform="rotate(-45 429.711 561.907)" fill="#C4C4C4"/>
<circle cx="401.426" cy="482.711" r="12" transform="rotate(-135 401.426 482.711)" fill="#C4C4C4"/>
<circle cx="429.711" cy="454.426" r="12" transform="rotate(-135 429.711 454.426)" fill="#C4C4C4"/>
<rect x="404.254" y="508.167" width="72" height="72" transform="rotate(-45 404.254 508.167)" fill="#BDBDBD"/>
<circle cx="480.621" cy="561.906" r="12" transform="rotate(-135 480.621 561.906)" fill="#C4C4C4"/>
<circle cx="508.906" cy="533.622" r="12" transform="rotate(-135 508.906 533.622)" fill="#C4C4C4"/>
<circle cx="480.623" cy="454.426" r="12" transform="rotate(-45 480.623 454.426)" fill="#C4C4C4"/>
<circle cx="508.908" cy="482.71" r="12" transform="rotate(-45 508.908 482.71)" fill="#C4C4C4"/>
<circle cx="475" cy="102" r="12" transform="rotate(90 475 102)" fill="#C4C4C4"/>
<circle cx="432" cy="102" r="12" transform="rotate(90 432 102)" fill="#C4C4C4"/>
<rect x="519" y="120" width="57" height="127" transform="rotate(90 519 120)" fill="#BDBDBD"/>
<circle cx="871" cy="230" r="12" transform="rotate(-180 871 230)" fill="#C4C4C4"/>
<rect x="909" y="253" width="28" height="80" transform="rotate(90 909 253)" fill="#BDBDBD"/>
<circle r="12" transform="matrix(-1 8.74228e-08 8.74228e-08 1 871 412)" fill="#C4C4C4"/>
<rect width="28" height="80" transform="matrix(1.19249e-08 -1 -1 -1.19249e-08 909 389)" fill="#BDBDBD"/>
<rect y="92" width="25" height="467" fill="#E0E0E0"/>
</svg>
