<svg width="944" height="650" viewBox="0 0 944 650" fill="none" xmlns="http://www.w3.org/2000/svg">
<rect x="2" y="2" width="940" height="646" fill="white" stroke="#E0E0E0" stroke-width="4"/>
<g clip-path="url(#clip0)">
<circle cx="237.008" cy="380" r="28" fill="#C4C4C4"/>
<path d="M238.464 374.816C238.464 374.315 238.304 373.915 237.984 373.616C237.664 373.307 237.232 373.152 236.688 373.152C236.112 373.152 235.658 373.333 235.328 373.696C235.008 374.048 234.821 374.523 234.768 375.12H233.472C233.568 374.192 233.904 373.445 234.48 372.88C235.056 372.315 235.792 372.032 236.688 372.032C237.616 372.032 238.346 372.283 238.88 372.784C239.413 373.285 239.68 373.957 239.68 374.8C239.68 374.949 239.658 375.104 239.616 375.264C239.584 375.424 239.546 375.563 239.504 375.68C239.472 375.797 239.402 375.947 239.296 376.128C239.2 376.299 239.125 376.427 239.072 376.512C239.018 376.597 238.912 376.736 238.752 376.928C238.592 377.12 238.485 377.248 238.432 377.312C238.378 377.376 238.25 377.52 238.048 377.744C237.856 377.957 237.738 378.091 237.696 378.144L235.2 380.88H239.888V382H233.472V381.168L236.64 377.68C237.12 377.147 237.445 376.784 237.616 376.592C237.786 376.4 237.968 376.128 238.16 375.776C238.362 375.424 238.464 375.104 238.464 374.816Z" fill="black"/>
</g>
<rect x="187.008" y="330" width="78" height="18" rx="9" fill="#828282"/>
<rect x="187.008" y="330" width="22" height="18" rx="9" fill="#BDBDBD"/>
<rect x="187.008" y="427" width="78" height="18" rx="9" fill="#828282"/>
<rect x="187.008" y="427" width="22" height="18" rx="9" fill="#BDBDBD"/>
<g clip-path="url(#clip1)">
<circle cx="237.008" cy="495" r="28" fill="#C4C4C4"/>
<path d="M238.464 489.816C238.464 489.315 238.304 488.915 237.984 488.616C237.664 488.307 237.232 488.152 236.688 488.152C236.112 488.152 235.658 488.333 235.328 488.696C235.008 489.048 234.821 489.523 234.768 490.12H233.472C233.568 489.192 233.904 488.445 234.48 487.88C235.056 487.315 235.792 487.032 236.688 487.032C237.616 487.032 238.346 487.283 238.88 487.784C239.413 488.285 239.68 488.957 239.68 489.8C239.68 489.949 239.658 490.104 239.616 490.264C239.584 490.424 239.546 490.563 239.504 490.68C239.472 490.797 239.402 490.947 239.296 491.128C239.2 491.299 239.125 491.427 239.072 491.512C239.018 491.597 238.912 491.736 238.752 491.928C238.592 492.12 238.485 492.248 238.432 492.312C238.378 492.376 238.25 492.52 238.048 492.744C237.856 492.957 237.738 493.091 237.696 493.144L235.2 495.88H239.888V497H233.472V496.168L236.64 492.68C237.12 492.147 237.445 491.784 237.616 491.592C237.786 491.4 237.968 491.128 238.16 490.776C238.362 490.424 238.464 490.104 238.464 489.816Z" fill="black"/>
</g>
<rect x="187.008" y="527" width="78" height="18" rx="9" fill="#828282"/>
<rect x="187.008" y="527" width="22" height="18" rx="9" fill="#BDBDBD"/>
<g clip-path="url(#clip2)">
<circle cx="50.0039" cy="530" r="28" fill="#C4C4C4"/>
<path d="M51.4599 524.816C51.4599 524.315 51.2999 523.915 50.9799 523.616C50.6599 523.307 50.2279 523.152 49.6839 523.152C49.1079 523.152 48.6546 523.333 48.3239 523.696C48.0039 524.048 47.8172 524.523 47.7639 525.12H46.4679C46.5639 524.192 46.8999 523.445 47.4759 522.88C48.0519 522.315 48.7879 522.032 49.6839 522.032C50.6119 522.032 51.3426 522.283 51.8759 522.784C52.4092 523.285 52.6759 523.957 52.6759 524.8C52.6759 524.949 52.6546 525.104 52.6119 525.264C52.5799 525.424 52.5426 525.563 52.4999 525.68C52.4679 525.797 52.3986 525.947 52.2919 526.128C52.1959 526.299 52.1212 526.427 52.0679 526.512C52.0146 526.597 51.9079 526.736 51.7479 526.928C51.5879 527.12 51.4812 527.248 51.4279 527.312C51.3746 527.376 51.2466 527.52 51.0439 527.744C50.8519 527.957 50.7346 528.091 50.6919 528.144L48.1959 530.88H52.8839V532H46.4679V531.168L49.6359 527.68C50.1159 527.147 50.4412 526.784 50.6119 526.592C50.7826 526.4 50.9639 526.128 51.1559 525.776C51.3586 525.424 51.4599 525.104 51.4599 524.816Z" fill="black"/>
</g>
<g clip-path="url(#clip3)">
<circle cx="50.0078" cy="612" r="28" fill="#C4C4C4"/>
<path d="M51.4638 606.816C51.4638 606.315 51.3038 605.915 50.9838 605.616C50.6638 605.307 50.2318 605.152 49.6878 605.152C49.1118 605.152 48.6585 605.333 48.3278 605.696C48.0078 606.048 47.8211 606.523 47.7678 607.12H46.4718C46.5678 606.192 46.9038 605.445 47.4798 604.88C48.0558 604.315 48.7918 604.032 49.6878 604.032C50.6158 604.032 51.3465 604.283 51.8798 604.784C52.4131 605.285 52.6798 605.957 52.6798 606.8C52.6798 606.949 52.6585 607.104 52.6158 607.264C52.5838 607.424 52.5465 607.563 52.5038 607.68C52.4718 607.797 52.4025 607.947 52.2958 608.128C52.1998 608.299 52.1251 608.427 52.0718 608.512C52.0185 608.597 51.9118 608.736 51.7518 608.928C51.5918 609.12 51.4851 609.248 51.4318 609.312C51.3785 609.376 51.2505 609.52 51.0478 609.744C50.8558 609.957 50.7385 610.091 50.6958 610.144L48.1998 612.88H52.8878V614H46.4718V613.168L49.6398 609.68C50.1198 609.147 50.4451 608.784 50.6158 608.592C50.7865 608.4 50.9678 608.128 51.1598 607.776C51.3625 607.424 51.4638 607.104 51.4638 606.816Z" fill="black"/>
</g>
<rect x="0.00390625" y="562" width="78" height="18" rx="9" fill="#828282"/>
<rect x="0.00390625" y="562" width="22" height="18" rx="9" fill="#BDBDBD"/>
<rect x="350.004" y="320" width="78" height="18" rx="9" fill="#828282"/>
<rect x="350.004" y="320" width="22" height="18" rx="9" fill="#BDBDBD"/>
<rect x="350.004" y="548" width="78" height="18" rx="9" fill="#828282"/>
<rect x="350.004" y="548" width="22" height="18" rx="9" fill="#BDBDBD"/>
<rect x="495.004" y="548" width="78" height="18" rx="9" fill="#828282"/>
<rect x="495.004" y="548" width="22" height="18" rx="9" fill="#BDBDBD"/>
<circle cx="394" cy="182" r="28" fill="#C4C4C4"/>
<path d="M395.456 176.816C395.456 176.315 395.296 175.915 394.976 175.616C394.656 175.307 394.224 175.152 393.68 175.152C393.104 175.152 392.651 175.333 392.32 175.696C392 176.048 391.813 176.523 391.76 177.12H390.464C390.56 176.192 390.896 175.445 391.472 174.88C392.048 174.315 392.784 174.032 393.68 174.032C394.608 174.032 395.339 174.283 395.872 174.784C396.405 175.285 396.672 175.957 396.672 176.8C396.672 176.949 396.651 177.104 396.608 177.264C396.576 177.424 396.539 177.563 396.496 177.68C396.464 177.797 396.395 177.947 396.288 178.128C396.192 178.299 396.117 178.427 396.064 178.512C396.011 178.597 395.904 178.736 395.744 178.928C395.584 179.12 395.477 179.248 395.424 179.312C395.371 179.376 395.243 179.52 395.04 179.744C394.848 179.957 394.731 180.091 394.688 180.144L392.192 182.88H396.88V184H390.464V183.168L393.632 179.68C394.112 179.147 394.437 178.784 394.608 178.592C394.779 178.4 394.96 178.128 395.152 177.776C395.355 177.424 395.456 177.104 395.456 176.816Z" fill="black"/>
<circle cx="117" cy="98" r="22" fill="#C4C4C4"/>
<path d="M113.064 93.16V103H111.832V94.68L109.4 95.928V94.648L112.312 93.16H113.064ZM114.474 104.712L115.482 103.016C115.012 102.941 114.778 102.675 114.778 102.216C114.778 101.971 114.858 101.768 115.018 101.608C115.188 101.448 115.396 101.368 115.642 101.368C115.887 101.368 116.09 101.453 116.25 101.624C116.41 101.784 116.49 102.008 116.49 102.296C116.49 102.595 116.372 102.931 116.138 103.304L115.29 104.712H114.474ZM120.683 97.72C119.989 97.72 119.408 98.0027 118.939 98.568H117.947V93.176H123.323V94.296H119.003V97.256C119.461 96.84 120.059 96.632 120.795 96.632C121.701 96.632 122.443 96.9413 123.019 97.56C123.595 98.168 123.883 98.9467 123.883 99.896C123.883 100.824 123.584 101.597 122.987 102.216C122.389 102.835 121.627 103.144 120.699 103.144C119.76 103.144 118.992 102.883 118.395 102.36C117.797 101.837 117.44 101.117 117.323 100.2H118.555C118.779 101.437 119.493 102.056 120.699 102.056C121.285 102.056 121.765 101.853 122.139 101.448C122.512 101.032 122.699 100.515 122.699 99.896C122.699 99.2773 122.512 98.76 122.139 98.344C121.765 97.928 121.28 97.72 120.683 97.72Z" fill="black"/>
<g clip-path="url(#clip4)">
<circle cx="194.004" cy="607" r="22" fill="#C4C4C4"/>
<path d="M190.068 602.16V612H188.836V603.68L186.404 604.928V603.648L189.316 602.16H190.068ZM191.478 613.712L192.486 612.016C192.016 611.941 191.782 611.675 191.782 611.216C191.782 610.971 191.862 610.768 192.022 610.608C192.192 610.448 192.4 610.368 192.646 610.368C192.891 610.368 193.094 610.453 193.254 610.624C193.414 610.784 193.494 611.008 193.494 611.296C193.494 611.595 193.376 611.931 193.142 612.304L192.294 613.712H191.478ZM197.687 606.72C196.993 606.72 196.412 607.003 195.943 607.568H194.951V602.176H200.327V603.296H196.007V606.256C196.465 605.84 197.063 605.632 197.799 605.632C198.705 605.632 199.447 605.941 200.023 606.56C200.599 607.168 200.887 607.947 200.887 608.896C200.887 609.824 200.588 610.597 199.991 611.216C199.393 611.835 198.631 612.144 197.703 612.144C196.764 612.144 195.996 611.883 195.399 611.36C194.801 610.837 194.444 610.117 194.327 609.2H195.559C195.783 610.437 196.497 611.056 197.703 611.056C198.289 611.056 198.769 610.853 199.143 610.448C199.516 610.032 199.703 609.515 199.703 608.896C199.703 608.277 199.516 607.76 199.143 607.344C198.769 606.928 198.284 606.72 197.687 606.72Z" fill="black"/>
</g>
<circle cx="167" cy="182" r="28" fill="#C4C4C4"/>
<path d="M168.456 176.816C168.456 176.315 168.296 175.915 167.976 175.616C167.656 175.307 167.224 175.152 166.68 175.152C166.104 175.152 165.651 175.333 165.32 175.696C165 176.048 164.813 176.523 164.76 177.12H163.464C163.56 176.192 163.896 175.445 164.472 174.88C165.048 174.315 165.784 174.032 166.68 174.032C167.608 174.032 168.339 174.283 168.872 174.784C169.405 175.285 169.672 175.957 169.672 176.8C169.672 176.949 169.651 177.104 169.608 177.264C169.576 177.424 169.539 177.563 169.496 177.68C169.464 177.797 169.395 177.947 169.288 178.128C169.192 178.299 169.117 178.427 169.064 178.512C169.011 178.597 168.904 178.736 168.744 178.928C168.584 179.12 168.477 179.248 168.424 179.312C168.371 179.376 168.243 179.52 168.04 179.744C167.848 179.957 167.731 180.091 167.688 180.144L165.192 182.88H169.88V184H163.464V183.168L166.632 179.68C167.112 179.147 167.437 178.784 167.608 178.592C167.779 178.4 167.96 178.128 168.152 177.776C168.355 177.424 168.456 177.104 168.456 176.816Z" fill="black"/>
<circle cx="124" cy="265" r="28" fill="#C4C4C4"/>
<path d="M125.456 259.816C125.456 259.315 125.296 258.915 124.976 258.616C124.656 258.307 124.224 258.152 123.68 258.152C123.104 258.152 122.651 258.333 122.32 258.696C122 259.048 121.813 259.523 121.76 260.12H120.464C120.56 259.192 120.896 258.445 121.472 257.88C122.048 257.315 122.784 257.032 123.68 257.032C124.608 257.032 125.339 257.283 125.872 257.784C126.405 258.285 126.672 258.957 126.672 259.8C126.672 259.949 126.651 260.104 126.608 260.264C126.576 260.424 126.539 260.563 126.496 260.68C126.464 260.797 126.395 260.947 126.288 261.128C126.192 261.299 126.117 261.427 126.064 261.512C126.011 261.597 125.904 261.736 125.744 261.928C125.584 262.12 125.477 262.248 125.424 262.312C125.371 262.376 125.243 262.52 125.04 262.744C124.848 262.957 124.731 263.091 124.688 263.144L122.192 265.88H126.88V267H120.464V266.168L123.632 262.68C124.112 262.147 124.437 261.784 124.608 261.592C124.779 261.4 124.96 261.128 125.152 260.776C125.355 260.424 125.456 260.104 125.456 259.816Z" fill="black"/>
<g clip-path="url(#clip5)">
<circle cx="124.004" cy="384" r="28" fill="#C4C4C4"/>
<path d="M125.46 378.816C125.46 378.315 125.3 377.915 124.98 377.616C124.66 377.307 124.228 377.152 123.684 377.152C123.108 377.152 122.655 377.333 122.324 377.696C122.004 378.048 121.817 378.523 121.764 379.12H120.468C120.564 378.192 120.9 377.445 121.476 376.88C122.052 376.315 122.788 376.032 123.684 376.032C124.612 376.032 125.343 376.283 125.876 376.784C126.409 377.285 126.676 377.957 126.676 378.8C126.676 378.949 126.655 379.104 126.612 379.264C126.58 379.424 126.543 379.563 126.5 379.68C126.468 379.797 126.399 379.947 126.292 380.128C126.196 380.299 126.121 380.427 126.068 380.512C126.015 380.597 125.908 380.736 125.748 380.928C125.588 381.12 125.481 381.248 125.428 381.312C125.375 381.376 125.247 381.52 125.044 381.744C124.852 381.957 124.735 382.091 124.692 382.144L122.196 384.88H126.884V386H120.468V385.168L123.636 381.68C124.116 381.147 124.441 380.784 124.612 380.592C124.783 380.4 124.964 380.128 125.156 379.776C125.359 379.424 125.46 379.104 125.46 378.816Z" fill="black"/>
</g>
<g clip-path="url(#clip6)">
<circle cx="311.004" cy="431" r="28" fill="#C4C4C4"/>
<path d="M312.46 425.816C312.46 425.315 312.3 424.915 311.98 424.616C311.66 424.307 311.228 424.152 310.684 424.152C310.108 424.152 309.655 424.333 309.324 424.696C309.004 425.048 308.817 425.523 308.764 426.12H307.468C307.564 425.192 307.9 424.445 308.476 423.88C309.052 423.315 309.788 423.032 310.684 423.032C311.612 423.032 312.343 423.283 312.876 423.784C313.409 424.285 313.676 424.957 313.676 425.8C313.676 425.949 313.655 426.104 313.612 426.264C313.58 426.424 313.543 426.563 313.5 426.68C313.468 426.797 313.399 426.947 313.292 427.128C313.196 427.299 313.121 427.427 313.068 427.512C313.015 427.597 312.908 427.736 312.748 427.928C312.588 428.12 312.481 428.248 312.428 428.312C312.375 428.376 312.247 428.52 312.044 428.744C311.852 428.957 311.735 429.091 311.692 429.144L309.196 431.88H313.884V433H307.468V432.168L310.636 428.68C311.116 428.147 311.441 427.784 311.612 427.592C311.783 427.4 311.964 427.128 312.156 426.776C312.359 426.424 312.46 426.104 312.46 425.816Z" fill="black"/>
</g>
<g clip-path="url(#clip7)">
<circle cx="467.004" cy="431" r="28" fill="#C4C4C4"/>
<path d="M468.46 425.816C468.46 425.315 468.3 424.915 467.98 424.616C467.66 424.307 467.228 424.152 466.684 424.152C466.108 424.152 465.655 424.333 465.324 424.696C465.004 425.048 464.817 425.523 464.764 426.12H463.468C463.564 425.192 463.9 424.445 464.476 423.88C465.052 423.315 465.788 423.032 466.684 423.032C467.612 423.032 468.343 423.283 468.876 423.784C469.409 424.285 469.676 424.957 469.676 425.8C469.676 425.949 469.655 426.104 469.612 426.264C469.58 426.424 469.543 426.563 469.5 426.68C469.468 426.797 469.399 426.947 469.292 427.128C469.196 427.299 469.121 427.427 469.068 427.512C469.015 427.597 468.908 427.736 468.748 427.928C468.588 428.12 468.481 428.248 468.428 428.312C468.375 428.376 468.247 428.52 468.044 428.744C467.852 428.957 467.735 429.091 467.692 429.144L465.196 431.88H469.884V433H463.468V432.168L466.636 428.68C467.116 428.147 467.441 427.784 467.612 427.592C467.783 427.4 467.964 427.128 468.156 426.776C468.359 426.424 468.46 426.104 468.46 425.816Z" fill="black"/>
</g>
<g clip-path="url(#clip8)">
<circle cx="534.004" cy="402" r="28" fill="#C4C4C4"/>
<path d="M535.46 396.816C535.46 396.315 535.3 395.915 534.98 395.616C534.66 395.307 534.228 395.152 533.684 395.152C533.108 395.152 532.655 395.333 532.324 395.696C532.004 396.048 531.817 396.523 531.764 397.12H530.468C530.564 396.192 530.9 395.445 531.476 394.88C532.052 394.315 532.788 394.032 533.684 394.032C534.612 394.032 535.343 394.283 535.876 394.784C536.409 395.285 536.676 395.957 536.676 396.8C536.676 396.949 536.655 397.104 536.612 397.264C536.58 397.424 536.543 397.563 536.5 397.68C536.468 397.797 536.399 397.947 536.292 398.128C536.196 398.299 536.121 398.427 536.068 398.512C536.015 398.597 535.908 398.736 535.748 398.928C535.588 399.12 535.481 399.248 535.428 399.312C535.375 399.376 535.247 399.52 535.044 399.744C534.852 399.957 534.735 400.091 534.692 400.144L532.196 402.88H536.884V404H530.468V403.168L533.636 399.68C534.116 399.147 534.441 398.784 534.612 398.592C534.783 398.4 534.964 398.128 535.156 397.776C535.359 397.424 535.46 397.104 535.46 396.816Z" fill="black"/>
</g>
<g clip-path="url(#clip9)">
<circle cx="389.004" cy="441" r="28" fill="#C4C4C4"/>
<path d="M390.46 435.816C390.46 435.315 390.3 434.915 389.98 434.616C389.66 434.307 389.228 434.152 388.684 434.152C388.108 434.152 387.655 434.333 387.324 434.696C387.004 435.048 386.817 435.523 386.764 436.12H385.468C385.564 435.192 385.9 434.445 386.476 433.88C387.052 433.315 387.788 433.032 388.684 433.032C389.612 433.032 390.343 433.283 390.876 433.784C391.409 434.285 391.676 434.957 391.676 435.8C391.676 435.949 391.655 436.104 391.612 436.264C391.58 436.424 391.543 436.563 391.5 436.68C391.468 436.797 391.399 436.947 391.292 437.128C391.196 437.299 391.121 437.427 391.068 437.512C391.015 437.597 390.908 437.736 390.748 437.928C390.588 438.12 390.481 438.248 390.428 438.312C390.375 438.376 390.247 438.52 390.044 438.744C389.852 438.957 389.735 439.091 389.692 439.144L387.196 441.88H391.884V443H385.468V442.168L388.636 438.68C389.116 438.147 389.441 437.784 389.612 437.592C389.783 437.4 389.964 437.128 390.156 436.776C390.359 436.424 390.46 436.104 390.46 435.816Z" fill="black"/>
</g>
<g clip-path="url(#clip10)">
<circle cx="311.004" cy="339" r="28" fill="#C4C4C4"/>
<path d="M312.46 333.816C312.46 333.315 312.3 332.915 311.98 332.616C311.66 332.307 311.228 332.152 310.684 332.152C310.108 332.152 309.655 332.333 309.324 332.696C309.004 333.048 308.817 333.523 308.764 334.12H307.468C307.564 333.192 307.9 332.445 308.476 331.88C309.052 331.315 309.788 331.032 310.684 331.032C311.612 331.032 312.343 331.283 312.876 331.784C313.409 332.285 313.676 332.957 313.676 333.8C313.676 333.949 313.655 334.104 313.612 334.264C313.58 334.424 313.543 334.563 313.5 334.68C313.468 334.797 313.399 334.947 313.292 335.128C313.196 335.299 313.121 335.427 313.068 335.512C313.015 335.597 312.908 335.736 312.748 335.928C312.588 336.12 312.481 336.248 312.428 336.312C312.375 336.376 312.247 336.52 312.044 336.744C311.852 336.957 311.735 337.091 311.692 337.144L309.196 339.88H313.884V341H307.468V340.168L310.636 336.68C311.116 336.147 311.441 335.784 311.612 335.592C311.783 335.4 311.964 335.128 312.156 334.776C312.359 334.424 312.46 334.104 312.46 333.816Z" fill="black"/>
</g>
<g clip-path="url(#clip11)">
<circle cx="467.004" cy="339" r="28" fill="#C4C4C4"/>
<path d="M468.46 333.816C468.46 333.315 468.3 332.915 467.98 332.616C467.66 332.307 467.228 332.152 466.684 332.152C466.108 332.152 465.655 332.333 465.324 332.696C465.004 333.048 464.817 333.523 464.764 334.12H463.468C463.564 333.192 463.9 332.445 464.476 331.88C465.052 331.315 465.788 331.032 466.684 331.032C467.612 331.032 468.343 331.283 468.876 331.784C469.409 332.285 469.676 332.957 469.676 333.8C469.676 333.949 469.655 334.104 469.612 334.264C469.58 334.424 469.543 334.563 469.5 334.68C469.468 334.797 469.399 334.947 469.292 335.128C469.196 335.299 469.121 335.427 469.068 335.512C469.015 335.597 468.908 335.736 468.748 335.928C468.588 336.12 468.481 336.248 468.428 336.312C468.375 336.376 468.247 336.52 468.044 336.744C467.852 336.957 467.735 337.091 467.692 337.144L465.196 339.88H469.884V341H463.468V340.168L466.636 336.68C467.116 336.147 467.441 335.784 467.612 335.592C467.783 335.4 467.964 335.128 468.156 334.776C468.359 334.424 468.46 334.104 468.46 333.816Z" fill="black"/>
</g>
<g clip-path="url(#clip12)">
<circle cx="389.004" cy="369" r="28" fill="#C4C4C4"/>
<path d="M390.46 363.816C390.46 363.315 390.3 362.915 389.98 362.616C389.66 362.307 389.228 362.152 388.684 362.152C388.108 362.152 387.655 362.333 387.324 362.696C387.004 363.048 386.817 363.523 386.764 364.12H385.468C385.564 363.192 385.9 362.445 386.476 361.88C387.052 361.315 387.788 361.032 388.684 361.032C389.612 361.032 390.343 361.283 390.876 361.784C391.409 362.285 391.676 362.957 391.676 363.8C391.676 363.949 391.655 364.104 391.612 364.264C391.58 364.424 391.543 364.563 391.5 364.68C391.468 364.797 391.399 364.947 391.292 365.128C391.196 365.299 391.121 365.427 391.068 365.512C391.015 365.597 390.908 365.736 390.748 365.928C390.588 366.12 390.481 366.248 390.428 366.312C390.375 366.376 390.247 366.52 390.044 366.744C389.852 366.957 389.735 367.091 389.692 367.144L387.196 369.88H391.884V371H385.468V370.168L388.636 366.68C389.116 366.147 389.441 365.784 389.612 365.592C389.783 365.4 389.964 365.128 390.156 364.776C390.359 364.424 390.46 364.104 390.46 363.816Z" fill="black"/>
</g>
<g clip-path="url(#clip13)">
<circle cx="124.004" cy="482" r="28" fill="#C4C4C4"/>
<path d="M125.46 476.816C125.46 476.315 125.3 475.915 124.98 475.616C124.66 475.307 124.228 475.152 123.684 475.152C123.108 475.152 122.655 475.333 122.324 475.696C122.004 476.048 121.817 476.523 121.764 477.12H120.468C120.564 476.192 120.9 475.445 121.476 474.88C122.052 474.315 122.788 474.032 123.684 474.032C124.612 474.032 125.343 474.283 125.876 474.784C126.409 475.285 126.676 475.957 126.676 476.8C126.676 476.949 126.655 477.104 126.612 477.264C126.58 477.424 126.543 477.563 126.5 477.68C126.468 477.797 126.399 477.947 126.292 478.128C126.196 478.299 126.121 478.427 126.068 478.512C126.015 478.597 125.908 478.736 125.748 478.928C125.588 479.12 125.481 479.248 125.428 479.312C125.375 479.376 125.247 479.52 125.044 479.744C124.852 479.957 124.735 480.091 124.692 480.144L122.196 482.88H126.884V484H120.468V483.168L123.636 479.68C124.116 479.147 124.441 478.784 124.612 478.592C124.783 478.4 124.964 478.128 125.156 477.776C125.359 477.424 125.46 477.104 125.46 476.816Z" fill="black"/>
</g>
<g clip-path="url(#clip14)">
<circle cx="311.004" cy="523" r="28" fill="#C4C4C4"/>
<path d="M312.46 517.816C312.46 517.315 312.3 516.915 311.98 516.616C311.66 516.307 311.228 516.152 310.684 516.152C310.108 516.152 309.655 516.333 309.324 516.696C309.004 517.048 308.817 517.523 308.764 518.12H307.468C307.564 517.192 307.9 516.445 308.476 515.88C309.052 515.315 309.788 515.032 310.684 515.032C311.612 515.032 312.343 515.283 312.876 515.784C313.409 516.285 313.676 516.957 313.676 517.8C313.676 517.949 313.655 518.104 313.612 518.264C313.58 518.424 313.543 518.563 313.5 518.68C313.468 518.797 313.399 518.947 313.292 519.128C313.196 519.299 313.121 519.427 313.068 519.512C313.015 519.597 312.908 519.736 312.748 519.928C312.588 520.12 312.481 520.248 312.428 520.312C312.375 520.376 312.247 520.52 312.044 520.744C311.852 520.957 311.735 521.091 311.692 521.144L309.196 523.88H313.884V525H307.468V524.168L310.636 520.68C311.116 520.147 311.441 519.784 311.612 519.592C311.783 519.4 311.964 519.128 312.156 518.776C312.359 518.424 312.46 518.104 312.46 517.816Z" fill="black"/>
</g>
<g clip-path="url(#clip15)">
<circle cx="467.004" cy="523" r="28" fill="#C4C4C4"/>
<path d="M468.46 517.816C468.46 517.315 468.3 516.915 467.98 516.616C467.66 516.307 467.228 516.152 466.684 516.152C466.108 516.152 465.655 516.333 465.324 516.696C465.004 517.048 464.817 517.523 464.764 518.12H463.468C463.564 517.192 463.9 516.445 464.476 515.88C465.052 515.315 465.788 515.032 466.684 515.032C467.612 515.032 468.343 515.283 468.876 515.784C469.409 516.285 469.676 516.957 469.676 517.8C469.676 517.949 469.655 518.104 469.612 518.264C469.58 518.424 469.543 518.563 469.5 518.68C469.468 518.797 469.399 518.947 469.292 519.128C469.196 519.299 469.121 519.427 469.068 519.512C469.015 519.597 468.908 519.736 468.748 519.928C468.588 520.12 468.481 520.248 468.428 520.312C468.375 520.376 468.247 520.52 468.044 520.744C467.852 520.957 467.735 521.091 467.692 521.144L465.196 523.88H469.884V525H463.468V524.168L466.636 520.68C467.116 520.147 467.441 519.784 467.612 519.592C467.783 519.4 467.964 519.128 468.156 518.776C468.359 518.424 468.46 518.104 468.46 517.816Z" fill="black"/>
</g>
<g clip-path="url(#clip16)">
<circle cx="534.004" cy="494" r="28" fill="#C4C4C4"/>
<path d="M535.46 488.816C535.46 488.315 535.3 487.915 534.98 487.616C534.66 487.307 534.228 487.152 533.684 487.152C533.108 487.152 532.655 487.333 532.324 487.696C532.004 488.048 531.817 488.523 531.764 489.12H530.468C530.564 488.192 530.9 487.445 531.476 486.88C532.052 486.315 532.788 486.032 533.684 486.032C534.612 486.032 535.343 486.283 535.876 486.784C536.409 487.285 536.676 487.957 536.676 488.8C536.676 488.949 536.655 489.104 536.612 489.264C536.58 489.424 536.543 489.563 536.5 489.68C536.468 489.797 536.399 489.947 536.292 490.128C536.196 490.299 536.121 490.427 536.068 490.512C536.015 490.597 535.908 490.736 535.748 490.928C535.588 491.12 535.481 491.248 535.428 491.312C535.375 491.376 535.247 491.52 535.044 491.744C534.852 491.957 534.735 492.091 534.692 492.144L532.196 494.88H536.884V496H530.468V495.168L533.636 491.68C534.116 491.147 534.441 490.784 534.612 490.592C534.783 490.4 534.964 490.128 535.156 489.776C535.359 489.424 535.46 489.104 535.46 488.816Z" fill="black"/>
</g>
<g clip-path="url(#clip17)">
<circle cx="389.004" cy="513" r="28" fill="#C4C4C4"/>
<path d="M390.46 507.816C390.46 507.315 390.3 506.915 389.98 506.616C389.66 506.307 389.228 506.152 388.684 506.152C388.108 506.152 387.655 506.333 387.324 506.696C387.004 507.048 386.817 507.523 386.764 508.12H385.468C385.564 507.192 385.9 506.445 386.476 505.88C387.052 505.315 387.788 505.032 388.684 505.032C389.612 505.032 390.343 505.283 390.876 505.784C391.409 506.285 391.676 506.957 391.676 507.8C391.676 507.949 391.655 508.104 391.612 508.264C391.58 508.424 391.543 508.563 391.5 508.68C391.468 508.797 391.399 508.947 391.292 509.128C391.196 509.299 391.121 509.427 391.068 509.512C391.015 509.597 390.908 509.736 390.748 509.928C390.588 510.12 390.481 510.248 390.428 510.312C390.375 510.376 390.247 510.52 390.044 510.744C389.852 510.957 389.735 511.091 389.692 511.144L387.196 513.88H391.884V515H385.468V514.168L388.636 510.68C389.116 510.147 389.441 509.784 389.612 509.592C389.783 509.4 389.964 509.128 390.156 508.776C390.359 508.424 390.46 508.104 390.46 507.816Z" fill="black"/>
</g>
<g clip-path="url(#clip18)">
<circle cx="124.004" cy="572" r="28" fill="#C4C4C4"/>
<path d="M125.46 566.816C125.46 566.315 125.3 565.915 124.98 565.616C124.66 565.307 124.228 565.152 123.684 565.152C123.108 565.152 122.655 565.333 122.324 565.696C122.004 566.048 121.817 566.523 121.764 567.12H120.468C120.564 566.192 120.9 565.445 121.476 564.88C122.052 564.315 122.788 564.032 123.684 564.032C124.612 564.032 125.343 564.283 125.876 564.784C126.409 565.285 126.676 565.957 126.676 566.8C126.676 566.949 126.655 567.104 126.612 567.264C126.58 567.424 126.543 567.563 126.5 567.68C126.468 567.797 126.399 567.947 126.292 568.128C126.196 568.299 126.121 568.427 126.068 568.512C126.015 568.597 125.908 568.736 125.748 568.928C125.588 569.12 125.481 569.248 125.428 569.312C125.375 569.376 125.247 569.52 125.044 569.744C124.852 569.957 124.735 570.091 124.692 570.144L122.196 572.88H126.884V574H120.468V573.168L123.636 569.68C124.116 569.147 124.441 568.784 124.612 568.592C124.783 568.4 124.964 568.128 125.156 567.776C125.359 567.424 125.46 567.104 125.46 566.816Z" fill="black"/>
</g>
<g clip-path="url(#clip19)">
<circle cx="311.004" cy="615" r="28" fill="#C4C4C4"/>
<path d="M312.46 609.816C312.46 609.315 312.3 608.915 311.98 608.616C311.66 608.307 311.228 608.152 310.684 608.152C310.108 608.152 309.655 608.333 309.324 608.696C309.004 609.048 308.817 609.523 308.764 610.12H307.468C307.564 609.192 307.9 608.445 308.476 607.88C309.052 607.315 309.788 607.032 310.684 607.032C311.612 607.032 312.343 607.283 312.876 607.784C313.409 608.285 313.676 608.957 313.676 609.8C313.676 609.949 313.655 610.104 313.612 610.264C313.58 610.424 313.543 610.563 313.5 610.68C313.468 610.797 313.399 610.947 313.292 611.128C313.196 611.299 313.121 611.427 313.068 611.512C313.015 611.597 312.908 611.736 312.748 611.928C312.588 612.12 312.481 612.248 312.428 612.312C312.375 612.376 312.247 612.52 312.044 612.744C311.852 612.957 311.735 613.091 311.692 613.144L309.196 615.88H313.884V617H307.468V616.168L310.636 612.68C311.116 612.147 311.441 611.784 311.612 611.592C311.783 611.4 311.964 611.128 312.156 610.776C312.359 610.424 312.46 610.104 312.46 609.816Z" fill="black"/>
</g>
<circle cx="201" cy="265" r="28" fill="#C4C4C4"/>
<path d="M202.456 259.816C202.456 259.315 202.296 258.915 201.976 258.616C201.656 258.307 201.224 258.152 200.68 258.152C200.104 258.152 199.651 258.333 199.32 258.696C199 259.048 198.813 259.523 198.76 260.12H197.464C197.56 259.192 197.896 258.445 198.472 257.88C199.048 257.315 199.784 257.032 200.68 257.032C201.608 257.032 202.339 257.283 202.872 257.784C203.405 258.285 203.672 258.957 203.672 259.8C203.672 259.949 203.651 260.104 203.608 260.264C203.576 260.424 203.539 260.563 203.496 260.68C203.464 260.797 203.395 260.947 203.288 261.128C203.192 261.299 203.117 261.427 203.064 261.512C203.011 261.597 202.904 261.736 202.744 261.928C202.584 262.12 202.477 262.248 202.424 262.312C202.371 262.376 202.243 262.52 202.04 262.744C201.848 262.957 201.731 263.091 201.688 263.144L199.192 265.88H203.88V267H197.464V266.168L200.632 262.68C201.112 262.147 201.437 261.784 201.608 261.592C201.779 261.4 201.96 261.128 202.152 260.776C202.355 260.424 202.456 260.104 202.456 259.816Z" fill="black"/>
<circle cx="305" cy="265" r="28" fill="#C4C4C4"/>
<path d="M306.456 259.816C306.456 259.315 306.296 258.915 305.976 258.616C305.656 258.307 305.224 258.152 304.68 258.152C304.104 258.152 303.651 258.333 303.32 258.696C303 259.048 302.813 259.523 302.76 260.12H301.464C301.56 259.192 301.896 258.445 302.472 257.88C303.048 257.315 303.784 257.032 304.68 257.032C305.608 257.032 306.339 257.283 306.872 257.784C307.405 258.285 307.672 258.957 307.672 259.8C307.672 259.949 307.651 260.104 307.608 260.264C307.576 260.424 307.539 260.563 307.496 260.68C307.464 260.797 307.395 260.947 307.288 261.128C307.192 261.299 307.117 261.427 307.064 261.512C307.011 261.597 306.904 261.736 306.744 261.928C306.584 262.12 306.477 262.248 306.424 262.312C306.371 262.376 306.243 262.52 306.04 262.744C305.848 262.957 305.731 263.091 305.688 263.144L303.192 265.88H307.88V267H301.464V266.168L304.632 262.68C305.112 262.147 305.437 261.784 305.608 261.592C305.779 261.4 305.96 261.128 306.152 260.776C306.355 260.424 306.456 260.104 306.456 259.816Z" fill="black"/>
<circle cx="409" cy="265" r="28" fill="#C4C4C4"/>
<path d="M410.456 259.816C410.456 259.315 410.296 258.915 409.976 258.616C409.656 258.307 409.224 258.152 408.68 258.152C408.104 258.152 407.651 258.333 407.32 258.696C407 259.048 406.813 259.523 406.76 260.12H405.464C405.56 259.192 405.896 258.445 406.472 257.88C407.048 257.315 407.784 257.032 408.68 257.032C409.608 257.032 410.339 257.283 410.872 257.784C411.405 258.285 411.672 258.957 411.672 259.8C411.672 259.949 411.651 260.104 411.608 260.264C411.576 260.424 411.539 260.563 411.496 260.68C411.464 260.797 411.395 260.947 411.288 261.128C411.192 261.299 411.117 261.427 411.064 261.512C411.011 261.597 410.904 261.736 410.744 261.928C410.584 262.12 410.477 262.248 410.424 262.312C410.371 262.376 410.243 262.52 410.04 262.744C409.848 262.957 409.731 263.091 409.688 263.144L407.192 265.88H411.88V267H405.464V266.168L408.632 262.68C409.112 262.147 409.437 261.784 409.608 261.592C409.779 261.4 409.96 261.128 410.152 260.776C410.355 260.424 410.456 260.104 410.456 259.816Z" fill="black"/>
<circle cx="540" cy="265" r="28" fill="#C4C4C4"/>
<path d="M541.456 259.816C541.456 259.315 541.296 258.915 540.976 258.616C540.656 258.307 540.224 258.152 539.68 258.152C539.104 258.152 538.651 258.333 538.32 258.696C538 259.048 537.813 259.523 537.76 260.12H536.464C536.56 259.192 536.896 258.445 537.472 257.88C538.048 257.315 538.784 257.032 539.68 257.032C540.608 257.032 541.339 257.283 541.872 257.784C542.405 258.285 542.672 258.957 542.672 259.8C542.672 259.949 542.651 260.104 542.608 260.264C542.576 260.424 542.539 260.563 542.496 260.68C542.464 260.797 542.395 260.947 542.288 261.128C542.192 261.299 542.117 261.427 542.064 261.512C542.011 261.597 541.904 261.736 541.744 261.928C541.584 262.12 541.477 262.248 541.424 262.312C541.371 262.376 541.243 262.52 541.04 262.744C540.848 262.957 540.731 263.091 540.688 263.144L538.192 265.88H542.88V267H536.464V266.168L539.632 262.68C540.112 262.147 540.437 261.784 540.608 261.592C540.779 261.4 540.96 261.128 541.152 260.776C541.355 260.424 541.456 260.104 541.456 259.816Z" fill="black"/>
<circle cx="644" cy="265" r="28" fill="#C4C4C4"/>
<path d="M645.456 259.816C645.456 259.315 645.296 258.915 644.976 258.616C644.656 258.307 644.224 258.152 643.68 258.152C643.104 258.152 642.651 258.333 642.32 258.696C642 259.048 641.813 259.523 641.76 260.12H640.464C640.56 259.192 640.896 258.445 641.472 257.88C642.048 257.315 642.784 257.032 643.68 257.032C644.608 257.032 645.339 257.283 645.872 257.784C646.405 258.285 646.672 258.957 646.672 259.8C646.672 259.949 646.651 260.104 646.608 260.264C646.576 260.424 646.539 260.563 646.496 260.68C646.464 260.797 646.395 260.947 646.288 261.128C646.192 261.299 646.117 261.427 646.064 261.512C646.011 261.597 645.904 261.736 645.744 261.928C645.584 262.12 645.477 262.248 645.424 262.312C645.371 262.376 645.243 262.52 645.04 262.744C644.848 262.957 644.731 263.091 644.688 263.144L642.192 265.88H646.88V267H640.464V266.168L643.632 262.68C644.112 262.147 644.437 261.784 644.608 261.592C644.779 261.4 644.96 261.128 645.152 260.776C645.355 260.424 645.456 260.104 645.456 259.816Z" fill="black"/>
<circle cx="748" cy="265" r="28" fill="#C4C4C4"/>
<path d="M749.456 259.816C749.456 259.315 749.296 258.915 748.976 258.616C748.656 258.307 748.224 258.152 747.68 258.152C747.104 258.152 746.651 258.333 746.32 258.696C746 259.048 745.813 259.523 745.76 260.12H744.464C744.56 259.192 744.896 258.445 745.472 257.88C746.048 257.315 746.784 257.032 747.68 257.032C748.608 257.032 749.339 257.283 749.872 257.784C750.405 258.285 750.672 258.957 750.672 259.8C750.672 259.949 750.651 260.104 750.608 260.264C750.576 260.424 750.539 260.563 750.496 260.68C750.464 260.797 750.395 260.947 750.288 261.128C750.192 261.299 750.117 261.427 750.064 261.512C750.011 261.597 749.904 261.736 749.744 261.928C749.584 262.12 749.477 262.248 749.424 262.312C749.371 262.376 749.243 262.52 749.04 262.744C748.848 262.957 748.731 263.091 748.688 263.144L746.192 265.88H750.88V267H744.464V266.168L747.632 262.68C748.112 262.147 748.437 261.784 748.608 261.592C748.779 261.4 748.96 261.128 749.152 260.776C749.355 260.424 749.456 260.104 749.456 259.816Z" fill="black"/>
<circle cx="388" cy="98" r="22" fill="#C4C4C4"/>
<path d="M384.064 93.16V103H382.832V94.68L380.4 95.928V94.648L383.312 93.16H384.064ZM385.474 104.712L386.482 103.016C386.012 102.941 385.778 102.675 385.778 102.216C385.778 101.971 385.858 101.768 386.018 101.608C386.188 101.448 386.396 101.368 386.642 101.368C386.887 101.368 387.09 101.453 387.25 101.624C387.41 101.784 387.49 102.008 387.49 102.296C387.49 102.595 387.372 102.931 387.138 103.304L386.29 104.712H385.474ZM391.683 97.72C390.989 97.72 390.408 98.0027 389.939 98.568H388.947V93.176H394.323V94.296H390.003V97.256C390.461 96.84 391.059 96.632 391.795 96.632C392.701 96.632 393.443 96.9413 394.019 97.56C394.595 98.168 394.883 98.9467 394.883 99.896C394.883 100.824 394.584 101.597 393.987 102.216C393.389 102.835 392.627 103.144 391.699 103.144C390.76 103.144 389.992 102.883 389.395 102.36C388.797 101.837 388.44 101.117 388.323 100.2H389.555C389.779 101.437 390.493 102.056 391.699 102.056C392.285 102.056 392.765 101.853 393.139 101.448C393.512 101.032 393.699 100.515 393.699 99.896C393.699 99.2773 393.512 98.76 393.139 98.344C392.765 97.928 392.28 97.72 391.683 97.72Z" fill="black"/>
<circle cx="790" cy="98" r="22" fill="#C4C4C4"/>
<path d="M786.064 93.16V103H784.832V94.68L782.4 95.928V94.648L785.312 93.16H786.064ZM787.474 104.712L788.482 103.016C788.012 102.941 787.778 102.675 787.778 102.216C787.778 101.971 787.858 101.768 788.018 101.608C788.188 101.448 788.396 101.368 788.642 101.368C788.887 101.368 789.09 101.453 789.25 101.624C789.41 101.784 789.49 102.008 789.49 102.296C789.49 102.595 789.372 102.931 789.138 103.304L788.29 104.712H787.474ZM793.683 97.72C792.989 97.72 792.408 98.0027 791.939 98.568H790.947V93.176H796.323V94.296H792.003V97.256C792.461 96.84 793.059 96.632 793.795 96.632C794.701 96.632 795.443 96.9413 796.019 97.56C796.595 98.168 796.883 98.9467 796.883 99.896C796.883 100.824 796.584 101.597 795.987 102.216C795.389 102.835 794.627 103.144 793.699 103.144C792.76 103.144 791.992 102.883 791.395 102.36C790.797 101.837 790.44 101.117 790.323 100.2H791.555C791.779 101.437 792.493 102.056 793.699 102.056C794.285 102.056 794.765 101.853 795.139 101.448C795.512 101.032 795.699 100.515 795.699 99.896C795.699 99.2773 795.512 98.76 795.139 98.344C794.765 97.928 794.28 97.72 793.683 97.72Z" fill="black"/>
<rect x="306" y="129" width="60" height="18" rx="9" fill="#828282"/>
<rect x="306" y="129" width="22" height="18" rx="9" fill="#BDBDBD"/>
<circle cx="50" cy="357" r="28" fill="#C4C4C4"/>
<path d="M51.456 351.816C51.456 351.315 51.296 350.915 50.976 350.616C50.656 350.307 50.224 350.152 49.68 350.152C49.104 350.152 48.6507 350.333 48.32 350.696C48 351.048 47.8133 351.523 47.76 352.12H46.464C46.56 351.192 46.896 350.445 47.472 349.88C48.048 349.315 48.784 349.032 49.68 349.032C50.608 349.032 51.3387 349.283 51.872 349.784C52.4053 350.285 52.672 350.957 52.672 351.8C52.672 351.949 52.6507 352.104 52.608 352.264C52.576 352.424 52.5387 352.563 52.496 352.68C52.464 352.797 52.3947 352.947 52.288 353.128C52.192 353.299 52.1173 353.427 52.064 353.512C52.0107 353.597 51.904 353.736 51.744 353.928C51.584 354.12 51.4773 354.248 51.424 354.312C51.3707 354.376 51.2427 354.52 51.04 354.744C50.848 354.957 50.7307 355.091 50.688 355.144L48.192 357.88H52.88V359H46.464V358.168L49.632 354.68C50.112 354.147 50.4373 353.784 50.608 353.592C50.7787 353.4 50.96 353.128 51.152 352.776C51.3547 352.424 51.456 352.104 51.456 351.816Z" fill="black"/>
<rect y="307" width="78" height="18" rx="9" fill="#828282"/>
<rect y="307" width="22" height="18" rx="9" fill="#BDBDBD"/>
<rect y="389" width="78" height="18" rx="9" fill="#828282"/>
<rect y="389" width="22" height="18" rx="9" fill="#BDBDBD"/>
<circle cx="50" cy="441" r="28" fill="#C4C4C4"/>
<path d="M51.456 435.816C51.456 435.315 51.296 434.915 50.976 434.616C50.656 434.307 50.224 434.152 49.68 434.152C49.104 434.152 48.6507 434.333 48.32 434.696C48 435.048 47.8133 435.523 47.76 436.12H46.464C46.56 435.192 46.896 434.445 47.472 433.88C48.048 433.315 48.784 433.032 49.68 433.032C50.608 433.032 51.3387 433.283 51.872 433.784C52.4053 434.285 52.672 434.957 52.672 435.8C52.672 435.949 52.6507 436.104 52.608 436.264C52.576 436.424 52.5387 436.563 52.496 436.68C52.464 436.797 52.3947 436.947 52.288 437.128C52.192 437.299 52.1173 437.427 52.064 437.512C52.0107 437.597 51.904 437.736 51.744 437.928C51.584 438.12 51.4773 438.248 51.424 438.312C51.3707 438.376 51.2427 438.52 51.04 438.744C50.848 438.957 50.7307 439.091 50.688 439.144L48.192 441.88H52.88V443H46.464V442.168L49.632 438.68C50.112 438.147 50.4373 437.784 50.608 437.592C50.7787 437.4 50.96 437.128 51.152 436.776C51.3547 436.424 51.456 436.104 51.456 435.816Z" fill="black"/>
<rect y="473" width="78" height="18" rx="9" fill="#828282"/>
<rect y="473" width="22" height="18" rx="9" fill="#BDBDBD"/>
<circle cx="50" cy="441" r="28" fill="#C4C4C4"/>
<path d="M51.456 435.816C51.456 435.315 51.296 434.915 50.976 434.616C50.656 434.307 50.224 434.152 49.68 434.152C49.104 434.152 48.6507 434.333 48.32 434.696C48 435.048 47.8133 435.523 47.76 436.12H46.464C46.56 435.192 46.896 434.445 47.472 433.88C48.048 433.315 48.784 433.032 49.68 433.032C50.608 433.032 51.3387 433.283 51.872 433.784C52.4053 434.285 52.672 434.957 52.672 435.8C52.672 435.949 52.6507 436.104 52.608 436.264C52.576 436.424 52.5387 436.563 52.496 436.68C52.464 436.797 52.3947 436.947 52.288 437.128C52.192 437.299 52.1173 437.427 52.064 437.512C52.0107 437.597 51.904 437.736 51.744 437.928C51.584 438.12 51.4773 438.248 51.424 438.312C51.3707 438.376 51.2427 438.52 51.04 438.744C50.848 438.957 50.7307 439.091 50.688 439.144L48.192 441.88H52.88V443H46.464V442.168L49.632 438.68C50.112 438.147 50.4373 437.784 50.608 437.592C50.7787 437.4 50.96 437.128 51.152 436.776C51.3547 436.424 51.456 436.104 51.456 435.816Z" fill="black"/>
<rect y="473" width="78" height="18" rx="9" fill="#828282"/>
<rect y="473" width="22" height="18" rx="9" fill="#BDBDBD"/>
<rect x="708" y="129" width="60" height="18" rx="9" fill="#828282"/>
<rect x="708" y="129" width="22" height="18" rx="9" fill="#BDBDBD"/>
<rect x="426" y="129" width="60" height="18" rx="9" fill="#828282"/>
<rect x="426" y="129" width="22" height="18" rx="9" fill="#BDBDBD"/>
<rect x="828" y="129" width="60" height="18" rx="9" fill="#828282"/>
<rect x="828" y="129" width="22" height="18" rx="9" fill="#BDBDBD"/>
<rect width="69" height="56" fill="#E0E0E0"/>
<path d="M24.256 23.584C24.256 24.1173 24.096 24.5333 23.776 24.832C23.456 25.1307 23.0453 25.3333 22.544 25.44V25.504C23.0773 25.5787 23.5413 25.7707 23.936 26.08C24.3307 26.3787 24.528 26.848 24.528 27.488C24.528 28.2133 24.256 28.816 23.712 29.296C23.1787 29.7653 22.2933 30 21.056 30H17.36V21.424H21.04C21.648 21.424 22.192 21.4933 22.672 21.632C23.1627 21.76 23.5467 21.984 23.824 22.304C24.112 22.6133 24.256 23.04 24.256 23.584ZM22.832 23.76C22.832 23.3547 22.6827 23.0613 22.384 22.88C22.096 22.688 21.6213 22.592 20.96 22.592H18.768V24.944H20.704C22.1227 24.944 22.832 24.5493 22.832 23.76ZM23.072 27.488C23.072 26.9973 22.8853 26.6453 22.512 26.432C22.1387 26.2187 21.5893 26.112 20.864 26.112H18.768V28.864H20.896C21.6 28.864 22.1387 28.7627 22.512 28.56C22.8853 28.3467 23.072 27.9893 23.072 27.488ZM28.6108 25.616L25.6508 21.424H27.2508L29.4588 24.656L31.6508 21.424H33.2348L30.2748 25.616L33.3948 30H31.7948L29.4588 26.576L27.0908 30H25.5068L28.6108 25.616ZM42.191 25.696C42.191 27.1147 41.8283 28.2133 41.103 28.992C40.3883 29.7707 39.4177 30.16 38.191 30.16C37.4337 30.16 36.7563 29.9893 36.159 29.648C35.5723 29.296 35.1083 28.7893 34.767 28.128C34.4257 27.456 34.255 26.6453 34.255 25.696C34.255 24.2773 34.6123 23.184 35.327 22.416C36.0417 21.648 37.0123 21.264 38.239 21.264C39.0177 21.264 39.7003 21.44 40.287 21.792C40.8843 22.1333 41.3483 22.6347 41.679 23.296C42.0203 23.9467 42.191 24.7467 42.191 25.696ZM35.711 25.696C35.711 26.7093 35.9083 27.5147 36.303 28.112C36.7083 28.6987 37.3483 28.992 38.223 28.992C39.087 28.992 39.7217 28.6987 40.127 28.112C40.5323 27.5147 40.735 26.7093 40.735 25.696C40.735 24.6827 40.5323 23.888 40.127 23.312C39.7217 22.736 39.0817 22.448 38.207 22.448C37.3323 22.448 36.6977 22.736 36.303 23.312C35.9083 23.888 35.711 24.6827 35.711 25.696ZM50.7905 21.424V28.816H52.0385V32.976H50.6785V30H44.7105V32.976H43.3665V28.816H44.0545C44.7905 27.8027 45.3398 26.6507 45.7025 25.36C46.0758 24.0587 46.2678 22.7467 46.2785 21.424H50.7905ZM49.4305 22.528H47.5265C47.4838 23.2533 47.3718 24.0053 47.1905 24.784C47.0092 25.552 46.7745 26.288 46.4865 26.992C46.2092 27.696 45.8838 28.304 45.5105 28.816H49.4305V22.528Z" fill="black"/>
<rect width="124" height="56" transform="translate(152)" fill="#E0E0E0"/>
<path d="M174.48 17.84V21.296C175.333 21.3707 176.075 21.5947 176.704 21.968C177.344 22.3413 177.84 22.8427 178.192 23.472C178.544 24.1013 178.72 24.848 178.72 25.712C178.72 27.0027 178.341 28.032 177.584 28.8C176.837 29.568 175.803 30.0107 174.48 30.128V33.84H173.104V30.128C172.261 30.0533 171.52 29.8347 170.88 29.472C170.24 29.0987 169.744 28.5973 169.392 27.968C169.04 27.328 168.864 26.576 168.864 25.712C168.864 24.4107 169.237 23.376 169.984 22.608C170.741 21.84 171.797 21.4027 173.152 21.296V17.84H174.48ZM173.152 22.464C172.171 22.56 171.456 22.8853 171.008 23.44C170.56 23.984 170.336 24.7413 170.336 25.712C170.336 26.6827 170.56 27.4453 171.008 28C171.467 28.5547 172.181 28.88 173.152 28.976V22.464ZM174.48 22.48V28.976C175.44 28.8693 176.144 28.5387 176.592 27.984C177.04 27.4293 177.264 26.672 177.264 25.712C177.264 24.752 177.035 24 176.576 23.456C176.128 22.912 175.429 22.5867 174.48 22.48ZM188.41 25.696C188.41 27.1147 188.047 28.2133 187.322 28.992C186.607 29.7707 185.636 30.16 184.41 30.16C183.652 30.16 182.975 29.9893 182.378 29.648C181.791 29.296 181.327 28.7893 180.986 28.128C180.644 27.456 180.474 26.6453 180.474 25.696C180.474 24.2773 180.831 23.184 181.546 22.416C182.26 21.648 183.231 21.264 184.458 21.264C185.236 21.264 185.919 21.44 186.506 21.792C187.103 22.1333 187.567 22.6347 187.898 23.296C188.239 23.9467 188.41 24.7467 188.41 25.696ZM181.93 25.696C181.93 26.7093 182.127 27.5147 182.522 28.112C182.927 28.6987 183.567 28.992 184.442 28.992C185.306 28.992 185.94 28.6987 186.346 28.112C186.751 27.5147 186.954 26.7093 186.954 25.696C186.954 24.6827 186.751 23.888 186.346 23.312C185.94 22.736 185.3 22.448 184.426 22.448C183.551 22.448 182.916 22.736 182.522 23.312C182.127 23.888 181.93 24.6827 181.93 25.696ZM191.969 21.424V26.656C191.969 26.784 191.964 26.976 191.953 27.232C191.943 27.488 191.927 27.744 191.905 28C191.895 28.256 191.884 28.4587 191.873 28.608L196.465 21.424H198.193V30H196.881V24.944C196.881 24.7733 196.881 24.5493 196.881 24.272C196.892 23.9947 196.903 23.7227 196.913 23.456C196.924 23.1787 196.935 22.9707 196.945 22.832L192.385 30H190.641V21.424H191.969ZM197.585 17.872C197.511 18.672 197.239 19.28 196.769 19.696C196.311 20.1013 195.575 20.304 194.561 20.304C193.516 20.304 192.775 20.1013 192.337 19.696C191.911 19.2907 191.671 18.6827 191.617 17.872H192.929C192.983 18.448 193.132 18.8373 193.377 19.04C193.633 19.232 194.039 19.328 194.593 19.328C195.084 19.328 195.468 19.2267 195.745 19.024C196.033 18.8107 196.204 18.4267 196.257 17.872H197.585ZM204.235 21.264C204.971 21.264 205.6 21.424 206.123 21.744C206.656 22.064 207.061 22.5173 207.339 23.104C207.627 23.68 207.771 24.3573 207.771 25.136V25.984H201.899C201.92 26.9547 202.165 27.696 202.635 28.208C203.115 28.7093 203.781 28.96 204.635 28.96C205.179 28.96 205.659 28.912 206.075 28.816C206.501 28.7093 206.939 28.56 207.387 28.368V29.6C206.949 29.792 206.517 29.9307 206.091 30.016C205.664 30.112 205.157 30.16 204.571 30.16C203.76 30.16 203.04 29.9947 202.411 29.664C201.792 29.3333 201.307 28.8427 200.955 28.192C200.613 27.5307 200.443 26.7253 200.443 25.776C200.443 24.8373 200.597 24.032 200.907 23.36C201.227 22.688 201.669 22.1707 202.235 21.808C202.811 21.4453 203.477 21.264 204.235 21.264ZM204.219 22.416C203.547 22.416 203.013 22.6347 202.619 23.072C202.235 23.4987 202.005 24.096 201.931 24.864H206.299C206.288 24.1387 206.117 23.552 205.787 23.104C205.456 22.6453 204.933 22.416 204.219 22.416ZM212.205 31.344L216.173 19.6H217.373L213.405 31.344H212.205ZM228.872 30H227.448V22.592H224.92C224.782 24.3947 224.59 25.8507 224.344 26.96C224.099 28.0587 223.774 28.8587 223.368 29.36C222.963 29.8613 222.451 30.112 221.832 30.112C221.694 30.112 221.555 30.1013 221.416 30.08C221.288 30.0693 221.182 30.0427 221.096 30V28.944C221.16 28.9653 221.23 28.9813 221.304 28.992C221.379 29.0027 221.454 29.008 221.528 29.008C222.104 29.008 222.563 28.3947 222.904 27.168C223.256 25.9413 223.523 24.0267 223.704 21.424H228.872V30ZM232.922 21.424V26.656C232.922 26.784 232.917 26.976 232.906 27.232C232.896 27.488 232.88 27.744 232.858 28C232.848 28.256 232.837 28.4587 232.826 28.608L237.418 21.424H239.146V30H237.834V24.944C237.834 24.7733 237.834 24.5493 237.834 24.272C237.845 23.9947 237.856 23.7227 237.866 23.456C237.877 23.1787 237.888 22.9707 237.898 22.832L233.338 30H231.594V21.424H232.922ZM246.996 17.84V21.296C247.849 21.3707 248.59 21.5947 249.22 21.968C249.86 22.3413 250.356 22.8427 250.708 23.472C251.06 24.1013 251.236 24.848 251.236 25.712C251.236 27.0027 250.857 28.032 250.1 28.8C249.353 29.568 248.318 30.0107 246.996 30.128V33.84H245.62V30.128C244.777 30.0533 244.036 29.8347 243.396 29.472C242.756 29.0987 242.26 28.5973 241.908 27.968C241.556 27.328 241.38 26.576 241.38 25.712C241.38 24.4107 241.753 23.376 242.5 22.608C243.257 21.84 244.313 21.4027 245.668 21.296V17.84H246.996ZM245.668 22.464C244.686 22.56 243.972 22.8853 243.524 23.44C243.076 23.984 242.852 24.7413 242.852 25.712C242.852 26.6827 243.076 27.4453 243.524 28C243.982 28.5547 244.697 28.88 245.668 28.976V22.464ZM246.996 22.48V28.976C247.956 28.8693 248.66 28.5387 249.108 27.984C249.556 27.4293 249.78 26.672 249.78 25.712C249.78 24.752 249.55 24 249.092 23.456C248.644 22.912 247.945 22.5867 246.996 22.48ZM259.233 22.608H256.433V30H255.041V22.608H252.273V21.424H259.233V22.608Z" fill="black"/>
<rect width="83" height="56" transform="translate(439)" fill="#E0E0E0"/>
<path d="M462.28 22.608H459.48V30H458.088V22.608H455.32V21.424H462.28V22.608ZM462.625 21.424H464.129L465.985 26.304C466.145 26.7307 466.289 27.1413 466.417 27.536C466.545 27.92 466.641 28.288 466.705 28.64H466.769C466.833 28.3733 466.935 28.0267 467.073 27.6C467.212 27.1627 467.356 26.7253 467.505 26.288L469.249 21.424H470.769L467.073 31.184C466.775 31.9947 466.385 32.64 465.905 33.12C465.436 33.6 464.785 33.84 463.953 33.84C463.697 33.84 463.473 33.824 463.281 33.792C463.089 33.7707 462.924 33.744 462.785 33.712V32.592C462.903 32.6133 463.041 32.6347 463.201 32.656C463.372 32.6773 463.548 32.688 463.729 32.688C464.22 32.688 464.615 32.5493 464.913 32.272C465.223 31.9947 465.463 31.6267 465.633 31.168L466.081 30.032L462.625 21.424ZM475.374 21.28C476.419 21.28 477.192 21.5093 477.694 21.968C478.195 22.4267 478.446 23.1573 478.446 24.16V30H477.422L477.15 28.784H477.086C476.712 29.2533 476.318 29.6 475.902 29.824C475.496 30.048 474.931 30.16 474.206 30.16C473.427 30.16 472.782 29.9573 472.27 29.552C471.758 29.136 471.502 28.4907 471.502 27.616C471.502 26.7627 471.838 26.1067 472.51 25.648C473.182 25.1787 474.216 24.9227 475.614 24.88L477.07 24.832V24.32C477.07 23.6053 476.915 23.1093 476.606 22.832C476.296 22.5547 475.859 22.416 475.294 22.416C474.846 22.416 474.419 22.4853 474.014 22.624C473.608 22.752 473.23 22.9013 472.878 23.072L472.446 22.016C472.819 21.8133 473.262 21.6427 473.774 21.504C474.286 21.3547 474.819 21.28 475.374 21.28ZM477.054 25.808L475.79 25.856C474.723 25.8987 473.982 26.0693 473.566 26.368C473.16 26.6667 472.958 27.088 472.958 27.632C472.958 28.112 473.102 28.464 473.39 28.688C473.688 28.912 474.067 29.024 474.526 29.024C475.251 29.024 475.854 28.8267 476.334 28.432C476.814 28.0267 477.054 27.408 477.054 26.576V25.808ZM487.622 30H486.198V22.592H483.67C483.532 24.3947 483.34 25.8507 483.094 26.96C482.849 28.0587 482.524 28.8587 482.118 29.36C481.713 29.8613 481.201 30.112 480.582 30.112C480.444 30.112 480.305 30.1013 480.166 30.08C480.038 30.0693 479.932 30.0427 479.846 30V28.944C479.91 28.9653 479.98 28.9813 480.054 28.992C480.129 29.0027 480.204 29.008 480.278 29.008C480.854 29.008 481.313 28.3947 481.654 27.168C482.006 25.9413 482.273 24.0267 482.454 21.424H487.622V30ZM493.656 21.264C494.392 21.264 495.022 21.424 495.544 21.744C496.078 22.064 496.483 22.5173 496.76 23.104C497.048 23.68 497.192 24.3573 497.192 25.136V25.984H491.32C491.342 26.9547 491.587 27.696 492.056 28.208C492.536 28.7093 493.203 28.96 494.056 28.96C494.6 28.96 495.08 28.912 495.496 28.816C495.923 28.7093 496.36 28.56 496.808 28.368V29.6C496.371 29.792 495.939 29.9307 495.512 30.016C495.086 30.112 494.579 30.16 493.992 30.16C493.182 30.16 492.462 29.9947 491.832 29.664C491.214 29.3333 490.728 28.8427 490.376 28.192C490.035 27.5307 489.864 26.7253 489.864 25.776C489.864 24.8373 490.019 24.032 490.328 23.36C490.648 22.688 491.091 22.1707 491.656 21.808C492.232 21.4453 492.899 21.264 493.656 21.264ZM493.64 22.416C492.968 22.416 492.435 22.6347 492.04 23.072C491.656 23.4987 491.427 24.096 491.352 24.864H495.72C495.71 24.1387 495.539 23.552 495.208 23.104C494.878 22.6453 494.355 22.416 493.64 22.416ZM505.296 22.608H502.496V30H501.104V22.608H498.336V21.424H505.296V22.608Z" fill="black"/>
<rect width="181" height="56" transform="translate(503 118)" fill="#E0E0E0"/>
<path d="M537.068 136.576H538.412V142.848C538.412 143.2 538.407 143.595 538.396 144.032C538.385 144.469 538.369 144.869 538.348 145.232C538.337 145.595 538.321 145.861 538.3 146.032H538.364L544.652 136.576H546.252V148H544.908V141.792C544.908 141.397 544.913 140.976 544.924 140.528C544.945 140.08 544.967 139.669 544.988 139.296C545.009 138.923 545.025 138.656 545.036 138.496H544.972L538.668 148H537.068V136.576ZM550.549 139.424V142.992H555.205V139.424H556.613V148H555.205V144.176H550.549V148H549.141V139.424H550.549ZM565.249 140.608H562.449V148H561.057V140.608H558.289V139.424H565.249V140.608ZM570.094 139.264C570.83 139.264 571.459 139.424 571.982 139.744C572.515 140.064 572.921 140.517 573.198 141.104C573.486 141.68 573.63 142.357 573.63 143.136V143.984H567.758C567.779 144.955 568.025 145.696 568.494 146.208C568.974 146.709 569.641 146.96 570.494 146.96C571.038 146.96 571.518 146.912 571.934 146.816C572.361 146.709 572.798 146.56 573.246 146.368V147.6C572.809 147.792 572.377 147.931 571.95 148.016C571.523 148.112 571.017 148.16 570.43 148.16C569.619 148.16 568.899 147.995 568.27 147.664C567.651 147.333 567.166 146.843 566.814 146.192C566.473 145.531 566.302 144.725 566.302 143.776C566.302 142.837 566.457 142.032 566.766 141.36C567.086 140.688 567.529 140.171 568.094 139.808C568.67 139.445 569.337 139.264 570.094 139.264ZM570.078 140.416C569.406 140.416 568.873 140.635 568.478 141.072C568.094 141.499 567.865 142.096 567.79 142.864H572.158C572.147 142.139 571.977 141.552 571.646 141.104C571.315 140.645 570.793 140.416 570.078 140.416ZM579.893 139.264C580.949 139.264 581.797 139.632 582.437 140.368C583.088 141.104 583.413 142.213 583.413 143.696C583.413 145.157 583.088 146.267 582.437 147.024C581.797 147.781 580.944 148.16 579.877 148.16C579.216 148.16 578.666 148.037 578.229 147.792C577.802 147.536 577.466 147.243 577.221 146.912H577.125C577.146 147.093 577.168 147.323 577.189 147.6C577.21 147.877 577.221 148.117 577.221 148.32V151.84H575.813V139.424H576.965L577.157 140.592H577.221C577.477 140.219 577.813 139.904 578.229 139.648C578.645 139.392 579.2 139.264 579.893 139.264ZM579.637 140.448C578.762 140.448 578.144 140.693 577.781 141.184C577.429 141.675 577.242 142.421 577.221 143.424V143.696C577.221 144.752 577.392 145.568 577.733 146.144C578.085 146.709 578.73 146.992 579.669 146.992C580.192 146.992 580.618 146.848 580.949 146.56C581.29 146.272 581.541 145.883 581.701 145.392C581.872 144.891 581.957 144.32 581.957 143.68C581.957 142.699 581.765 141.915 581.381 141.328C581.008 140.741 580.426 140.448 579.637 140.448ZM587.065 139.424V142.992H591.721V139.424H593.129V148H591.721V144.176H587.065V148H585.657V139.424H587.065ZM599.156 139.264C599.892 139.264 600.522 139.424 601.044 139.744C601.578 140.064 601.983 140.517 602.26 141.104C602.548 141.68 602.692 142.357 602.692 143.136V143.984H596.82C596.842 144.955 597.087 145.696 597.556 146.208C598.036 146.709 598.703 146.96 599.556 146.96C600.1 146.96 600.58 146.912 600.996 146.816C601.423 146.709 601.86 146.56 602.308 146.368V147.6C601.871 147.792 601.439 147.931 601.012 148.016C600.586 148.112 600.079 148.16 599.492 148.16C598.682 148.16 597.962 147.995 597.332 147.664C596.714 147.333 596.228 146.843 595.876 146.192C595.535 145.531 595.364 144.725 595.364 143.776C595.364 142.837 595.519 142.032 595.828 141.36C596.148 140.688 596.591 140.171 597.156 139.808C597.732 139.445 598.399 139.264 599.156 139.264ZM599.14 140.416C598.468 140.416 597.935 140.635 597.54 141.072C597.156 141.499 596.927 142.096 596.852 142.864H601.22C601.21 142.139 601.039 141.552 600.708 141.104C600.378 140.645 599.855 140.416 599.14 140.416ZM610.796 140.608H607.996V148H606.604V140.608H603.836V139.424H610.796V140.608ZM618.272 139.264C619.254 139.264 620.032 139.461 620.608 139.856C621.195 140.24 621.488 140.795 621.488 141.52C621.488 142.043 621.344 142.459 621.056 142.768C620.768 143.067 620.374 143.285 619.872 143.424V143.488C620.214 143.584 620.528 143.717 620.816 143.888C621.104 144.059 621.334 144.283 621.504 144.56C621.686 144.837 621.776 145.195 621.776 145.632C621.776 146.347 621.478 146.949 620.88 147.44C620.294 147.92 619.371 148.16 618.112 148.16C617.494 148.16 616.934 148.107 616.432 148C615.931 147.904 615.515 147.771 615.184 147.6V146.336C615.547 146.507 615.974 146.661 616.464 146.8C616.966 146.939 617.51 147.008 618.096 147.008C618.736 147.008 619.275 146.901 619.712 146.688C620.16 146.464 620.384 146.085 620.384 145.552C620.384 144.592 619.568 144.112 617.936 144.112H616.784V142.96H617.712C618.448 142.96 619.035 142.864 619.472 142.672C619.92 142.469 620.144 142.128 620.144 141.648C620.144 141.243 619.974 140.939 619.632 140.736C619.302 140.533 618.822 140.432 618.192 140.432C617.723 140.432 617.307 140.48 616.944 140.576C616.592 140.661 616.203 140.795 615.776 140.976L615.28 139.856C616.176 139.461 617.174 139.264 618.272 139.264ZM631.316 143.696C631.316 145.115 630.953 146.213 630.228 146.992C629.513 147.771 628.543 148.16 627.316 148.16C626.559 148.16 625.881 147.989 625.284 147.648C624.697 147.296 624.233 146.789 623.892 146.128C623.551 145.456 623.38 144.645 623.38 143.696C623.38 142.277 623.737 141.184 624.452 140.416C625.167 139.648 626.137 139.264 627.364 139.264C628.143 139.264 628.825 139.44 629.412 139.792C630.009 140.133 630.473 140.635 630.804 141.296C631.145 141.947 631.316 142.747 631.316 143.696ZM624.836 143.696C624.836 144.709 625.033 145.515 625.428 146.112C625.833 146.699 626.473 146.992 627.348 146.992C628.212 146.992 628.847 146.699 629.252 146.112C629.657 145.515 629.86 144.709 629.86 143.696C629.86 142.683 629.657 141.888 629.252 141.312C628.847 140.736 628.207 140.448 627.332 140.448C626.457 140.448 625.823 140.736 625.428 141.312C625.033 141.888 624.836 142.683 624.836 143.696ZM634.956 139.424V142.992H639.612V139.424H641.02V148H639.612V144.176H634.956V148H633.548V139.424H634.956ZM646.983 139.28C648.028 139.28 648.802 139.509 649.303 139.968C649.804 140.427 650.055 141.157 650.055 142.16V148H649.031L648.759 146.784H648.695C648.322 147.253 647.927 147.6 647.511 147.824C647.106 148.048 646.54 148.16 645.815 148.16C645.036 148.16 644.391 147.957 643.879 147.552C643.367 147.136 643.111 146.491 643.111 145.616C643.111 144.763 643.447 144.107 644.119 143.648C644.791 143.179 645.826 142.923 647.223 142.88L648.679 142.832V142.32C648.679 141.605 648.524 141.109 648.215 140.832C647.906 140.555 647.468 140.416 646.903 140.416C646.455 140.416 646.028 140.485 645.623 140.624C645.218 140.752 644.839 140.901 644.487 141.072L644.055 140.016C644.428 139.813 644.871 139.643 645.383 139.504C645.895 139.355 646.428 139.28 646.983 139.28ZM648.663 143.808L647.399 143.856C646.332 143.899 645.591 144.069 645.175 144.368C644.77 144.667 644.567 145.088 644.567 145.632C644.567 146.112 644.711 146.464 644.999 146.688C645.298 146.912 645.676 147.024 646.135 147.024C646.86 147.024 647.463 146.827 647.943 146.432C648.423 146.027 648.663 145.408 648.663 144.576V143.808Z" fill="black"/>
<rect width="139" height="56" transform="translate(888 315) rotate(-90)" fill="#E0E0E0"/>
<path d="M918 297.448L906.576 297.448L906.576 290.664L907.84 290.664L907.84 296.008L911.408 296.008L911.408 294.312C911.408 293.171 911.552 292.285 911.84 291.656C912.117 291.027 912.501 290.589 912.992 290.344C913.472 290.099 914.027 289.976 914.656 289.976C915.701 289.976 916.523 290.291 917.12 290.92C917.707 291.549 918 292.611 918 294.104L918 297.448ZM916.768 296.008L916.768 294.248C916.768 293.224 916.597 292.504 916.256 292.088C915.904 291.672 915.371 291.464 914.656 291.464C913.92 291.464 913.403 291.693 913.104 292.152C912.805 292.611 912.656 293.389 912.656 294.488L912.656 296.008L916.768 296.008ZM909.424 286.468L914.656 286.468C914.784 286.468 914.976 286.474 915.232 286.484C915.488 286.495 915.744 286.511 916 286.532C916.256 286.543 916.459 286.554 916.608 286.564L909.424 281.972L909.424 280.244L918 280.244L918 281.556L912.944 281.556C912.773 281.556 912.549 281.556 912.272 281.556C911.995 281.546 911.723 281.535 911.456 281.524C911.179 281.514 910.971 281.503 910.832 281.492L918 286.052L918 287.796L909.424 287.796L909.424 286.468ZM909.264 275.259C909.264 274.278 909.461 273.499 909.856 272.923C910.24 272.336 910.795 272.043 911.52 272.043C912.043 272.043 912.459 272.187 912.768 272.475C913.067 272.763 913.285 273.158 913.424 273.659L913.488 273.659C913.584 273.318 913.717 273.003 913.888 272.715C914.059 272.427 914.283 272.198 914.56 272.027C914.837 271.846 915.195 271.755 915.632 271.755C916.347 271.755 916.949 272.054 917.44 272.651C917.92 273.238 918.16 274.16 918.16 275.419C918.16 276.038 918.107 276.598 918 277.099C917.904 277.6 917.771 278.016 917.6 278.347L916.336 278.347C916.507 277.984 916.661 277.558 916.8 277.067C916.939 276.566 917.008 276.022 917.008 275.435C917.008 274.795 916.901 274.256 916.688 273.819C916.464 273.371 916.085 273.147 915.552 273.147C914.592 273.147 914.112 273.963 914.112 275.595L914.112 276.747L912.96 276.747L912.96 275.819C912.96 275.083 912.864 274.496 912.672 274.059C912.469 273.611 912.128 273.387 911.648 273.387C911.243 273.387 910.939 273.558 910.736 273.899C910.533 274.23 910.432 274.71 910.432 275.339C910.432 275.808 910.48 276.224 910.576 276.587C910.661 276.939 910.795 277.328 910.976 277.755L909.856 278.251C909.461 277.355 909.264 276.358 909.264 275.259ZM909.424 268.263L912.992 268.263L912.992 263.607L909.424 263.607L909.424 262.199L918 262.199L918 263.607L914.176 263.607L914.176 268.263L918 268.263L918 269.671L909.424 269.671L909.424 268.263ZM909.264 256.172C909.264 255.436 909.424 254.806 909.744 254.284C910.064 253.75 910.517 253.345 911.104 253.068C911.68 252.78 912.357 252.636 913.136 252.636L913.984 252.636L913.984 258.508C914.955 258.486 915.696 258.241 916.208 257.772C916.709 257.292 916.96 256.625 916.96 255.772C916.96 255.228 916.912 254.748 916.816 254.332C916.709 253.905 916.56 253.468 916.368 253.02L917.6 253.02C917.792 253.457 917.931 253.889 918.016 254.316C918.112 254.742 918.16 255.249 918.16 255.836C918.16 256.646 917.995 257.366 917.664 257.996C917.333 258.614 916.843 259.1 916.192 259.452C915.531 259.793 914.725 259.964 913.776 259.964C912.837 259.964 912.032 259.809 911.36 259.5C910.688 259.18 910.171 258.737 909.808 258.172C909.445 257.596 909.264 256.929 909.264 256.172ZM910.416 256.188C910.416 256.86 910.635 257.393 911.072 257.788C911.499 258.172 912.096 258.401 912.864 258.476L912.864 254.108C912.139 254.118 911.552 254.289 911.104 254.62C910.645 254.95 910.416 255.473 910.416 256.188ZM918.16 247.012C918.16 247.77 918.005 248.447 917.696 249.044C917.387 249.631 916.907 250.095 916.256 250.436C915.605 250.767 914.773 250.932 913.76 250.932C912.704 250.932 911.845 250.756 911.184 250.404C910.523 250.052 910.037 249.578 909.728 248.98C909.419 248.372 909.264 247.684 909.264 246.916C909.264 246.479 909.312 246.058 909.408 245.652C909.493 245.247 909.6 244.916 909.728 244.66L910.896 245.092C910.8 245.348 910.709 245.647 910.624 245.988C910.539 246.33 910.496 246.65 910.496 246.948C910.496 248.634 911.579 249.476 913.744 249.476C914.779 249.476 915.573 249.274 916.128 248.868C916.672 248.452 916.944 247.839 916.944 247.028C916.944 246.559 916.896 246.148 916.8 245.796C916.704 245.434 916.587 245.103 916.448 244.804L917.696 244.804C917.845 245.092 917.957 245.412 918.032 245.764C918.117 246.106 918.16 246.522 918.16 247.012ZM914.384 243.485L913.264 243.485L913.264 239.629L914.384 239.629L914.384 243.485ZM920.976 229.16L920.976 230.536L918 230.536L918 237.624L909.424 237.624L909.424 236.216L916.816 236.216L916.816 231.784L909.424 231.784L909.424 230.376L916.832 230.376L916.832 229.16L920.976 229.16ZM909.264 224.203C909.264 223.467 909.424 222.838 909.744 222.315C910.064 221.782 910.517 221.376 911.104 221.099C911.68 220.811 912.357 220.667 913.136 220.667L913.984 220.667L913.984 226.539C914.955 226.518 915.696 226.272 916.208 225.803C916.709 225.323 916.96 224.656 916.96 223.803C916.96 223.259 916.912 222.779 916.816 222.363C916.709 221.936 916.56 221.499 916.368 221.051L917.6 221.051C917.792 221.488 917.931 221.92 918.016 222.347C918.112 222.774 918.16 223.28 918.16 223.867C918.16 224.678 917.995 225.398 917.664 226.027C917.333 226.646 916.843 227.131 916.192 227.483C915.531 227.824 914.725 227.995 913.776 227.995C912.837 227.995 912.032 227.84 911.36 227.531C910.688 227.211 910.171 226.768 909.808 226.203C909.445 225.627 909.264 224.96 909.264 224.203ZM910.416 224.219C910.416 224.891 910.635 225.424 911.072 225.819C911.499 226.203 912.096 226.432 912.864 226.507L912.864 222.139C912.139 222.15 911.552 222.32 911.104 222.651C910.645 222.982 910.416 223.504 910.416 224.219ZM909.424 217.076L912.992 217.076L912.992 212.42L909.424 212.42L909.424 211.012L918 211.012L918 212.42L914.176 212.42L914.176 217.076L918 217.076L918 218.484L909.424 218.484L909.424 217.076ZM910.608 202.376L910.608 205.176L918 205.176L918 206.568L910.608 206.568L910.608 209.336L909.424 209.336L909.424 202.376L910.608 202.376ZM909.264 196.607C909.264 195.551 909.632 194.703 910.368 194.063C911.104 193.412 912.213 193.087 913.696 193.087C915.157 193.087 916.267 193.412 917.024 194.063C917.781 194.703 918.16 195.556 918.16 196.623C918.16 197.284 918.037 197.834 917.792 198.271C917.536 198.698 917.243 199.034 916.912 199.279L916.912 199.375C917.093 199.354 917.323 199.332 917.6 199.311C917.877 199.29 918.117 199.279 918.32 199.279L921.84 199.279L921.84 200.687L909.424 200.687L909.424 199.535L910.592 199.343L910.592 199.279C910.219 199.023 909.904 198.687 909.648 198.271C909.392 197.855 909.264 197.3 909.264 196.607ZM910.448 196.863C910.448 197.738 910.693 198.356 911.184 198.719C911.675 199.071 912.421 199.258 913.424 199.279L913.696 199.279C914.752 199.279 915.568 199.108 916.144 198.767C916.709 198.415 916.992 197.77 916.992 196.831C916.992 196.308 916.848 195.882 916.56 195.551C916.272 195.21 915.883 194.959 915.392 194.799C914.891 194.628 914.32 194.543 913.68 194.543C912.699 194.543 911.915 194.735 911.328 195.119C910.741 195.492 910.448 196.074 910.448 196.863Z" fill="black"/>
<rect width="86" height="56" transform="translate(888 442) rotate(-90)" fill="#E0E0E0"/>
<path d="M918 416.224L918 417.664L907.84 417.664L907.84 421.28C908.629 421.376 909.461 421.483 910.336 421.6C911.2 421.717 912.027 421.835 912.816 421.952C913.605 422.069 914.277 422.187 914.832 422.304C915.547 422.443 916.155 422.613 916.656 422.816C917.157 423.019 917.536 423.291 917.792 423.632C918.048 423.963 918.176 424.4 918.176 424.944C918.176 425.125 918.155 425.312 918.112 425.504C918.08 425.685 918.037 425.845 917.984 425.984L916.784 425.984C916.837 425.867 916.885 425.733 916.928 425.584C916.96 425.435 916.976 425.275 916.976 425.104C916.976 424.784 916.848 424.533 916.592 424.352C916.325 424.16 916 424.011 915.616 423.904C915.221 423.797 914.832 423.707 914.448 423.632C914.043 423.547 913.451 423.445 912.672 423.328C911.883 423.2 910.965 423.067 909.92 422.928C908.875 422.779 907.76 422.629 906.576 422.48L906.576 416.224L918 416.224ZM909.424 411.984L914.656 411.984C914.784 411.984 914.976 411.989 915.232 412C915.488 412.011 915.744 412.027 916 412.048C916.256 412.059 916.459 412.069 916.608 412.08L909.424 407.488L909.424 405.76L918 405.76L918 407.072L912.944 407.072C912.773 407.072 912.549 407.072 912.272 407.072C911.995 407.061 911.723 407.051 911.456 407.04C911.179 407.029 910.971 407.019 910.832 407.008L918 411.568L918 413.312L909.424 413.312L909.424 411.984ZM905.84 397.911L909.296 397.911C909.371 397.057 909.595 396.316 909.968 395.687C910.341 395.047 910.843 394.551 911.472 394.199C912.101 393.847 912.848 393.671 913.712 393.671C915.003 393.671 916.032 394.049 916.8 394.807C917.568 395.553 918.011 396.588 918.128 397.911L921.84 397.911L921.84 399.287L918.128 399.287C918.053 400.129 917.835 400.871 917.472 401.511C917.099 402.151 916.597 402.647 915.968 402.999C915.328 403.351 914.576 403.527 913.712 403.527C912.411 403.527 911.376 403.153 910.608 402.407C909.84 401.649 909.403 400.593 909.296 399.239L905.84 399.239L905.84 397.911ZM910.464 399.239C910.56 400.22 910.885 400.935 911.44 401.383C911.984 401.831 912.741 402.055 913.712 402.055C914.683 402.055 915.445 401.831 916 401.383C916.555 400.924 916.88 400.209 916.976 399.239L910.464 399.239ZM910.48 397.911L916.976 397.911C916.869 396.951 916.539 396.247 915.984 395.799C915.429 395.351 914.672 395.127 913.712 395.127C912.752 395.127 912 395.356 911.456 395.815C910.912 396.263 910.587 396.961 910.48 397.911ZM910.608 385.673L910.608 388.473L918 388.473L918 389.865L910.608 389.865L910.608 392.633L909.424 392.633L909.424 385.673L910.608 385.673ZM918 383.984L909.424 383.984L909.424 382.576L912.944 382.576L912.944 380.352C912.944 379.242 913.147 378.421 913.552 377.888C913.957 377.354 914.565 377.088 915.376 377.088C916.176 377.088 916.816 377.349 917.296 377.872C917.765 378.394 918 379.242 918 380.416L918 383.984ZM918 375.664L909.424 375.664L909.424 374.256L918 374.256L918 375.664ZM916.864 382.576L916.864 380.544C916.864 379.936 916.763 379.44 916.56 379.056C916.347 378.672 915.979 378.48 915.456 378.48C914.933 378.48 914.581 378.656 914.4 379.008C914.208 379.36 914.112 379.866 914.112 380.528L914.112 382.576L916.864 382.576Z" fill="black"/>
<rect width="112" height="56" transform="translate(753 594)" fill="#E0E0E0"/>
<path d="M779.288 624H777.848V618.672H771.992V624H770.552V612.576H771.992V617.408H777.848V612.576H779.288V624ZM785.467 615.28C786.513 615.28 787.286 615.509 787.787 615.968C788.289 616.427 788.539 617.157 788.539 618.16V624H787.515L787.243 622.784H787.179C786.806 623.253 786.411 623.6 785.995 623.824C785.59 624.048 785.025 624.16 784.299 624.16C783.521 624.16 782.875 623.957 782.363 623.552C781.851 623.136 781.595 622.491 781.595 621.616C781.595 620.763 781.931 620.107 782.603 619.648C783.275 619.179 784.31 618.923 785.707 618.88L787.163 618.832V618.32C787.163 617.605 787.009 617.109 786.699 616.832C786.39 616.555 785.953 616.416 785.387 616.416C784.939 616.416 784.513 616.485 784.107 616.624C783.702 616.752 783.323 616.901 782.971 617.072L782.539 616.016C782.913 615.813 783.355 615.643 783.867 615.504C784.379 615.355 784.913 615.28 785.467 615.28ZM787.147 619.808L785.883 619.856C784.817 619.899 784.075 620.069 783.659 620.368C783.254 620.667 783.051 621.088 783.051 621.632C783.051 622.112 783.195 622.464 783.483 622.688C783.782 622.912 784.161 623.024 784.619 623.024C785.345 623.024 785.947 622.827 786.427 622.432C786.907 622.027 787.147 621.408 787.147 620.576V619.808ZM795.268 615.264C796.324 615.264 797.172 615.632 797.812 616.368C798.463 617.104 798.788 618.213 798.788 619.696C798.788 621.157 798.463 622.267 797.812 623.024C797.172 623.781 796.319 624.16 795.252 624.16C794.591 624.16 794.041 624.037 793.604 623.792C793.177 623.536 792.841 623.243 792.596 622.912H792.5C792.521 623.093 792.543 623.323 792.564 623.6C792.585 623.877 792.596 624.117 792.596 624.32V627.84H791.188V615.424H792.34L792.532 616.592H792.596C792.852 616.219 793.188 615.904 793.604 615.648C794.02 615.392 794.575 615.264 795.268 615.264ZM795.012 616.448C794.137 616.448 793.519 616.693 793.156 617.184C792.804 617.675 792.617 618.421 792.596 619.424V619.696C792.596 620.752 792.767 621.568 793.108 622.144C793.46 622.709 794.105 622.992 795.044 622.992C795.567 622.992 795.993 622.848 796.324 622.56C796.665 622.272 796.916 621.883 797.076 621.392C797.247 620.891 797.332 620.32 797.332 619.68C797.332 618.699 797.14 617.915 796.756 617.328C796.383 616.741 795.801 616.448 795.012 616.448ZM801.032 624V615.424H802.44V618.944H804.664C805.773 618.944 806.595 619.147 807.128 619.552C807.661 619.957 807.928 620.565 807.928 621.376C807.928 622.176 807.667 622.816 807.144 623.296C806.621 623.765 805.773 624 804.6 624H801.032ZM809.352 624V615.424H810.76V624H809.352ZM802.44 622.864H804.472C805.08 622.864 805.576 622.763 805.96 622.56C806.344 622.347 806.536 621.979 806.536 621.456C806.536 620.933 806.36 620.581 806.008 620.4C805.656 620.208 805.149 620.112 804.488 620.112H802.44V622.864ZM816.925 624.16C816.168 624.16 815.49 624.005 814.893 623.696C814.306 623.387 813.842 622.907 813.501 622.256C813.17 621.605 813.005 620.773 813.005 619.76C813.005 618.704 813.181 617.845 813.533 617.184C813.885 616.523 814.36 616.037 814.957 615.728C815.565 615.419 816.253 615.264 817.021 615.264C817.458 615.264 817.88 615.312 818.285 615.408C818.69 615.493 819.021 615.6 819.277 615.728L818.845 616.896C818.589 616.8 818.29 616.709 817.949 616.624C817.608 616.539 817.288 616.496 816.989 616.496C815.304 616.496 814.461 617.579 814.461 619.744C814.461 620.779 814.664 621.573 815.069 622.128C815.485 622.672 816.098 622.944 816.909 622.944C817.378 622.944 817.789 622.896 818.141 622.8C818.504 622.704 818.834 622.587 819.133 622.448V623.696C818.845 623.845 818.525 623.957 818.173 624.032C817.832 624.117 817.416 624.16 816.925 624.16ZM830.624 616.608H827.824V624H826.432V616.608H823.664V615.424H830.624V616.608ZM835.561 615.28C836.606 615.28 837.38 615.509 837.881 615.968C838.382 616.427 838.633 617.157 838.633 618.16V624H837.609L837.337 622.784H837.273C836.9 623.253 836.505 623.6 836.089 623.824C835.684 624.048 835.118 624.16 834.393 624.16C833.614 624.16 832.969 623.957 832.457 623.552C831.945 623.136 831.689 622.491 831.689 621.616C831.689 620.763 832.025 620.107 832.697 619.648C833.369 619.179 834.404 618.923 835.801 618.88L837.257 618.832V618.32C837.257 617.605 837.102 617.109 836.793 616.832C836.484 616.555 836.046 616.416 835.481 616.416C835.033 616.416 834.606 616.485 834.201 616.624C833.796 616.752 833.417 616.901 833.065 617.072L832.633 616.016C833.006 615.813 833.449 615.643 833.961 615.504C834.473 615.355 835.006 615.28 835.561 615.28ZM837.241 619.808L835.977 619.856C834.91 619.899 834.169 620.069 833.753 620.368C833.348 620.667 833.145 621.088 833.145 621.632C833.145 622.112 833.289 622.464 833.577 622.688C833.876 622.912 834.254 623.024 834.713 623.024C835.438 623.024 836.041 622.827 836.521 622.432C837.001 622.027 837.241 621.408 837.241 620.576V619.808ZM839.938 615.424H841.442L843.298 620.304C843.458 620.731 843.602 621.141 843.73 621.536C843.858 621.92 843.954 622.288 844.018 622.64H844.082C844.146 622.373 844.247 622.027 844.386 621.6C844.525 621.163 844.669 620.725 844.818 620.288L846.562 615.424H848.082L844.386 625.184C844.087 625.995 843.698 626.64 843.218 627.12C842.749 627.6 842.098 627.84 841.266 627.84C841.01 627.84 840.786 627.824 840.594 627.792C840.402 627.771 840.237 627.744 840.098 627.712V626.592C840.215 626.613 840.354 626.635 840.514 626.656C840.685 626.677 840.861 626.688 841.042 626.688C841.533 626.688 841.927 626.549 842.226 626.272C842.535 625.995 842.775 625.627 842.946 625.168L843.394 624.032L839.938 615.424Z" fill="black"/>
<rect width="154" height="56" transform="translate(778.004 403) rotate(90)" fill="#E0E0E0"/>
<path d="M747.844 462.8C747.844 462.043 747.999 461.365 748.308 460.768C748.617 460.181 749.097 459.717 749.748 459.376C750.399 459.045 751.231 458.88 752.244 458.88C753.3 458.88 754.159 459.056 754.82 459.408C755.481 459.76 755.967 460.235 756.276 460.832C756.585 461.44 756.74 462.128 756.74 462.896C756.74 463.333 756.692 463.755 756.596 464.16C756.511 464.565 756.404 464.896 756.276 465.152L755.108 464.72C755.204 464.464 755.295 464.165 755.38 463.824C755.465 463.483 755.508 463.163 755.508 462.864C755.508 461.179 754.425 460.336 752.26 460.336C751.225 460.336 750.431 460.539 749.876 460.944C749.332 461.36 749.06 461.973 749.06 462.784C749.06 463.253 749.108 463.664 749.204 464.016C749.3 464.379 749.417 464.709 749.556 465.008L748.308 465.008C748.159 464.72 748.047 464.4 747.972 464.048C747.887 463.707 747.844 463.291 747.844 462.8ZM755.396 472.967L755.396 470.167L748.004 470.167L748.004 468.775L755.396 468.775L755.396 466.007L756.58 466.007L756.58 472.967L755.396 472.967ZM756.74 477.813C756.74 478.549 756.58 479.178 756.26 479.701C755.94 480.234 755.487 480.639 754.9 480.917C754.324 481.205 753.647 481.349 752.868 481.349L752.02 481.349L752.02 475.477C751.049 475.498 750.308 475.743 749.796 476.213C749.295 476.693 749.044 477.359 749.044 478.213C749.044 478.757 749.092 479.237 749.188 479.653C749.295 480.079 749.444 480.517 749.636 480.965L748.404 480.965C748.212 480.527 748.073 480.095 747.988 479.669C747.892 479.242 747.844 478.735 747.844 478.149C747.844 477.338 748.009 476.618 748.34 475.989C748.671 475.37 749.161 474.885 749.812 474.533C750.473 474.191 751.279 474.021 752.228 474.021C753.167 474.021 753.972 474.175 754.644 474.485C755.316 474.805 755.833 475.247 756.196 475.813C756.559 476.389 756.74 477.055 756.74 477.813ZM755.588 477.797C755.588 477.125 755.369 476.591 754.932 476.197C754.505 475.813 753.908 475.583 753.14 475.509L753.14 479.877C753.865 479.866 754.452 479.695 754.9 479.365C755.359 479.034 755.588 478.511 755.588 477.797ZM756.58 484.94L753.012 484.94L753.012 489.596L756.58 489.596L756.58 491.004L748.004 491.004L748.004 489.596L751.828 489.596L751.828 484.94L748.004 484.94L748.004 483.532L756.58 483.532L756.58 484.94ZM756.724 496.967C756.724 498.013 756.495 498.786 756.036 499.287C755.577 499.789 754.847 500.039 753.844 500.039L748.004 500.039L748.004 499.015L749.22 498.743L749.22 498.679C748.751 498.306 748.404 497.911 748.18 497.495C747.956 497.09 747.844 496.525 747.844 495.799C747.844 495.021 748.047 494.375 748.452 493.863C748.868 493.351 749.513 493.095 750.388 493.095C751.241 493.095 751.897 493.431 752.356 494.103C752.825 494.775 753.081 495.81 753.124 497.207L753.172 498.663L753.684 498.663C754.399 498.663 754.895 498.509 755.172 498.199C755.449 497.89 755.588 497.453 755.588 496.887C755.588 496.439 755.519 496.013 755.38 495.607C755.252 495.202 755.103 494.823 754.932 494.471L755.988 494.039C756.191 494.413 756.361 494.855 756.5 495.367C756.649 495.879 756.724 496.413 756.724 496.967ZM752.196 498.647L752.148 497.383C752.105 496.317 751.935 495.575 751.636 495.159C751.337 494.754 750.916 494.551 750.372 494.551C749.892 494.551 749.54 494.695 749.316 494.983C749.092 495.282 748.98 495.661 748.98 496.119C748.98 496.845 749.177 497.447 749.572 497.927C749.977 498.407 750.596 498.647 751.428 498.647L752.196 498.647Z" fill="black"/>
<rect width="109" height="35" transform="translate(790.004 557) rotate(-90)" fill="#E0E0E0"/>
<path d="M802.572 514.704L808.116 514.704L808.116 513.768L811.236 513.768L811.236 514.788L809.004 514.788L809.004 519.264L811.236 519.264L811.236 520.272L808.116 520.272L808.116 519.756C807.356 519.204 806.492 518.792 805.524 518.52C804.548 518.24 803.564 518.096 802.572 518.088L802.572 514.704ZM803.4 515.724L803.4 517.152C803.944 517.184 804.508 517.268 805.092 517.404C805.668 517.54 806.22 517.716 806.748 517.932C807.276 518.14 807.732 518.384 808.116 518.664L808.116 515.724L803.4 515.724ZM802.572 511.511L806.496 511.511C806.592 511.511 806.736 511.515 806.928 511.523C807.12 511.531 807.312 511.543 807.504 511.559C807.696 511.567 807.848 511.575 807.96 511.583L802.572 508.139L802.572 506.843L809.004 506.843L809.004 507.827L805.212 507.827C805.084 507.827 804.916 507.827 804.708 507.827C804.5 507.819 804.296 507.811 804.096 507.803C803.888 507.795 803.732 507.787 803.628 507.779L809.004 511.199L809.004 512.507L802.572 512.507L802.572 511.511ZM804.192 499.624C804.592 499.624 804.904 499.744 805.128 499.984C805.352 500.224 805.504 500.532 805.584 500.908L805.632 500.908C805.688 500.508 805.832 500.16 806.064 499.864C806.288 499.568 806.64 499.42 807.12 499.42C807.664 499.42 808.116 499.624 808.476 500.032C808.828 500.432 809.004 501.096 809.004 502.024L809.004 504.796L802.572 504.796L802.572 502.036C802.572 501.58 802.624 501.172 802.728 500.812C802.824 500.444 802.992 500.156 803.232 499.948C803.464 499.732 803.784 499.624 804.192 499.624ZM804.324 500.692C804.02 500.692 803.8 500.804 803.664 501.028C803.52 501.244 803.448 501.6 803.448 502.096L803.448 503.74L805.212 503.74L805.212 502.288C805.212 501.224 804.916 500.692 804.324 500.692ZM807.12 500.512C806.752 500.512 806.488 500.652 806.328 500.932C806.168 501.212 806.088 501.624 806.088 502.168L806.088 503.74L808.152 503.74L808.152 502.144C808.152 501.616 808.076 501.212 807.924 500.932C807.764 500.652 807.496 500.512 807.12 500.512ZM802.464 495.446C802.464 494.662 802.636 494.082 802.98 493.706C803.324 493.33 803.872 493.142 804.624 493.142L809.004 493.142L809.004 493.91L808.092 494.114L808.092 494.162C808.444 494.442 808.704 494.738 808.872 495.05C809.04 495.354 809.124 495.778 809.124 496.322C809.124 496.906 808.972 497.39 808.668 497.774C808.356 498.158 807.872 498.35 807.216 498.35C806.576 498.35 806.084 498.098 805.74 497.594C805.388 497.09 805.196 496.314 805.164 495.266L805.128 494.174L804.744 494.174C804.208 494.174 803.836 494.29 803.628 494.522C803.42 494.754 803.316 495.082 803.316 495.506C803.316 495.842 803.368 496.162 803.472 496.466C803.568 496.77 803.68 497.054 803.808 497.318L803.016 497.642C802.864 497.362 802.736 497.03 802.632 496.646C802.52 496.262 802.464 495.862 802.464 495.446ZM805.86 494.186L805.896 495.134C805.928 495.934 806.056 496.49 806.28 496.802C806.504 497.106 806.82 497.258 807.228 497.258C807.588 497.258 807.852 497.15 808.02 496.934C808.188 496.71 808.272 496.426 808.272 496.082C808.272 495.538 808.124 495.086 807.828 494.726C807.524 494.366 807.06 494.186 806.436 494.186L805.86 494.186ZM802.572 490.1L805.248 490.1L805.248 486.608L802.572 486.608L802.572 485.552L809.004 485.552L809.004 486.608L806.136 486.608L806.136 490.1L809.004 490.1L809.004 491.156L802.572 491.156L802.572 490.1Z" fill="black"/>
<rect width="109" height="35" transform="translate(810.004 522)" fill="#E0E0E0"/>
<path d="M840.516 534.568H841.644L843.036 538.228C843.156 538.548 843.264 538.856 843.36 539.152C843.456 539.44 843.528 539.716 843.576 539.98H843.624C843.672 539.78 843.748 539.52 843.852 539.2C843.956 538.872 844.064 538.544 844.176 538.216L845.484 534.568H846.624L843.852 541.888C843.628 542.496 843.336 542.98 842.976 543.34C842.624 543.7 842.136 543.88 841.512 543.88C841.32 543.88 841.152 543.868 841.008 543.844C840.864 543.828 840.74 543.808 840.636 543.784V542.944C840.724 542.96 840.828 542.976 840.948 542.992C841.076 543.008 841.208 543.016 841.344 543.016C841.712 543.016 842.008 542.912 842.232 542.704C842.464 542.496 842.644 542.22 842.772 541.876L843.108 541.024L840.516 534.568ZM851.565 534.568V535.456H848.697V541H847.641V534.568H851.565ZM857.365 541H856.297V535.444H854.401C854.297 536.796 854.153 537.888 853.969 538.72C853.785 539.544 853.541 540.144 853.237 540.52C852.933 540.896 852.549 541.084 852.085 541.084C851.981 541.084 851.877 541.076 851.773 541.06C851.677 541.052 851.597 541.032 851.533 541V540.208C851.581 540.224 851.633 540.236 851.689 540.244C851.745 540.252 851.801 540.256 851.857 540.256C852.289 540.256 852.633 539.796 852.889 538.876C853.153 537.956 853.353 536.52 853.489 534.568H857.365V541ZM864.999 537.772C864.999 538.836 864.727 539.66 864.183 540.244C863.647 540.828 862.919 541.12 861.999 541.12C861.431 541.12 860.923 540.992 860.475 540.736C860.035 540.472 859.687 540.092 859.431 539.596C859.175 539.092 859.047 538.484 859.047 537.772C859.047 536.708 859.315 535.888 859.851 535.312C860.387 534.736 861.115 534.448 862.035 534.448C862.619 534.448 863.131 534.58 863.571 534.844C864.019 535.1 864.367 535.476 864.615 535.972C864.871 536.46 864.999 537.06 864.999 537.772ZM860.139 537.772C860.139 538.532 860.287 539.136 860.583 539.584C860.887 540.024 861.367 540.244 862.023 540.244C862.671 540.244 863.147 540.024 863.451 539.584C863.755 539.136 863.907 538.532 863.907 537.772C863.907 537.012 863.755 536.416 863.451 535.984C863.147 535.552 862.667 535.336 862.011 535.336C861.355 535.336 860.879 535.552 860.583 535.984C860.287 536.416 860.139 537.012 860.139 537.772ZM871.844 536.188C871.844 536.588 871.724 536.9 871.484 537.124C871.244 537.348 870.936 537.5 870.56 537.58V537.628C870.96 537.684 871.308 537.828 871.604 538.06C871.9 538.284 872.048 538.636 872.048 539.116C872.048 539.66 871.844 540.112 871.436 540.472C871.036 540.824 870.372 541 869.444 541H866.672V534.568H869.432C869.888 534.568 870.296 534.62 870.656 534.724C871.024 534.82 871.312 534.988 871.52 535.228C871.736 535.46 871.844 535.78 871.844 536.188ZM870.776 536.32C870.776 536.016 870.664 535.796 870.44 535.66C870.224 535.516 869.868 535.444 869.372 535.444H867.728V537.208H869.18C870.244 537.208 870.776 536.912 870.776 536.32ZM870.956 539.116C870.956 538.748 870.816 538.484 870.536 538.324C870.256 538.164 869.844 538.084 869.3 538.084H867.728V540.148H869.324C869.852 540.148 870.256 540.072 870.536 539.92C870.816 539.76 870.956 539.492 870.956 539.116ZM879.178 537.772C879.178 538.836 878.906 539.66 878.362 540.244C877.826 540.828 877.098 541.12 876.178 541.12C875.61 541.12 875.102 540.992 874.654 540.736C874.214 540.472 873.866 540.092 873.61 539.596C873.354 539.092 873.226 538.484 873.226 537.772C873.226 536.708 873.494 535.888 874.03 535.312C874.566 534.736 875.294 534.448 876.214 534.448C876.798 534.448 877.31 534.58 877.75 534.844C878.198 535.1 878.546 535.476 878.794 535.972C879.05 536.46 879.178 537.06 879.178 537.772ZM874.318 537.772C874.318 538.532 874.466 539.136 874.762 539.584C875.066 540.024 875.546 540.244 876.202 540.244C876.85 540.244 877.326 540.024 877.63 539.584C877.934 539.136 878.086 538.532 878.086 537.772C878.086 537.012 877.934 536.416 877.63 535.984C877.326 535.552 876.846 535.336 876.19 535.336C875.534 535.336 875.058 535.552 874.762 535.984C874.466 536.416 874.318 537.012 874.318 537.772ZM881.848 534.568V538.492C881.848 538.588 881.844 538.732 881.836 538.924C881.828 539.116 881.816 539.308 881.8 539.5C881.792 539.692 881.784 539.844 881.776 539.956L885.22 534.568H886.516V541H885.532V537.208C885.532 537.08 885.532 536.912 885.532 536.704C885.54 536.496 885.548 536.292 885.556 536.092C885.564 535.884 885.572 535.728 885.58 535.624L882.16 541H880.852V534.568H881.848ZM886.06 531.904C886.004 532.504 885.8 532.96 885.448 533.272C885.104 533.576 884.552 533.728 883.792 533.728C883.008 533.728 882.452 533.576 882.124 533.272C881.804 532.968 881.624 532.512 881.584 531.904H882.568C882.608 532.336 882.72 532.628 882.904 532.78C883.096 532.924 883.4 532.996 883.816 532.996C884.184 532.996 884.472 532.92 884.68 532.768C884.896 532.608 885.024 532.32 885.064 531.904H886.06Z" fill="black"/>
<rect width="154" height="56" transform="translate(624.004 347)" fill="#E0E0E0"/>
<path d="M683.804 377.16C683.047 377.16 682.369 377.005 681.772 376.696C681.185 376.387 680.721 375.907 680.38 375.256C680.049 374.605 679.884 373.773 679.884 372.76C679.884 371.704 680.06 370.845 680.412 370.184C680.764 369.523 681.239 369.037 681.836 368.728C682.444 368.419 683.132 368.264 683.9 368.264C684.337 368.264 684.759 368.312 685.164 368.408C685.569 368.493 685.9 368.6 686.156 368.728L685.724 369.896C685.468 369.8 685.169 369.709 684.828 369.624C684.487 369.539 684.167 369.496 683.868 369.496C682.183 369.496 681.34 370.579 681.34 372.744C681.34 373.779 681.543 374.573 681.948 375.128C682.364 375.672 682.977 375.944 683.788 375.944C684.257 375.944 684.668 375.896 685.02 375.8C685.383 375.704 685.713 375.587 686.012 375.448V376.696C685.724 376.845 685.404 376.957 685.052 377.032C684.711 377.117 684.295 377.16 683.804 377.16ZM693.971 369.608H691.171V377H689.779V369.608H687.011V368.424H693.971V369.608ZM698.817 368.264C699.553 368.264 700.182 368.424 700.705 368.744C701.238 369.064 701.643 369.517 701.921 370.104C702.209 370.68 702.353 371.357 702.353 372.136V372.984H696.481C696.502 373.955 696.747 374.696 697.217 375.208C697.697 375.709 698.363 375.96 699.217 375.96C699.761 375.96 700.241 375.912 700.657 375.816C701.083 375.709 701.521 375.56 701.969 375.368V376.6C701.531 376.792 701.099 376.931 700.673 377.016C700.246 377.112 699.739 377.16 699.153 377.16C698.342 377.16 697.622 376.995 696.993 376.664C696.374 376.333 695.889 375.843 695.537 375.192C695.195 374.531 695.025 373.725 695.025 372.776C695.025 371.837 695.179 371.032 695.489 370.36C695.809 369.688 696.251 369.171 696.817 368.808C697.393 368.445 698.059 368.264 698.817 368.264ZM698.801 369.416C698.129 369.416 697.595 369.635 697.201 370.072C696.817 370.499 696.587 371.096 696.513 371.864H700.881C700.87 371.139 700.699 370.552 700.369 370.104C700.038 369.645 699.515 369.416 698.801 369.416ZM705.944 368.424V371.992H710.6V368.424H712.008V377H710.6V373.176H705.944V377H704.536V368.424H705.944ZM717.971 368.28C719.017 368.28 719.79 368.509 720.291 368.968C720.793 369.427 721.043 370.157 721.043 371.16V377H720.019L719.747 375.784H719.683C719.31 376.253 718.915 376.6 718.499 376.824C718.094 377.048 717.529 377.16 716.803 377.16C716.025 377.16 715.379 376.957 714.867 376.552C714.355 376.136 714.099 375.491 714.099 374.616C714.099 373.763 714.435 373.107 715.107 372.648C715.779 372.179 716.814 371.923 718.211 371.88L719.667 371.832V371.32C719.667 370.605 719.513 370.109 719.203 369.832C718.894 369.555 718.457 369.416 717.891 369.416C717.443 369.416 717.017 369.485 716.611 369.624C716.206 369.752 715.827 369.901 715.475 370.072L715.043 369.016C715.417 368.813 715.859 368.643 716.371 368.504C716.883 368.355 717.417 368.28 717.971 368.28ZM719.651 372.808L718.387 372.856C717.321 372.899 716.579 373.069 716.163 373.368C715.758 373.667 715.555 374.088 715.555 374.632C715.555 375.112 715.699 375.464 715.987 375.688C716.286 375.912 716.665 376.024 717.123 376.024C717.849 376.024 718.451 375.827 718.931 375.432C719.411 375.027 719.651 374.408 719.651 373.576V372.808Z" fill="black"/>
<rect width="170" height="56" transform="translate(568.004 517) rotate(-90)" fill="#E0E0E0"/>
<path d="M598.004 444.948L586.58 444.948L586.58 438.164L587.844 438.164L587.844 443.508L591.412 443.508L591.412 441.812C591.412 440.671 591.556 439.785 591.844 439.156C592.121 438.527 592.505 438.089 592.996 437.844C593.476 437.599 594.031 437.476 594.66 437.476C595.705 437.476 596.527 437.791 597.124 438.42C597.711 439.049 598.004 440.111 598.004 441.604L598.004 444.948ZM596.772 443.508L596.772 441.748C596.772 440.724 596.601 440.004 596.26 439.588C595.908 439.172 595.375 438.964 594.66 438.964C593.924 438.964 593.407 439.193 593.108 439.652C592.809 440.111 592.66 440.889 592.66 441.988L592.66 443.508L596.772 443.508ZM589.284 432.048C589.284 431.003 589.513 430.23 589.972 429.728C590.431 429.227 591.161 428.976 592.164 428.976L598.004 428.976L598.004 430L596.788 430.272L596.788 430.336C597.257 430.71 597.604 431.104 597.828 431.52C598.052 431.926 598.164 432.491 598.164 433.216C598.164 433.995 597.961 434.64 597.556 435.152C597.14 435.664 596.495 435.92 595.62 435.92C594.767 435.92 594.111 435.584 593.652 434.912C593.183 434.24 592.927 433.206 592.884 431.808L592.836 430.352L592.324 430.352C591.609 430.352 591.113 430.507 590.836 430.816C590.559 431.126 590.42 431.563 590.42 432.128C590.42 432.576 590.489 433.003 590.628 433.408C590.756 433.814 590.905 434.192 591.076 434.544L590.02 434.976C589.817 434.603 589.647 434.16 589.508 433.648C589.359 433.136 589.284 432.603 589.284 432.048ZM593.812 430.368L593.86 431.632C593.903 432.699 594.073 433.44 594.372 433.856C594.671 434.262 595.092 434.464 595.636 434.464C596.116 434.464 596.468 434.32 596.692 434.032C596.916 433.734 597.028 433.355 597.028 432.896C597.028 432.171 596.831 431.568 596.436 431.088C596.031 430.608 595.412 430.368 594.58 430.368L593.812 430.368ZM589.268 422.247C589.268 421.191 589.636 420.343 590.372 419.703C591.108 419.053 592.217 418.727 593.7 418.727C595.161 418.727 596.271 419.053 597.028 419.703C597.785 420.343 598.164 421.197 598.164 422.263C598.164 422.925 598.041 423.474 597.796 423.911C597.54 424.338 597.247 424.674 596.916 424.919L596.916 425.015C597.097 424.994 597.327 424.973 597.604 424.951C597.881 424.93 598.121 424.919 598.324 424.919L601.844 424.919L601.844 426.327L589.428 426.327L589.428 425.175L590.596 424.983L590.596 424.919C590.223 424.663 589.908 424.327 589.652 423.911C589.396 423.495 589.268 422.941 589.268 422.247ZM590.452 422.503C590.452 423.378 590.697 423.997 591.188 424.359C591.679 424.711 592.425 424.898 593.428 424.919L593.7 424.919C594.756 424.919 595.572 424.749 596.148 424.407C596.713 424.055 596.996 423.41 596.996 422.471C596.996 421.949 596.852 421.522 596.564 421.191C596.276 420.85 595.887 420.599 595.396 420.439C594.895 420.269 594.324 420.183 593.684 420.183C592.703 420.183 591.919 420.375 591.332 420.759C590.745 421.133 590.452 421.714 590.452 422.503Z" fill="black"/>
<rect width="105" height="56" transform="translate(425 594)" fill="#E0E0E0"/>
<path d="M445.576 612.576C447.069 612.576 448.157 612.869 448.84 613.456C449.523 614.043 449.864 614.869 449.864 615.936C449.864 616.565 449.72 617.157 449.432 617.712C449.155 618.256 448.68 618.699 448.008 619.04C447.347 619.381 446.445 619.552 445.304 619.552H443.992V624H442.552V612.576H445.576ZM445.448 613.808H443.992V618.32H445.144C446.232 618.32 447.043 618.144 447.576 617.792C448.109 617.44 448.376 616.843 448.376 616C448.376 615.264 448.141 614.715 447.672 614.352C447.203 613.989 446.461 613.808 445.448 613.808ZM455.36 615.264C456.096 615.264 456.725 615.424 457.248 615.744C457.781 616.064 458.186 616.517 458.464 617.104C458.752 617.68 458.896 618.357 458.896 619.136V619.984H453.024C453.045 620.955 453.29 621.696 453.76 622.208C454.24 622.709 454.906 622.96 455.76 622.96C456.304 622.96 456.784 622.912 457.2 622.816C457.626 622.709 458.064 622.56 458.512 622.368V623.6C458.074 623.792 457.642 623.931 457.216 624.016C456.789 624.112 456.282 624.16 455.696 624.16C454.885 624.16 454.165 623.995 453.536 623.664C452.917 623.333 452.432 622.843 452.08 622.192C451.738 621.531 451.568 620.725 451.568 619.776C451.568 618.837 451.722 618.032 452.032 617.36C452.352 616.688 452.794 616.171 453.36 615.808C453.936 615.445 454.602 615.264 455.36 615.264ZM455.344 616.416C454.672 616.416 454.138 616.635 453.744 617.072C453.36 617.499 453.13 618.096 453.056 618.864H457.424C457.413 618.139 457.242 617.552 456.912 617.104C456.581 616.645 456.058 616.416 455.344 616.416ZM464.519 624.16C463.761 624.16 463.084 624.005 462.487 623.696C461.9 623.387 461.436 622.907 461.095 622.256C460.764 621.605 460.599 620.773 460.599 619.76C460.599 618.704 460.775 617.845 461.127 617.184C461.479 616.523 461.953 616.037 462.551 615.728C463.159 615.419 463.847 615.264 464.615 615.264C465.052 615.264 465.473 615.312 465.879 615.408C466.284 615.493 466.615 615.6 466.871 615.728L466.439 616.896C466.183 616.8 465.884 616.709 465.543 616.624C465.201 616.539 464.881 616.496 464.583 616.496C462.897 616.496 462.055 617.579 462.055 619.744C462.055 620.779 462.257 621.573 462.663 622.128C463.079 622.672 463.692 622.944 464.503 622.944C464.972 622.944 465.383 622.896 465.735 622.8C466.097 622.704 466.428 622.587 466.727 622.448V623.696C466.439 623.845 466.119 623.957 465.767 624.032C465.425 624.117 465.009 624.16 464.519 624.16ZM474.686 616.608H471.886V624H470.494V616.608H467.726V615.424H474.686V616.608ZM483.675 619.696C483.675 621.115 483.313 622.213 482.587 622.992C481.873 623.771 480.902 624.16 479.675 624.16C478.918 624.16 478.241 623.989 477.643 623.648C477.057 623.296 476.593 622.789 476.251 622.128C475.91 621.456 475.739 620.645 475.739 619.696C475.739 618.277 476.097 617.184 476.811 616.416C477.526 615.648 478.497 615.264 479.723 615.264C480.502 615.264 481.185 615.44 481.771 615.792C482.369 616.133 482.833 616.635 483.163 617.296C483.505 617.947 483.675 618.747 483.675 619.696ZM477.195 619.696C477.195 620.709 477.393 621.515 477.787 622.112C478.193 622.699 478.833 622.992 479.707 622.992C480.571 622.992 481.206 622.699 481.611 622.112C482.017 621.515 482.219 620.709 482.219 619.696C482.219 618.683 482.017 617.888 481.611 617.312C481.206 616.736 480.566 616.448 479.691 616.448C478.817 616.448 478.182 616.736 477.787 617.312C477.393 617.888 477.195 618.683 477.195 619.696ZM489.987 615.264C491.043 615.264 491.891 615.632 492.531 616.368C493.182 617.104 493.507 618.213 493.507 619.696C493.507 621.157 493.182 622.267 492.531 623.024C491.891 623.781 491.038 624.16 489.971 624.16C489.31 624.16 488.76 624.037 488.323 623.792C487.896 623.536 487.56 623.243 487.315 622.912H487.219C487.24 623.093 487.262 623.323 487.283 623.6C487.304 623.877 487.315 624.117 487.315 624.32V627.84H485.907V615.424H487.059L487.251 616.592H487.315C487.571 616.219 487.907 615.904 488.323 615.648C488.739 615.392 489.294 615.264 489.987 615.264ZM489.731 616.448C488.856 616.448 488.238 616.693 487.875 617.184C487.523 617.675 487.336 618.421 487.315 619.424V619.696C487.315 620.752 487.486 621.568 487.827 622.144C488.179 622.709 488.824 622.992 489.763 622.992C490.286 622.992 490.712 622.848 491.043 622.56C491.384 622.272 491.635 621.883 491.795 621.392C491.966 620.891 492.051 620.32 492.051 619.68C492.051 618.699 491.859 617.915 491.475 617.328C491.102 616.741 490.52 616.448 489.731 616.448ZM498.999 615.28C500.044 615.28 500.817 615.509 501.319 615.968C501.82 616.427 502.071 617.157 502.071 618.16V624H501.047L500.775 622.784H500.711C500.337 623.253 499.943 623.6 499.527 623.824C499.121 624.048 498.556 624.16 497.831 624.16C497.052 624.16 496.407 623.957 495.895 623.552C495.383 623.136 495.127 622.491 495.127 621.616C495.127 620.763 495.463 620.107 496.135 619.648C496.807 619.179 497.841 618.923 499.239 618.88L500.695 618.832V618.32C500.695 617.605 500.54 617.109 500.231 616.832C499.921 616.555 499.484 616.416 498.919 616.416C498.471 616.416 498.044 616.485 497.639 616.624C497.233 616.752 496.855 616.901 496.503 617.072L496.071 616.016C496.444 615.813 496.887 615.643 497.399 615.504C497.911 615.355 498.444 615.28 498.999 615.28ZM500.679 619.808L499.415 619.856C498.348 619.899 497.607 620.069 497.191 620.368C496.785 620.667 496.583 621.088 496.583 621.632C496.583 622.112 496.727 622.464 497.015 622.688C497.313 622.912 497.692 623.024 498.151 623.024C498.876 623.024 499.479 622.827 499.959 622.432C500.439 622.027 500.679 621.408 500.679 620.576V619.808ZM506.127 615.424V618.992H510.783V615.424H512.191V624H510.783V620.176H506.127V624H504.719V615.424H506.127Z" fill="black"/>
<defs>
<clipPath id="clip0">
<rect width="56" height="56" fill="white" transform="translate(209.008 352)"/>
</clipPath>
<clipPath id="clip1">
<rect width="56" height="56" fill="white" transform="translate(209.008 467)"/>
</clipPath>
<clipPath id="clip2">
<rect width="56" height="56" fill="white" transform="translate(22.0039 502)"/>
</clipPath>
<clipPath id="clip3">
<rect width="56" height="56" fill="white" transform="translate(22.0078 584)"/>
</clipPath>
<clipPath id="clip4">
<rect width="44" height="44" fill="white" transform="translate(172.004 585)"/>
</clipPath>
<clipPath id="clip5">
<rect width="56" height="56" fill="white" transform="translate(96.0039 356)"/>
</clipPath>
<clipPath id="clip6">
<rect width="56" height="56" fill="white" transform="translate(283.004 403)"/>
</clipPath>
<clipPath id="clip7">
<rect width="56" height="56" fill="white" transform="translate(439.004 403)"/>
</clipPath>
<clipPath id="clip8">
<rect width="56" height="56" fill="white" transform="translate(506.004 374)"/>
</clipPath>
<clipPath id="clip9">
<rect width="56" height="56" fill="white" transform="translate(361.004 413)"/>
</clipPath>
<clipPath id="clip10">
<rect width="56" height="56" fill="white" transform="translate(283.004 311)"/>
</clipPath>
<clipPath id="clip11">
<rect width="56" height="56" fill="white" transform="translate(439.004 311)"/>
</clipPath>
<clipPath id="clip12">
<rect width="56" height="56" fill="white" transform="translate(361.004 341)"/>
</clipPath>
<clipPath id="clip13">
<rect width="56" height="56" fill="white" transform="translate(96.0039 454)"/>
</clipPath>
<clipPath id="clip14">
<rect width="56" height="56" fill="white" transform="translate(283.004 495)"/>
</clipPath>
<clipPath id="clip15">
<rect width="56" height="56" fill="white" transform="translate(439.004 495)"/>
</clipPath>
<clipPath id="clip16">
<rect width="56" height="56" fill="white" transform="translate(506.004 466)"/>
</clipPath>
<clipPath id="clip17">
<rect width="56" height="56" fill="white" transform="translate(361.004 485)"/>
</clipPath>
<clipPath id="clip18">
<rect width="56" height="56" fill="white" transform="translate(96.0039 544)"/>
</clipPath>
<clipPath id="clip19">
<rect width="56" height="56" fill="white" transform="translate(283.004 587)"/>
</clipPath>
</defs>
</svg>
